<?xml version="1.0" standalone="no"?>
<!DOCTYPE svg PUBLIC "-//W3C//DTD SVG 1.1//EN" "http://www.w3.org/Graphics/SVG/1.1/DTD/svg11.dtd" >
<svg>
<metadata>
Created by FontForge 20110222 at Sat May 17 02:38:27 2014
 By Orthosie Webhosting
(c)2008 Schwartzco Inc.
</metadata>
<defs>
<font id="Stag-Book" horiz-adv-x="600" >
  <font-face 
    font-family="Stag Book"
    font-weight="400"
    font-stretch="normal"
    units-per-em="1000"
    panose-1="2 0 5 3 6 0 0 2 0 4"
    ascent="800"
    descent="-200"
    x-height="524"
    cap-height="700"
    bbox="-183 -208 1160 930"
    underline-thickness="20"
    underline-position="-113"
    stemh="76"
    stemv="108"
    unicode-range="U+0020-FB04"
  />
<missing-glyph horiz-adv-x="503" 
 />
    <glyph glyph-name="f_i" unicode="fi" horiz-adv-x="547" 
d="M10 456v68h69v45c0 98 60 139 153 139c40 0 61 -6 78 -12v-62h-47c-45 0 -76 -10 -76 -68v-42h259c14 0 21 -12 21 -46v-387c0 -14 14 -27 27 -27h39v-64h-225v64h51v392h-172v-392h53v-64h-226v64h37c14 0 28 14 28 27v365h-69zM410 579c-34 0 -62 27 -62 61
s28 61 62 61c35 0 62 -27 62 -61s-27 -61 -62 -61z" />
    <glyph glyph-name="f_l" unicode="fl" horiz-adv-x="547" 
d="M10 456v68h69v46c0 95 60 138 169 138c38 0 65 -3 96 -8h102c14 0 21 -9 21 -27v-582c0 -14 14 -27 27 -27h39v-64h-225v64h51v570h-82c-59 0 -90 -11 -90 -68v-42h109v-68h-109v-392h53v-64h-226v64h37c14 0 28 14 28 27v365h-69z" />
    <glyph glyph-name="f_f" unicode="ff" horiz-adv-x="595" 
d="M308 0v64h51v392h-172v-392h53v-64h-226v64h37c14 0 28 14 28 27v365h-69v68h69v40c0 98 59 139 148 139c43 0 67 -6 83 -12v-62h-47c-46 0 -76 -10 -76 -68v-37h172v45c0 98 60 139 153 139c40 0 65 -6 82 -12v-62h-50c-46 0 -77 -10 -77 -68v-42h110v-68h-110v-365
c0 -14 14 -27 27 -27h51v-64h-237z" />
    <glyph glyph-name="f_b" unicode="fb" horiz-adv-x="874" 
d="M359 634h-82c-59 0 -90 -11 -90 -68v-42h109v-68h-109v-392h78v-64h-251v64h37c14 0 28 14 28 27v365h-69v68h69v46c0 95 60 138 169 138c38 0 65 -3 96 -8h103c13 0 20 -9 20 -27v-228c41 45 97 85 183 85c99 0 201 -62 201 -261c0 -205 -118 -275 -229 -275
c-84 0 -129 25 -164 61c-9 -33 -29 -55 -41 -55h-58v634zM592 59c71 0 147 39 147 201c0 154 -65 191 -138 191c-51 0 -98 -28 -134 -57v-286c30 -30 67 -49 125 -49z" />
    <glyph glyph-name="f_h" unicode="fh" horiz-adv-x="883" 
d="M540 0h-232v64h51v570h-82c-59 0 -90 -11 -90 -68v-42h109v-68h-109v-392h53v-64h-226v64h37c14 0 28 14 28 27v365h-69v68h69v46c0 95 60 138 169 138c38 0 65 -3 96 -8h103c13 0 20 -9 20 -27v-227c52 48 125 84 206 84c75 0 137 -27 137 -130v-309
c0 -14 14 -27 26 -27h33v-64h-239v64h72v300c0 65 -29 81 -82 81c-56 0 -108 -23 -153 -50v-331h73v-64z" />
    <glyph glyph-name="f_j" unicode="fj" horiz-adv-x="534" 
d="M410 579c-34 0 -62 27 -62 61s28 61 62 61c35 0 62 -27 62 -61s-27 -61 -62 -61zM359 456h-172v-392h78v-64h-251v64h37c14 0 28 14 28 27v365h-69v68h69v45c0 98 60 139 153 139c40 0 61 -6 78 -12v-62h-47c-45 0 -76 -10 -76 -68v-42h259c14 0 21 -12 21 -46v-513
c0 -97 -50 -133 -139 -133c-34 0 -56 4 -76 11v55h36c53 0 71 23 71 72v486z" />
    <glyph glyph-name="f_k" unicode="fk" horiz-adv-x="833" 
d="M344 700h103c13 0 20 -9 20 -27v-423l166 169c15 16 9 37 -10 37h-24v68h217v-68h-26c-13 0 -32 -9 -44 -21l-130 -130l146 -210c14 -20 30 -31 44 -31h15v-64h-120l-158 233l-76 -75v-94h66v-64h-225v64h51v570h-82c-59 0 -90 -11 -90 -68v-42h109v-68h-109v-392h53v-64
h-226v64h37c14 0 28 14 28 27v365h-69v68h69v46c0 95 60 138 169 138c38 0 65 -3 96 -8z" />
    <glyph glyph-name="f_t" unicode="ft" horiz-adv-x="609" 
d="M507 -7c-93 0 -147 33 -147 131v332h-173v-365c0 -14 14 -27 27 -27h51v-64h-251v64h37c14 0 28 14 28 27v365h-69v68h69v45c0 98 60 139 152 139c39 0 60 -6 77 -12v-62h-44c-46 0 -77 -10 -77 -68v-42h173v141h108v-141h119v-68h-119v-320c0 -59 20 -72 73 -72h53v-58
c-19 -7 -50 -13 -87 -13z" />
    <glyph glyph-name="f_f_i" unicode="ffi" horiz-adv-x="827" 
d="M359 64v392h-172v-392h53v-64h-226v64h37c14 0 28 14 28 27v365h-69v68h69v40c0 98 59 139 148 139c43 0 67 -6 83 -12v-62h-47c-46 0 -76 -10 -76 -68v-37h172v45c0 98 60 139 153 139c40 0 61 -6 78 -12v-62h-47c-45 0 -76 -10 -76 -68v-42h259c14 0 21 -12 21 -46
v-387c0 -14 14 -27 27 -27h39v-64h-225v64h51v392h-172v-392h53v-64h-212v64h51zM690 579c-34 0 -62 27 -62 61s28 61 62 61c35 0 62 -27 62 -61s-27 -61 -62 -61z" />
    <glyph glyph-name="f_f_l" unicode="ffl" horiz-adv-x="827" 
d="M359 64v392h-172v-392h53v-64h-226v64h37c14 0 28 14 28 27v365h-69v68h69v40c0 98 59 139 148 139c43 0 67 -6 83 -12v-62h-47c-46 0 -76 -10 -76 -68v-37h172v46c0 95 60 138 169 138c38 0 65 -3 96 -8h102c14 0 21 -9 21 -27v-582c0 -14 14 -27 27 -27h39v-64h-225v64
h51v570h-82c-59 0 -90 -11 -90 -68v-42h109v-68h-109v-392h53v-64h-212v64h51z" />
    <glyph glyph-name="f_f_b" unicode="ffb" horiz-adv-x="1154" 
d="M639 634h-82c-59 0 -90 -11 -90 -68v-42h109v-68h-109v-392h78v-64h-237v64h51v392h-172v-392h53v-64h-226v64h37c14 0 28 14 28 27v365h-69v68h69v40c0 98 59 139 148 139c43 0 67 -6 83 -12v-62h-47c-46 0 -76 -10 -76 -68v-37h172v46c0 95 60 138 169 138
c38 0 65 -3 96 -8h103c13 0 20 -9 20 -27v-228c41 45 97 85 183 85c99 0 201 -62 201 -261c0 -205 -118 -275 -229 -275c-84 0 -129 25 -164 61c-9 -33 -29 -55 -41 -55h-58v634zM872 59c71 0 147 39 147 201c0 154 -65 191 -138 191c-51 0 -98 -28 -134 -57v-286
c30 -30 67 -49 125 -49z" />
    <glyph glyph-name="f_f_h" unicode="ffh" horiz-adv-x="1163" 
d="M820 0h-232v64h51v570h-82c-59 0 -90 -11 -90 -68v-42h109v-68h-109v-392h53v-64h-212v64h51v392h-172v-392h53v-64h-226v64h37c14 0 28 14 28 27v365h-69v68h69v40c0 98 59 139 148 139c43 0 67 -6 83 -12v-62h-47c-46 0 -76 -10 -76 -68v-37h172v46
c0 95 60 138 169 138c38 0 65 -3 96 -8h103c13 0 20 -9 20 -27v-227c52 48 125 84 206 84c75 0 137 -27 137 -130v-309c0 -14 14 -27 26 -27h33v-64h-239v64h72v300c0 65 -29 81 -82 81c-56 0 -108 -23 -153 -50v-331h73v-64z" />
    <glyph glyph-name="f_f_j" unicode="ffj" horiz-adv-x="814" 
d="M639 456h-172v-392h78v-64h-237v64h51v392h-172v-392h53v-64h-226v64h37c14 0 28 14 28 27v365h-69v68h69v40c0 98 59 139 148 139c43 0 67 -6 83 -12v-62h-47c-46 0 -76 -10 -76 -68v-37h172v45c0 98 60 139 153 139c40 0 61 -6 78 -12v-62h-47c-45 0 -76 -10 -76 -68
v-42h259c14 0 21 -12 21 -46v-513c0 -97 -50 -133 -139 -133c-34 0 -56 4 -76 11v55h36c53 0 71 23 71 72v486zM690 579c-34 0 -62 27 -62 61s28 61 62 61c35 0 62 -27 62 -61s-27 -61 -62 -61z" />
    <glyph glyph-name="f_f_k" unicode="ffk" horiz-adv-x="1113" 
d="M624 700h103c13 0 20 -9 20 -27v-423l166 169c15 16 9 37 -10 37h-24v68h217v-68h-26c-13 0 -32 -9 -44 -21l-130 -130l146 -210c14 -20 30 -31 44 -31h15v-64h-120l-158 233l-76 -75v-94h66v-64h-225v64h51v570h-82c-59 0 -90 -11 -90 -68v-42h109v-68h-109v-392h53v-64
h-212v64h51v392h-172v-392h53v-64h-226v64h37c14 0 28 14 28 27v365h-69v68h69v40c0 98 59 139 148 139c43 0 67 -6 83 -12v-62h-47c-46 0 -76 -10 -76 -68v-37h172v46c0 95 60 138 169 138c38 0 65 -3 96 -8z" />
    <glyph glyph-name="f_f_t" unicode="fft" horiz-adv-x="889" 
d="M787 -7c-93 0 -147 33 -147 131v332h-173v-365c0 -14 14 -27 27 -27h51v-64h-237v64h51v392h-172v-392h53v-64h-226v64h37c14 0 28 14 28 27v365h-69v68h69v40c0 98 59 139 148 139c43 0 67 -6 83 -12v-62h-47c-46 0 -76 -10 -76 -68v-37h172v45c0 98 60 139 152 139
c39 0 60 -6 77 -12v-62h-44c-46 0 -77 -10 -77 -68v-42h173v141h108v-141h119v-68h-119v-320c0 -59 20 -72 73 -72h53v-58c-19 -7 -50 -13 -87 -13z" />
    <glyph glyph-name="f_igrave" unicode="f&#xec;" horiz-adv-x="547" 
d="M10 456v68h69v45c0 98 60 139 144 139c34 0 55 -5 72 -12v-62h-34c-43 0 -74 -10 -74 -68v-42h259c14 0 21 -12 21 -46v-387c0 -14 14 -27 27 -27h39v-64h-225v64h51v392h-172v-392h53v-64h-226v64h37c14 0 28 14 28 27v365h-69zM388 567l-66 93v40h106l21 -133h-61z" />
    <glyph glyph-name="f_iacute" unicode="f&#xed;" horiz-adv-x="547" 
d="M10 456v68h69v45c0 98 60 139 153 139c40 0 61 -6 78 -12v-62h-47c-45 0 -76 -10 -76 -68v-42h259c14 0 21 -12 21 -46v-387c0 -14 14 -27 27 -27h39v-64h-225v64h51v392h-172v-392h53v-64h-226v64h37c14 0 28 14 28 27v365h-69zM374 567l46 133h108v-39l-94 -94h-60z
" />
    <glyph glyph-name="f_icircumflex" unicode="f&#xee;" horiz-adv-x="547" 
d="M300 567v29l62 104h94l59 -104v-29h-46l-62 69l-63 -69h-44zM10 456v68h69v45c0 98 60 139 144 139c34 0 55 -5 72 -12v-62h-34c-43 0 -74 -10 -74 -68v-42h259c14 0 21 -12 21 -46v-387c0 -14 14 -27 27 -27h39v-64h-225v64h51v392h-172v-392h53v-64h-226v64h37
c14 0 28 14 28 27v365h-69z" />
    <glyph glyph-name="f_idieresis" unicode="f&#xef;" horiz-adv-x="547" 
d="M358 582c-31 0 -56 24 -56 55c0 30 25 55 56 55s55 -25 55 -55c0 -31 -24 -55 -55 -55zM498 582c-31 0 -56 24 -56 55c0 30 25 55 56 55s55 -25 55 -55c0 -31 -24 -55 -55 -55zM10 456v68h69v45c0 98 60 139 137 139c28 0 46 -5 63 -12v-62h-28c-34 0 -64 -10 -64 -68
v-42h259c14 0 21 -12 21 -46v-387c0 -14 14 -27 27 -27h39v-64h-225v64h51v392h-172v-392h53v-64h-226v64h37c14 0 28 14 28 27v365h-69z" />
    <glyph glyph-name="f_iogonek" unicode="f&#x12f;" horiz-adv-x="547" 
d="M430 0h-122v64h51v392h-172v-392h53v-64h-226v64h37c14 0 28 14 28 27v365h-69v68h69v45c0 98 60 139 153 139c40 0 61 -6 78 -12v-62h-47c-45 0 -76 -10 -76 -68v-42h259c14 0 21 -12 21 -46v-387c0 -14 14 -27 27 -27h39v-64h-39c-27 -22 -48 -41 -48 -69
c0 -20 10 -31 39 -31h31v-50c-18 -9 -36 -15 -64 -15c-57 0 -92 28 -92 72c0 46 39 77 70 93zM410 579c-34 0 -62 27 -62 61s28 61 62 61c35 0 62 -27 62 -61s-27 -61 -62 -61z" />
    <glyph glyph-name="f_imacron" unicode="f&#x12b;" horiz-adv-x="547" 
d="M312 595v72h193v-72h-193zM10 456v68h69v45c0 98 60 139 137 139c28 0 53 -5 70 -12v-62h-35c-34 0 -64 -10 -64 -68v-42h259c14 0 21 -12 21 -46v-387c0 -14 14 -27 27 -27h39v-64h-225v64h51v392h-172v-392h53v-64h-226v64h37c14 0 28 14 28 27v365h-69z" />
    <glyph glyph-name="f_f_igrave" unicode="ff&#xec;" horiz-adv-x="827" 
d="M359 64v392h-172v-392h53v-64h-226v64h37c14 0 28 14 28 27v365h-69v68h69v40c0 98 59 139 148 139c43 0 67 -6 83 -12v-62h-47c-46 0 -76 -10 -76 -68v-37h172v45c0 98 60 139 144 139c34 0 55 -5 72 -12v-62h-34c-43 0 -74 -10 -74 -68v-42h259c14 0 21 -12 21 -46
v-387c0 -14 14 -27 27 -27h39v-64h-225v64h51v392h-172v-392h53v-64h-212v64h51zM668 567l-66 93v40h106l21 -133h-61z" />
    <glyph glyph-name="f_f_iacute" unicode="ff&#xed;" horiz-adv-x="827" 
d="M359 64v392h-172v-392h53v-64h-226v64h37c14 0 28 14 28 27v365h-69v68h69v40c0 98 59 139 148 139c43 0 67 -6 83 -12v-62h-47c-46 0 -76 -10 -76 -68v-37h172v45c0 98 60 139 153 139c40 0 61 -6 78 -12v-62h-47c-45 0 -76 -10 -76 -68v-42h259c14 0 21 -12 21 -46
v-387c0 -14 14 -27 27 -27h39v-64h-225v64h51v392h-172v-392h53v-64h-212v64h51zM654 567l46 133h108v-39l-94 -94h-60z" />
    <glyph glyph-name="f_f_icircumflex" unicode="ff&#xee;" horiz-adv-x="827" 
d="M359 64v392h-172v-392h53v-64h-226v64h37c14 0 28 14 28 27v365h-69v68h69v40c0 98 59 139 148 139c43 0 67 -6 83 -12v-62h-47c-46 0 -76 -10 -76 -68v-37h172v45c0 98 60 139 144 139c34 0 55 -5 72 -12v-62h-34c-43 0 -74 -10 -74 -68v-42h259c14 0 21 -12 21 -46
v-387c0 -14 14 -27 27 -27h39v-64h-225v64h51v392h-172v-392h53v-64h-212v64h51zM580 567v29l62 104h94l59 -104v-29h-46l-62 69l-63 -69h-44z" />
    <glyph glyph-name="f_f_idieresis" unicode="ff&#xef;" horiz-adv-x="827" 
d="M359 64v392h-172v-392h53v-64h-226v64h37c14 0 28 14 28 27v365h-69v68h69v40c0 98 59 139 148 139c43 0 67 -6 83 -12v-62h-47c-46 0 -76 -10 -76 -68v-37h172v45c0 98 60 139 137 139c28 0 46 -5 63 -12v-62h-28c-34 0 -64 -10 -64 -68v-42h259c14 0 21 -12 21 -46
v-387c0 -14 14 -27 27 -27h39v-64h-225v64h51v392h-172v-392h53v-64h-212v64h51zM778 582c-31 0 -56 24 -56 55c0 30 25 55 56 55s55 -25 55 -55c0 -31 -24 -55 -55 -55zM638 582c-31 0 -56 24 -56 55c0 30 25 55 56 55s55 -25 55 -55c0 -31 -24 -55 -55 -55z" />
    <glyph glyph-name="f_f_iogonek" unicode="ff&#x12f;" horiz-adv-x="827" 
d="M710 0h-122v64h51v392h-172v-392h53v-64h-212v64h51v392h-172v-392h53v-64h-226v64h37c14 0 28 14 28 27v365h-69v68h69v40c0 98 59 139 148 139c43 0 67 -6 83 -12v-62h-47c-46 0 -76 -10 -76 -68v-37h172v45c0 98 60 139 153 139c40 0 61 -6 78 -12v-62h-47
c-45 0 -76 -10 -76 -68v-42h259c14 0 21 -12 21 -46v-387c0 -14 14 -27 27 -27h39v-64h-39c-27 -22 -48 -41 -48 -69c0 -20 10 -31 39 -31h31v-50c-18 -9 -36 -15 -64 -15c-57 0 -92 28 -92 72c0 46 39 77 70 93zM690 579c-34 0 -62 27 -62 61s28 61 62 61
c35 0 62 -27 62 -61s-27 -61 -62 -61z" />
    <glyph glyph-name="f_f_imacron" unicode="ff&#x12b;" horiz-adv-x="827" 
d="M359 64v392h-172v-392h53v-64h-226v64h37c14 0 28 14 28 27v365h-69v68h69v40c0 98 59 139 148 139c43 0 67 -6 83 -12v-62h-47c-46 0 -76 -10 -76 -68v-37h172v45c0 98 60 139 137 139c28 0 53 -5 70 -12v-62h-35c-34 0 -64 -10 -64 -68v-42h259c14 0 21 -12 21 -46
v-387c0 -14 14 -27 27 -27h39v-64h-225v64h51v392h-172v-392h53v-64h-212v64h51zM592 595v72h193v-72h-193z" />
    <glyph glyph-name=".notdef" horiz-adv-x="503" 
 />
    <glyph glyph-name="space" unicode=" " horiz-adv-x="166" 
 />
    <glyph glyph-name="exclam" unicode="!" horiz-adv-x="184" 
d="M61 180l-27 454v66h117v-66l-27 -454h-63zM92 -5c-36 0 -65 28 -65 63s29 64 65 64s65 -29 65 -64s-29 -63 -65 -63z" />
    <glyph glyph-name="quotedbl" unicode="&#x22;" horiz-adv-x="312" 
d="M52 496l-24 143v61h106v-61l-25 -143h-57zM203 496l-25 143v61h106v-61l-25 -143h-56z" />
    <glyph glyph-name="numbersign" unicode="#" horiz-adv-x="479" 
d="M48 417v88h88l29 195h72l-29 -195h105l29 195h72l-29 -195h75v-88h-88l-16 -109h75v-88h-88l-31 -220h-72l31 220h-105l-31 -220h-72l31 220h-75v88h88l16 109h-75zM195 417l-16 -109h105l16 109h-105z" />
    <glyph glyph-name="dollar" unicode="$" horiz-adv-x="517" 
d="M22 25v145h68c8 -72 43 -95 131 -103v247c-120 32 -195 75 -195 200c0 107 69 179 195 190v60h64v-58c72 -3 130 -15 178 -32v-136h-67c-11 64 -37 86 -111 95v-231c129 -36 205 -73 205 -198c0 -124 -74 -197 -205 -208v-98h-64v96c-77 2 -141 14 -199 31zM386 188
c0 61 -38 86 -101 107v-225c66 11 101 53 101 118zM123 528c0 -60 31 -85 98 -107v211c-68 -11 -98 -50 -98 -104z" />
    <glyph glyph-name="percent" unicode="%" horiz-adv-x="762" 
d="M186 405c44 0 71 38 71 119s-27 120 -71 120c-45 0 -72 -39 -72 -120s27 -119 72 -119zM186 343c-88 0 -165 60 -165 182s77 182 165 182c87 0 164 -60 164 -182s-77 -182 -164 -182zM95 -34l493 763h80l-493 -763h-80zM577 55c44 0 71 38 71 119s-27 120 -71 120
c-45 0 -72 -39 -72 -120s27 -119 72 -119zM577 -7c-88 0 -165 60 -165 182s77 182 165 182c87 0 164 -60 164 -182s-77 -182 -164 -182z" />
    <glyph glyph-name="ampersand" unicode="&#x26;" horiz-adv-x="697" 
d="M272 -7c-161 0 -247 80 -247 200c0 107 66 168 152 205c-28 37 -47 75 -47 136c0 104 78 173 197 173c53 0 88 -17 101 -23c7 0 12 6 14 16h73v-173h-79l-13 69c-20 17 -47 32 -87 32c-60 0 -92 -37 -92 -89c0 -51 31 -86 69 -126l180 -191c20 39 33 82 41 129h-55v64
h202v-64h-31c-15 0 -27 -8 -31 -25c-15 -61 -37 -115 -66 -167l63 -67c19 -19 31 -28 46 -28h19v-64h-131l-68 72c-51 -49 -119 -79 -210 -79zM287 68c60 0 106 24 141 61l-206 218c-44 -25 -78 -68 -78 -140c0 -75 43 -139 143 -139z" />
    <glyph glyph-name="quoteright" unicode="&#x2019;" horiz-adv-x="165" 
d="M17 493v49c34 5 52 20 52 39c0 15 -13 17 -25 26c-15 10 -23 23 -23 46c0 30 25 53 58 53c35 0 67 -24 67 -75c0 -85 -44 -129 -129 -138z" />
    <glyph glyph-name="parenleft" unicode="(" horiz-adv-x="296" 
d="M243 -49c-104 33 -220 145 -220 400c0 248 118 357 220 390h38v-59c-69 -28 -159 -104 -159 -331c0 -238 90 -313 159 -343v-57h-38z" />
    <glyph glyph-name="parenright" unicode=")" horiz-adv-x="296" 
d="M53 -49h-38v57c69 30 159 105 159 343c0 227 -90 303 -159 331v59h38c102 -33 220 -142 220 -390c0 -255 -116 -367 -220 -400z" />
    <glyph glyph-name="asterisk" unicode="*" horiz-adv-x="359" 
d="M153 363l-16 43l37 114l-82 -89l-45 -7l-27 46l30 35l119 26l-119 26l-30 36l27 46l45 -8l82 -90l-37 116l16 43h54l15 -43l-37 -116l83 90l44 8l27 -46l-29 -36l-120 -26l120 -26l29 -35l-26 -46l-45 7l-83 89l37 -114l-15 -43h-54z" />
    <glyph glyph-name="plus" unicode="+" horiz-adv-x="496" 
d="M205 115v190h-180v81h180v190h87v-190h179v-81h-179v-190h-87z" />
    <glyph glyph-name="comma" unicode="," horiz-adv-x="183" 
d="M22 -103v50c36 7 55 23 55 43c0 16 -13 18 -26 27c-16 11 -25 25 -25 49c0 32 27 56 62 56c37 0 70 -25 70 -79c0 -90 -47 -135 -136 -146z" />
    <glyph glyph-name="hyphen" unicode="-" horiz-adv-x="265" 
d="M27 256v83h210v-83h-210z" />
    <glyph glyph-name="period" unicode="." horiz-adv-x="182" 
d="M91 -5c-37 0 -65 28 -65 63s28 64 65 64c36 0 65 -29 65 -64s-29 -63 -65 -63z" />
    <glyph glyph-name="slash" unicode="/" horiz-adv-x="328" 
d="M2 -49l242 790h79l-242 -790h-79z" />
    <glyph glyph-name="zero" unicode="0" horiz-adv-x="645" 
d="M322 -7c-157 0 -295 117 -295 357s138 357 295 357c158 0 296 -117 296 -357s-138 -357 -296 -357zM322 69c106 0 175 81 175 279c0 199 -69 280 -175 280c-107 0 -174 -81 -174 -280c0 -198 67 -279 174 -279z" />
    <glyph glyph-name="one" unicode="1" horiz-adv-x="355" 
d="M16 0v64h78c16 0 30 18 30 32v496l-81 -40h-29v63l149 85h77v-604c0 -14 15 -32 30 -32h69v-64h-323z" />
    <glyph glyph-name="two" unicode="2" horiz-adv-x="518" 
d="M22 0v53c0 132 92 203 193 272c92 63 159 105 159 188c0 72 -36 116 -117 116c-79 0 -122 -26 -135 -93h-68v133c60 23 129 38 207 38c148 0 233 -64 233 -193c0 -126 -105 -186 -209 -249c-82 -49 -157 -104 -162 -179h273l10 93h76v-179h-460z" />
    <glyph glyph-name="three" unicode="3" horiz-adv-x="504" 
d="M218 -7c-87 0 -149 16 -200 36v122h67c12 -57 58 -82 132 -82c90 0 143 46 143 132s-54 119 -142 119h-57v77h49c91 0 143 37 143 118c0 74 -35 114 -118 114c-68 0 -115 -21 -128 -78h-65v119c59 22 124 37 201 37c142 0 224 -57 224 -180c0 -94 -56 -144 -142 -163v-3
c102 -17 154 -72 154 -166c1 -130 -101 -202 -261 -202z" />
    <glyph glyph-name="four" unicode="4" horiz-adv-x="541" 
d="M302 64c15 0 31 18 31 32v77h-317v91l324 436h105v-452h80v-75h-80v-77c0 -14 15 -32 30 -32h50v-64h-273v64h50zM93 252v-4h240v323h-4z" />
    <glyph glyph-name="five" unicode="5" horiz-adv-x="506" 
d="M218 -7c-89 0 -148 18 -200 41v118h67c13 -60 54 -83 131 -83c87 0 148 50 148 153c0 101 -59 140 -129 140c-69 0 -106 -28 -129 -55h-71v393h420v-154h-75l-10 68h-250v-218h3c25 21 72 44 143 44c117 0 216 -64 216 -214c0 -148 -107 -233 -264 -233z" />
    <glyph glyph-name="six" unicode="6" horiz-adv-x="572" 
d="M296 -7c-153 0 -269 108 -269 342c0 239 134 372 333 372c70 0 117 -9 151 -20v-93h-64c-15 16 -41 35 -94 35c-154 0 -204 -132 -206 -268c40 42 106 76 185 76c120 0 216 -68 216 -208c0 -141 -101 -236 -252 -236zM296 68c93 0 135 64 135 157s-52 134 -130 134
c-68 0 -121 -30 -154 -65c6 -159 57 -226 149 -226z" />
    <glyph glyph-name="seven" unicode="7" horiz-adv-x="506" 
d="M102 0v47l306 563v3h-306l-9 -103h-76v190h473v-96l-277 -604h-111z" />
    <glyph glyph-name="eight" unicode="8" horiz-adv-x="574" 
d="M287 -7c-170 0 -262 80 -262 203c0 90 52 149 146 177v3c-72 24 -114 73 -114 149c0 111 92 182 230 182c139 0 231 -71 231 -182c0 -76 -42 -125 -116 -149v-3c95 -26 147 -87 147 -177c0 -123 -92 -203 -262 -203zM287 68c101 0 145 56 145 133c0 78 -45 136 -145 136
s-145 -58 -145 -136c0 -77 44 -133 145 -133zM287 410c76 0 119 38 119 109s-43 111 -119 111s-118 -40 -118 -111s42 -109 118 -109z" />
    <glyph glyph-name="nine" unicode="9" horiz-adv-x="572" 
d="M277 707c153 0 269 -108 269 -342c0 -242 -127 -372 -327 -372c-76 0 -125 10 -167 26v95h64c22 -25 44 -45 109 -45c153 0 200 131 201 270c-40 -42 -106 -76 -185 -76c-120 0 -216 68 -216 208c0 141 101 236 252 236zM277 629c-93 0 -136 -61 -136 -154
s53 -134 131 -134c68 0 121 30 154 65c-6 159 -57 223 -149 223z" />
    <glyph glyph-name="colon" unicode=":" horiz-adv-x="184" 
d="M92 -5c-37 0 -65 28 -65 63s28 64 65 64c36 0 65 -29 65 -64s-29 -63 -65 -63zM92 293c-37 0 -65 27 -65 62c0 36 28 64 65 64c36 0 65 -28 65 -64c0 -35 -29 -62 -65 -62z" />
    <glyph glyph-name="semicolon" unicode=";" horiz-adv-x="184" 
d="M92 293c-37 0 -65 27 -65 62c0 36 28 64 65 64c36 0 65 -28 65 -64c0 -35 -29 -62 -65 -62zM21 -103v50c36 7 56 23 56 43c0 16 -13 18 -26 27c-16 11 -25 25 -25 49c0 32 27 56 62 56c37 0 70 -25 70 -79c0 -90 -47 -135 -137 -146z" />
    <glyph glyph-name="less" unicode="&#x3c;" horiz-adv-x="459" 
d="M404 98l-380 195v73l380 195h28v-80l-299 -149v-2l299 -151v-81h-28z" />
    <glyph glyph-name="equal" unicode="=" horiz-adv-x="487" 
d="M26 178v81h435v-81h-435zM26 370v81h435v-81h-435z" />
    <glyph glyph-name="greater" unicode="&#x3e;" horiz-adv-x="459" 
d="M28 98v80l298 148v3l-298 150v82h27l381 -195v-73l-381 -195h-27z" />
    <glyph glyph-name="question" unicode="?" horiz-adv-x="435" 
d="M130 180c-12 83 2 132 70 202c35 36 92 86 92 154c0 60 -30 94 -91 94c-59 0 -97 -21 -111 -76h-66v118c51 21 99 35 181 35c127 0 208 -57 208 -173c0 -86 -50 -130 -112 -181c-70 -58 -107 -95 -100 -173h-71zM172 -5c-36 0 -65 28 -65 63s29 64 65 64s65 -29 65 -64
s-29 -63 -65 -63z" />
    <glyph glyph-name="at" unicode="@" horiz-adv-x="869" 
d="M629 123c75 0 143 65 143 214c0 170 -137 266 -320 266c-173 0 -348 -117 -348 -360c0 -222 147 -312 333 -312c101 0 184 24 242 63h41v-47c-64 -46 -168 -76 -283 -76c-209 0 -411 110 -411 372c0 273 228 421 426 421c205 0 392 -117 392 -327
c0 -187 -116 -269 -231 -269c-83 0 -113 29 -124 70c-33 -36 -75 -70 -140 -70c-78 0 -123 46 -123 130c0 79 29 143 73 193c39 44 94 71 156 71c52 0 80 -17 102 -38c17 16 39 33 58 33h36l-60 -260c-10 -41 -7 -74 38 -74zM377 130c44 0 80 29 111 63l44 191
c-15 8 -33 14 -63 14c-41 0 -72 -20 -97 -53c-27 -36 -46 -87 -46 -150c0 -46 21 -65 51 -65z" />
    <glyph glyph-name="A" unicode="A" horiz-adv-x="721" 
d="M535 64l-53 157h-274l-27 -77c-18 -50 -12 -80 32 -80h47v-64h-249v64h25c20 0 35 14 43 34l181 502c7 20 -3 34 -21 34h-54v66h253l205 -603c6 -18 23 -33 40 -33h27v-64h-273v64h98zM348 614l-115 -325h227l-108 325h-4z" />
    <glyph glyph-name="B" unicode="B" horiz-adv-x="598" 
d="M16 0v66h42c15 0 31 18 31 32v505c0 15 -16 33 -31 33h-42v64h279c156 0 251 -51 251 -177c0 -90 -54 -134 -141 -152v-3c104 -14 171 -66 171 -169c0 -136 -108 -199 -270 -199h-290zM205 70h98c107 0 152 45 152 134s-43 127 -156 127h-94v-261zM205 399h86
c93 0 139 34 139 116c0 85 -46 114 -138 114h-87v-230z" />
    <glyph glyph-name="C" unicode="C" horiz-adv-x="630" 
d="M359 -7c-202 0 -333 125 -333 357s141 357 339 357c82 0 120 -17 140 -26c8 0 15 8 16 19h73v-214h-79l-12 99c-29 24 -72 44 -135 44c-125 0 -220 -83 -220 -275c0 -189 79 -285 215 -285c92 0 150 37 188 89h55v-82c-57 -48 -135 -83 -247 -83z" />
    <glyph glyph-name="D" unicode="D" horiz-adv-x="690" 
d="M16 0v64h42c15 0 31 18 31 32v505c0 15 -16 33 -31 33h-42v66h283c233 0 364 -104 364 -348c0 -240 -132 -352 -368 -352h-279zM205 68h90c168 0 247 83 247 283c0 199 -78 278 -247 278h-90v-561z" />
    <glyph glyph-name="E" unicode="E" horiz-adv-x="588" 
d="M16 0v64h42c15 0 31 18 31 32v505c0 15 -16 33 -31 33h-42v66h541v-186h-73l-12 115h-269v-237h137l8 83h70v-235h-70l-8 83h-137v-253h278l12 128h75v-198h-552z" />
    <glyph glyph-name="F" unicode="F" horiz-adv-x="571" 
d="M16 0v64h42c15 0 31 18 31 32v505c0 15 -16 33 -31 33h-42v66h536v-192h-72l-13 121h-262v-253h133l9 85h69v-243h-69l-9 89h-133v-243h90v-64h-279z" />
    <glyph glyph-name="G" unicode="G" horiz-adv-x="672" 
d="M349 -7c-199 0 -323 125 -323 357s140 357 340 357c75 0 113 -17 136 -26c6 0 14 5 16 19h73v-208h-79l-12 89c-32 25 -74 48 -133 48c-124 0 -219 -83 -219 -275c0 -189 73 -285 206 -285c63 0 99 14 130 31v159h-83v66h257v-66h-29c-16 0 -31 -18 -31 -32v-227h-64
c0 11 -8 29 -25 29c-31 -13 -78 -36 -160 -36z" />
    <glyph glyph-name="H" unicode="H" horiz-adv-x="726" 
d="M16 0v64h42c15 0 31 18 31 32v505c0 15 -16 33 -31 33h-42v66h278v-66h-89v-241h315v241h-89v66h279v-66h-42c-16 0 -32 -18 -32 -33v-505c0 -14 16 -32 32 -32h42v-64h-279v64h89v261h-315v-261h89v-64h-278z" />
    <glyph glyph-name="I" unicode="I" horiz-adv-x="310" 
d="M16 0v64h50c16 0 31 18 31 32v505c0 15 -15 33 -31 33h-50v66h278v-66h-50c-16 0 -31 -18 -31 -33v-505c0 -14 15 -32 31 -32h50v-64h-278z" />
    <glyph glyph-name="J" unicode="J" horiz-adv-x="476" 
d="M172 -7c-70 0 -117 16 -158 36v84h64c17 -24 43 -44 92 -44c67 0 95 35 95 100v432c0 15 -14 33 -30 33h-48v66h273v-66h-48c-15 0 -30 -18 -30 -33v-434c0 -117 -66 -174 -210 -174z" />
    <glyph glyph-name="K" unicode="K" horiz-adv-x="686" 
d="M16 0v64h42c15 0 31 18 31 32v505c0 15 -16 33 -31 33h-42v66h270v-66h-81v-309l241 255c31 32 23 54 -12 54h-18v66h244v-66h-29c-17 0 -35 -13 -55 -33l-190 -190l212 -315c11 -17 27 -32 45 -32h27v-64h-182v60l-182 271l-101 -102v-165h81v-64h-270z" />
    <glyph glyph-name="L" unicode="L" horiz-adv-x="567" 
d="M16 0v64h42c15 0 31 18 31 32v505c0 15 -16 33 -31 33h-42v66h290v-66h-101v-564h255l11 147h79v-217h-534z" />
    <glyph glyph-name="M" unicode="M" horiz-adv-x="872" 
d="M16 0v64h41c16 0 31 18 31 32v505c0 15 -15 33 -31 33h-41v66h254l165 -523h3l167 523h251v-66h-42c-16 0 -31 -18 -31 -33v-505c0 -14 15 -32 31 -32h42v-64h-267v64h78v559h-7l-199 -623h-81l-198 623h-6v-559h79v-64h-239z" />
    <glyph glyph-name="N" unicode="N" horiz-adv-x="710" 
d="M16 0v64h42c15 0 31 18 31 32v505c0 15 -16 33 -31 33h-42v66h196l321 -511h3v445h-88v66h247v-66h-41c-15 0 -30 -18 -30 -33v-601h-100l-344 544h-4v-480h90v-64h-250z" />
    <glyph glyph-name="O" unicode="O" horiz-adv-x="725" 
d="M363 -7c-182 0 -336 126 -336 357s154 357 336 357c181 0 335 -126 335 -357s-154 -357 -335 -357zM363 69c123 0 214 94 214 279c0 186 -91 280 -214 280c-124 0 -215 -94 -215 -280c0 -185 91 -279 215 -279z" />
    <glyph glyph-name="P" unicode="P" horiz-adv-x="591" 
d="M16 0v64h42c15 0 31 18 31 32v505c0 15 -16 33 -31 33h-42v66h286c164 0 269 -60 269 -212c0 -151 -103 -215 -271 -215h-95v-209h89v-64h-278zM205 344h95c111 0 152 48 152 143c0 93 -44 141 -152 141h-95v-284z" />
    <glyph glyph-name="Q" unicode="Q" horiz-adv-x="725" 
d="M631 -124c-44 71 -125 102 -268 115c-202 18 -336 128 -336 359s154 357 336 357c181 0 335 -126 335 -357c0 -171 -82 -270 -196 -308v-3c127 -17 186 -54 227 -103v-60h-98zM363 69c123 0 214 94 214 279c0 186 -91 280 -214 280c-124 0 -215 -94 -215 -280
c0 -185 92 -279 215 -279z" />
    <glyph glyph-name="R" unicode="R" horiz-adv-x="653" 
d="M16 0v64h42c15 0 31 18 31 32v505c0 15 -16 33 -31 33h-42v66h286c160 0 265 -56 265 -193c0 -100 -62 -146 -157 -164v-3c71 -15 111 -43 141 -156l25 -93c5 -18 19 -27 29 -27h34v-64h-164l-39 189c-19 91 -54 117 -144 117h-87v-242h89v-64h-278zM205 375h95
c108 0 148 40 148 125c0 89 -44 130 -148 130h-95v-255z" />
    <glyph glyph-name="S" unicode="S" horiz-adv-x="521" 
d="M259 -7c-79 0 -119 18 -146 33c-7 0 -13 -11 -15 -26h-76v204h79l10 -85c35 -34 71 -53 146 -53c80 0 133 37 133 114c0 95 -70 106 -172 134c-123 34 -184 85 -184 204c0 126 93 189 222 189c71 0 106 -19 126 -29c7 0 14 12 15 22h73v-185h-77l-10 70
c-25 24 -59 48 -127 48c-73 0 -123 -28 -123 -104c0 -82 64 -96 160 -122c134 -36 202 -79 202 -208c0 -134 -82 -206 -236 -206z" />
    <glyph glyph-name="T" unicode="T" horiz-adv-x="634" 
d="M180 0v64h48c16 0 31 18 31 32v535h-150l-10 -148h-75v217h586v-217h-75l-10 148h-150v-535c0 -14 15 -32 31 -32h48v-64h-274z" />
    <glyph glyph-name="U" unicode="U" horiz-adv-x="715" 
d="M361 -7c-171 0 -273 83 -273 261v347c0 15 -15 33 -32 33h-40v66h275v-66h-88v-386c0 -140 69 -175 170 -175c100 0 169 34 169 175v386h-88v66h245v-66h-40c-15 0 -31 -18 -31 -33v-347c0 -178 -91 -261 -267 -261z" />
    <glyph glyph-name="V" unicode="V" horiz-adv-x="716" 
d="M292 0l-213 601c-6 17 -23 33 -40 33h-24v66h267v-66h-88l176 -519h2l160 454c15 42 5 65 -33 65h-43v66h245v-66h-22c-20 0 -37 -15 -44 -35l-218 -599h-125z" />
    <glyph glyph-name="W" unicode="W" horiz-adv-x="976" 
d="M225 0l-152 601c-6 18 -22 33 -40 33h-18v66h254l5 -66h-89l117 -484h3l146 550h94l147 -550h2l104 418c14 43 3 66 -36 66h-39v66h238v-66h-17c-19 0 -36 -15 -43 -36l-157 -598h-125l-132 498h-2l-135 -498h-125z" />
    <glyph glyph-name="X" unicode="X" horiz-adv-x="665" 
d="M16 0v64h28c14 0 33 10 42 23l176 272l-165 244c-14 21 -30 31 -45 31h-36v66h266v-66h-70l146 -218l99 164c22 37 7 54 -19 54h-28v66h239v-66h-39c-13 0 -32 -13 -40 -26l-162 -258l172 -255c14 -21 34 -31 48 -31h21v-64h-263v64h79l-154 232l-114 -183
c-18 -28 -6 -49 20 -49h37v-64h-238z" />
    <glyph glyph-name="Y" unicode="Y" horiz-adv-x="659" 
d="M196 0v64h48c16 0 31 18 31 32v194l-196 314c-11 17 -26 30 -43 30h-21v66h260v-66h-82l157 -258h2l116 192c25 42 8 66 -32 66h-32v66h240v-66h-19c-18 0 -33 -13 -45 -32l-189 -308v-198c0 -14 15 -32 31 -32h48v-64h-274z" />
    <glyph glyph-name="Z" unicode="Z" horiz-adv-x="553" 
d="M16 0v79l398 547v3h-286l-13 -114h-72v185h494v-81l-398 -547v-2h306l12 126h75v-196h-516z" />
    <glyph glyph-name="bracketleft" unicode="[" horiz-adv-x="251" 
d="M31 -49v790h203v-67h-106v-658h106v-65h-203z" />
    <glyph glyph-name="backslash" unicode="\" horiz-adv-x="328" 
d="M84 741l242 -790h-79l-242 790h79z" />
    <glyph glyph-name="bracketright" unicode="]" horiz-adv-x="251" 
d="M220 741v-790h-204v65h107v658h-107v67h204z" />
    <glyph glyph-name="asciicircum" unicode="^" horiz-adv-x="373" 
d="M25 489v27l120 184h82l121 -184v-27h-70l-90 124h-3l-91 -124h-69z" />
    <glyph glyph-name="underscore" unicode="_" horiz-adv-x="355" 
d="M-2 -162v65h359v-65h-359z" />
    <glyph glyph-name="quoteleft" unicode="&#x2018;" horiz-adv-x="165" 
d="M148 703v-49c-34 -5 -53 -20 -53 -39c0 -16 13 -17 26 -26c15 -10 23 -23 23 -47c0 -29 -26 -52 -59 -52c-35 0 -66 24 -66 75c0 85 45 129 129 138z" />
    <glyph glyph-name="a" unicode="a" horiz-adv-x="526" 
d="M188 -6c-100 0 -170 52 -170 156c0 108 86 159 207 159c47 0 83 -5 120 -14v69c0 67 -39 91 -106 91c-69 0 -108 -24 -136 -49h-50v83c45 22 109 41 205 41c123 0 195 -39 195 -155v-279c0 -20 13 -32 32 -32h27v-54c-14 -9 -39 -16 -69 -16c-57 0 -87 23 -95 71
c-39 -48 -90 -71 -160 -71zM222 63c55 0 91 24 123 58v114c-30 6 -63 10 -98 10c-76 0 -122 -27 -122 -92c0 -64 36 -90 97 -90z" />
    <glyph glyph-name="b" unicode="b" horiz-adv-x="565" 
d="M313 -6c-84 0 -129 25 -164 61c-9 -33 -29 -55 -41 -55h-58v606c0 12 -14 28 -27 28h-42v66h157c13 0 20 -9 20 -27v-228c41 45 97 85 183 85c99 0 201 -62 201 -261c0 -205 -118 -275 -229 -275zM283 59c71 0 147 39 147 201c0 154 -65 191 -138 191
c-51 0 -98 -28 -134 -57v-286c30 -30 67 -49 125 -49z" />
    <glyph glyph-name="c" unicode="c" horiz-adv-x="506" 
d="M285 -6c-175 0 -264 101 -264 267c0 168 107 269 270 269c86 0 140 -13 174 -28v-110h-69c-9 52 -46 68 -107 68c-96 0 -155 -66 -155 -200c0 -133 50 -196 153 -196c73 0 107 31 128 60h55v-78c-35 -25 -95 -52 -185 -52z" />
    <glyph glyph-name="d" unicode="d" horiz-adv-x="601" 
d="M241 -6c-106 0 -218 61 -218 262c0 200 124 274 229 274c78 0 127 -28 161 -62v166h-76v66h164c14 0 20 -10 20 -27v-581c0 -13 14 -28 27 -28h39v-64h-151c-12 0 -20 15 -21 72c-37 -43 -94 -78 -174 -78zM272 61c63 0 106 32 141 70v279c-33 26 -72 44 -126 44
c-77 0 -152 -42 -152 -195c0 -160 70 -198 137 -198z" />
    <glyph glyph-name="e" unicode="e" horiz-adv-x="528" 
d="M287 -6c-176 0 -266 102 -266 266c0 166 103 270 255 270c147 0 232 -77 232 -252c0 -15 -1 -29 -1 -33h-373c4 -122 57 -182 161 -182c74 0 108 26 135 59h62v-74c-41 -27 -100 -54 -205 -54zM136 310h263c-4 111 -47 153 -123 153c-79 0 -130 -50 -140 -153z" />
    <glyph glyph-name="f" unicode="f" horiz-adv-x="315" 
d="M14 0v64h37c14 0 28 14 28 27v365h-69v68h69v45c0 98 60 139 153 139c40 0 65 -6 82 -12v-62h-50c-46 0 -77 -10 -77 -68v-42h110v-68h-110v-365c0 -14 14 -27 27 -27h51v-64h-251z" />
    <glyph glyph-name="g" unicode="g" horiz-adv-x="506" 
d="M224 -172c-160 0 -221 52 -221 124c0 61 43 94 91 118c-23 12 -41 36 -41 71c0 42 22 72 53 97c-38 28 -61 71 -61 124c0 99 76 168 200 168c23 0 45 -2 65 -6h180v-68h-45c-10 0 -22 -8 -22 -18c15 -21 23 -47 23 -76c0 -97 -77 -162 -201 -162c-39 0 -70 6 -97 17
c-9 -13 -14 -28 -14 -44c0 -26 17 -37 49 -37h147c104 0 159 -41 159 -130c0 -103 -72 -178 -265 -178zM229 -103c110 0 158 37 158 86c0 41 -23 59 -81 59h-170c-22 -18 -35 -38 -35 -68c0 -47 28 -77 128 -77zM245 263c65 0 101 38 101 99c0 62 -36 101 -101 101
c-64 0 -100 -39 -100 -101c0 -61 36 -99 100 -99z" />
    <glyph glyph-name="h" unicode="h" horiz-adv-x="604" 
d="M188 395v-331h73v-64h-247v64h39c13 0 27 14 27 27v515c0 12 -14 28 -27 28h-42v66h157c13 0 20 -9 20 -27v-227c52 48 125 84 206 84c75 0 137 -27 137 -130v-309c0 -14 14 -27 26 -27h33v-64h-239v64h72v300c0 65 -29 81 -82 81c-56 0 -108 -23 -153 -50z" />
    <glyph glyph-name="i" unicode="i" horiz-adv-x="268" 
d="M14 0v64h39c13 0 27 14 27 27v337c0 12 -13 28 -26 28h-44v68h158c14 0 20 -12 20 -46v-387c0 -14 14 -27 27 -27h39v-64h-240zM131 579c-35 0 -62 27 -62 61s27 61 62 61c34 0 62 -27 62 -61s-28 -61 -62 -61z" />
    <glyph glyph-name="j" unicode="j" horiz-adv-x="255" 
d="M49 -168c-34 0 -56 4 -76 11v55h36c53 0 71 23 71 72v458c0 12 -13 28 -26 28h-44v68h158c14 0 20 -12 20 -46v-513c0 -97 -50 -133 -139 -133zM131 579c-35 0 -62 27 -62 61s27 61 62 61c34 0 62 -27 62 -61s-28 -61 -62 -61z" />
    <glyph glyph-name="k" unicode="k" horiz-adv-x="554" 
d="M14 0v64h39c13 0 27 14 27 27v515c0 12 -14 28 -27 28h-42v66h157c13 0 20 -9 20 -27v-423l166 169c15 16 9 37 -10 37h-24v68h217v-68h-26c-13 0 -32 -9 -44 -21l-130 -130l146 -210c14 -20 30 -31 44 -31h15v-64h-120l-158 233l-76 -75v-94h66v-64h-240z" />
    <glyph glyph-name="l" unicode="l" horiz-adv-x="268" 
d="M14 0v64h38c14 0 28 14 28 27v515c0 12 -14 28 -28 28h-41v66h157c14 0 20 -9 20 -27v-582c0 -14 14 -27 27 -27h39v-64h-240z" />
    <glyph glyph-name="m" unicode="m" horiz-adv-x="910" 
d="M14 0v64h39c13 0 27 14 27 27v337c0 12 -14 28 -27 28h-43v68h153c15 0 25 -15 25 -64v-15c49 44 113 85 193 85c59 0 112 -19 127 -88c53 47 117 88 198 88c68 0 131 -27 131 -130v-309c0 -14 14 -27 27 -27h33v-64h-239v64h71v302c0 64 -26 79 -74 79
c-50 0 -99 -23 -142 -49v-332h66v-64h-241v64h66v302c0 64 -26 79 -73 79c-50 0 -99 -21 -143 -49v-332h71v-64h-245z" />
    <glyph glyph-name="n" unicode="n" horiz-adv-x="604" 
d="M14 0v64h39c13 0 27 14 27 27v337c0 12 -14 28 -27 28h-43v68h153c15 0 26 -14 25 -64v-14c52 48 125 84 206 84c75 0 137 -27 137 -130v-309c0 -14 14 -27 26 -27h33v-64h-239v64h72v300c0 65 -29 81 -82 81c-56 0 -108 -23 -153 -50v-331h73v-64h-247z" />
    <glyph glyph-name="o" unicode="o" horiz-adv-x="576" 
d="M288 -6c-150 0 -267 100 -267 266c0 168 117 270 267 270c151 0 267 -102 267 -270c0 -166 -116 -266 -267 -266zM288 64c91 0 155 67 155 195c0 130 -64 198 -155 198s-155 -68 -155 -198c0 -128 64 -195 155 -195z" />
    <glyph glyph-name="p" unicode="p" horiz-adv-x="588" 
d="M14 -162v60h39c13 0 27 14 27 27v503c0 12 -14 28 -27 28h-43v68h153c14 0 24 -10 24 -61v-13c40 41 96 80 177 80c99 0 201 -67 201 -259c0 -197 -117 -265 -228 -265c-72 0 -116 19 -149 48v-156h78v-60h-252zM308 70c69 0 145 34 145 192c0 152 -67 189 -137 189
c-49 0 -93 -27 -128 -56v-278c30 -28 65 -47 120 -47z" />
    <glyph glyph-name="q" unicode="q" horiz-adv-x="567" 
d="M328 -162v60h78v176c-34 -36 -91 -68 -166 -68c-105 0 -217 55 -217 253s121 271 226 271c76 0 126 -27 161 -65c7 40 28 59 42 59h63v-599c0 -13 14 -27 27 -27h41v-60h-255zM272 73c58 0 101 26 134 59v280c-31 22 -71 42 -119 42c-77 0 -152 -42 -152 -193
c0 -157 70 -188 137 -188z" />
    <glyph glyph-name="r" unicode="r" horiz-adv-x="391" 
d="M14 0v64h39c13 0 27 14 27 27v337c0 12 -14 28 -27 28h-43v68h153c15 0 25 -13 25 -70v-17c37 47 83 91 156 91c12 0 22 -2 30 -4v-89h-21c-80 0 -126 -19 -165 -53v-318h83v-64h-257z" />
    <glyph glyph-name="s" unicode="s" horiz-adv-x="439" 
d="M203 -6c-94 0 -144 15 -182 30v109h65c12 -49 46 -69 116 -69c72 0 116 26 116 80c0 49 -36 63 -125 77c-108 16 -164 50 -164 154c0 98 75 155 200 155c83 0 134 -12 172 -26v-104h-63c-11 39 -40 58 -113 58c-64 0 -102 -26 -102 -69c0 -46 28 -62 119 -76
c120 -18 176 -50 176 -154c0 -100 -70 -165 -215 -165z" />
    <glyph glyph-name="t" unicode="t" horiz-adv-x="326" 
d="M224 -7c-93 0 -147 33 -147 131v332h-67v68h67v141h108v-141h119v-68h-119v-320c0 -59 20 -72 73 -72h53v-58c-19 -7 -50 -13 -87 -13z" />
    <glyph glyph-name="u" unicode="u" horiz-adv-x="607" 
d="M216 -7c-73 0 -140 29 -140 130v306c0 13 -14 27 -27 27h-39v68h174v-367c0 -68 35 -85 84 -85c54 0 107 24 149 52v332h-75v68h183v-432c0 -13 14 -28 28 -28h40v-64h-151c-14 0 -24 12 -24 61v13c-54 -48 -117 -81 -202 -81z" />
    <glyph glyph-name="v" unicode="v" horiz-adv-x="585" 
d="M237 0l-170 424c-8 19 -21 32 -37 32h-20v68h231v-68h-74l130 -351h2l111 293c12 33 10 58 -27 58h-26v68h210v-68h-18c-18 0 -32 -12 -41 -33l-172 -423h-99z" />
    <glyph glyph-name="w" unicode="w" horiz-adv-x="821" 
d="M189 0l-121 424c-6 19 -21 32 -37 32h-21v68h218v-68h-60l88 -323h2l113 391h93l113 -391h2l73 265c11 39 3 58 -32 58h-25v68h208v-68h-19c-18 0 -34 -10 -41 -33l-123 -423h-102l-112 383h-2l-113 -383h-102z" />
    <glyph glyph-name="x" unicode="x" horiz-adv-x="553" 
d="M16 0v64h20c14 0 33 9 42 21l133 176l-129 164c-15 19 -29 31 -44 31h-26v68h239v-68h-61l108 -144l77 108c13 19 9 36 -14 36h-25v68h195v-68h-19c-13 0 -30 -10 -39 -22l-127 -168l134 -171c15 -20 33 -31 48 -31h11v-64h-232v64h66l-115 153l-76 -109
c-17 -25 -12 -44 13 -44h20v-64h-199z" />
    <glyph glyph-name="y" unicode="y" horiz-adv-x="588" 
d="M98 -162v60c58 18 106 55 145 115l-177 411c-8 19 -21 32 -37 32h-19v68h232v-68h-77l134 -322l108 264c14 34 12 58 -25 58h-26v68h214v-68h-23c-16 0 -30 -13 -39 -33l-166 -383c-48 -111 -102 -172 -153 -202h-91z" />
    <glyph glyph-name="z" unicode="z" horiz-adv-x="482" 
d="M16 0v73l323 380h-227l-11 -93h-65v164h428v-75l-324 -379h236l10 93h68v-163h-438z" />
    <glyph glyph-name="braceleft" unicode="{" horiz-adv-x="321" 
d="M235 -49c-89 0 -135 40 -135 122v190c0 31 -17 56 -59 56h-25v67h25c42 0 59 24 59 56v177c0 80 46 122 135 122h70v-67h-63c-27 0 -45 -20 -45 -47v-178c0 -52 -22 -81 -77 -95v-2c55 -14 77 -44 77 -96v-192c0 -28 18 -48 45 -48h63v-65h-70z" />
    <glyph glyph-name="bar" unicode="|" horiz-adv-x="155" 
d="M39 -49v790h77v-790h-77z" />
    <glyph glyph-name="braceright" unicode="}" horiz-adv-x="321" 
d="M86 -49h-70v65h63c27 0 45 20 45 48v185c0 52 22 82 77 96v3c-55 14 -77 43 -77 95v184c0 27 -18 47 -45 47h-63v67h70c89 0 135 -42 135 -122v-183c0 -32 18 -56 59 -56h25v-67h-25c-41 0 -59 -25 -59 -56v-184c0 -82 -46 -122 -135 -122z" />
    <glyph glyph-name="asciitilde" unicode="~" horiz-adv-x="355" 
d="M16 227v60c16 30 46 60 95 60c46 0 99 -28 129 -28c24 0 35 13 42 34h56v-60c-16 -31 -45 -62 -94 -62c-46 0 -99 32 -130 32c-23 0 -34 -14 -41 -36h-57z" />
    <glyph glyph-name="exclamdown" unicode="&#xa1;" horiz-adv-x="184" 
d="M123 446l27 -454v-66h-117v66l27 454h63zM92 631c36 0 65 -28 65 -63s-29 -64 -65 -64s-65 29 -65 64s29 63 65 63z" />
    <glyph glyph-name="cent" unicode="&#xa2;" horiz-adv-x="506" 
d="M253 587h64v-57c70 -2 116 -14 148 -28v-111h-65c-9 43 -35 61 -83 66v-391c53 8 83 36 102 61h51v-79c-31 -23 -81 -48 -153 -52v-98h-64v97c-153 11 -232 110 -232 266c0 154 91 253 232 267v59zM132 260c0 -117 40 -180 121 -194v389c-76 -15 -121 -80 -121 -195z" />
    <glyph glyph-name="sterling" unicode="&#xa3;" horiz-adv-x="506" 
d="M20 313v72h53c-11 45 -19 89 -19 126c0 128 96 196 229 196c81 0 134 -14 192 -38v-133h-67c-13 70 -48 93 -122 93c-75 0 -113 -40 -113 -115c0 -34 6 -79 14 -129h176v-72h-166c6 -41 11 -81 11 -119c0 -31 -6 -58 -16 -81c61 -18 137 -25 209 -25l9 92h76v-180h-46
c-125 0 -221 14 -293 46c-23 -21 -50 -36 -78 -46h-55v64c58 12 96 49 96 120c0 40 -9 84 -19 129h-71z" />
    <glyph glyph-name="fraction" unicode="&#x2044;" horiz-adv-x="201" 
d="M-183 -34l493 763h74l-493 -763h-74z" />
    <glyph glyph-name="yen" unicode="&#xa5;" horiz-adv-x="592" 
d="M59 310v63h148l-136 231c-11 18 -26 30 -44 30h-13v66h241v-66h-76l132 -239h2l97 173c23 44 8 66 -32 66h-27v66h227v-66h-19c-18 0 -34 -13 -44 -32l-135 -229h152v-63h-178v-60h178v-63h-178v-91c0 -14 14 -32 31 -32h48v-64h-274v64h48c16 0 31 18 31 32v91h-179v63
h179v60h-179z" />
    <glyph glyph-name="florin" unicode="&#x192;" horiz-adv-x="361" 
d="M32 363v74h72l16 133c11 94 64 138 156 138c32 0 60 -7 77 -14v-60h-46c-43 0 -70 -17 -76 -68l-16 -129h100v-74h-109l-37 -316c-9 -69 -44 -119 -109 -142h-53v63c26 13 46 30 53 86l36 309h-64z" />
    <glyph glyph-name="section" unicode="&#xa7;" horiz-adv-x="522" 
d="M236 -132c-91 0 -143 16 -182 30v118h69c10 -59 42 -78 112 -78c75 0 109 30 109 83c0 56 -39 65 -149 96c-111 32 -172 78 -172 168c0 74 45 115 116 135c-44 27 -65 65 -65 124c0 99 74 163 199 163c88 0 132 -13 170 -27v-109h-69c-9 51 -40 64 -102 64
c-68 0 -101 -30 -101 -77c0 -49 30 -69 133 -94c123 -30 195 -72 195 -174c0 -70 -45 -115 -115 -137c43 -27 66 -61 66 -118c0 -101 -68 -167 -214 -167zM268 372l-56 15c-65 -12 -92 -39 -92 -83c0 -46 28 -70 119 -96l72 -22c52 11 87 39 87 88c0 52 -50 78 -130 98z" />
    <glyph glyph-name="quotesingle" unicode="'" horiz-adv-x="162" 
d="M52 496l-24 143v61h106v-61l-25 -143h-57z" />
    <glyph glyph-name="quotedblleft" unicode="&#x201c;" horiz-adv-x="319" 
d="M147 703v-49c-34 -5 -52 -20 -52 -39c0 -16 13 -17 26 -26c15 -10 23 -23 23 -47c0 -29 -26 -52 -59 -52c-35 0 -66 24 -66 75c0 85 44 129 128 138zM302 703v-49c-35 -5 -54 -20 -54 -39c0 -16 13 -17 26 -26c15 -10 23 -23 23 -47c0 -29 -26 -52 -59 -52
c-35 0 -66 24 -66 75c0 85 45 129 130 138z" />
    <glyph glyph-name="guillemotleft" unicode="&#xab;" horiz-adv-x="465" 
d="M181 43l-148 187v59l148 188h60v-40l-113 -175v-2l113 -176v-41h-60zM374 43l-148 187v59l148 188h60v-40l-113 -175v-2l113 -176v-41h-60z" />
    <glyph glyph-name="guilsinglleft" unicode="&#x2039;" horiz-adv-x="272" 
d="M181 43l-148 187v59l148 188h60v-40l-113 -175v-2l113 -176v-41h-60z" />
    <glyph glyph-name="guilsinglright" unicode="&#x203a;" horiz-adv-x="272" 
d="M31 43v39l112 175v3l-112 176v41h61l147 -187v-59l-147 -188h-61z" />
    <glyph glyph-name="endash" unicode="&#x2013;" horiz-adv-x="407" 
d="M27 248v74h352v-74h-352z" />
    <glyph glyph-name="dagger" unicode="&#x2020;" horiz-adv-x="437" 
d="M195 -49l-37 292v94l42 120l-143 -39l-37 22v65l37 22l144 -39l-37 111v58l18 43h72l18 -43v-58l-36 -111l144 39l37 -22v-65l-37 -22l-144 39l43 -119v-93l-38 -294h-46z" />
    <glyph glyph-name="daggerdbl" unicode="&#x2021;" horiz-adv-x="437" 
d="M182 -49l-18 43v55l37 112l-144 -40l-37 22v65l37 22l142 -39l-37 90v89l37 89l-142 -38l-37 22v65l37 22l144 -39l-37 111v55l18 43h72l18 -43v-55l-36 -111l144 39l37 -22v-65l-37 -22l-143 39l37 -90v-89l-37 -90l143 39l37 -22v-65l-37 -22l-144 40l36 -112v-55
l-18 -43h-72z" />
    <glyph glyph-name="periodcentered" unicode="&#xb7;" horiz-adv-x="182" 
d="M91 239c-37 0 -65 28 -65 63c0 36 28 64 65 64c36 0 65 -28 65 -64c0 -35 -29 -63 -65 -63z" />
    <glyph glyph-name="paragraph" unicode="&#xb6;" horiz-adv-x="554" 
d="M257 -91v409c-138 4 -236 49 -236 191c0 150 107 191 248 191h269v-66h-42c-16 0 -31 -18 -31 -33v-692h-68v720h-72v-720h-68z" />
    <glyph glyph-name="bullet" unicode="&#x2022;" horiz-adv-x="314" 
d="M157 162c-71 0 -129 47 -129 126s58 128 129 128c73 0 129 -49 129 -128s-56 -126 -129 -126z" />
    <glyph glyph-name="quotesinglbase" unicode="&#x201a;" horiz-adv-x="165" 
d="M17 -88v48c34 5 52 20 52 39c0 16 -13 17 -25 26c-15 10 -23 23 -23 47c0 30 25 52 58 52c35 0 67 -23 67 -75c0 -85 -44 -128 -129 -137z" />
    <glyph glyph-name="quotedblbase" unicode="&#x201e;" horiz-adv-x="319" 
d="M171 -88v48c34 5 52 20 52 39c0 16 -12 17 -25 26c-15 10 -23 23 -23 47c0 30 25 52 58 52c35 0 67 -23 67 -75c0 -85 -44 -128 -129 -137zM17 -88v48c34 5 52 20 52 39c0 16 -13 17 -25 26c-15 10 -23 23 -23 47c0 30 25 52 58 52c35 0 67 -23 67 -75
c0 -85 -44 -128 -129 -137z" />
    <glyph glyph-name="quotedblright" unicode="&#x201d;" horiz-adv-x="319" 
d="M171 493v49c34 5 52 20 52 39c0 15 -12 17 -25 26c-15 10 -23 23 -23 46c0 30 25 53 58 53c35 0 67 -24 67 -75c0 -85 -44 -129 -129 -138zM17 493v49c34 5 52 20 52 39c0 15 -13 17 -25 26c-15 10 -23 23 -23 46c0 30 25 53 58 53c35 0 67 -24 67 -75
c0 -85 -44 -129 -129 -138z" />
    <glyph glyph-name="guillemotright" unicode="&#xbb;" horiz-adv-x="465" 
d="M31 43v39l112 175v3l-112 176v41h61l147 -187v-59l-147 -188h-61zM224 43v39l113 175v3l-113 176v41h61l148 -187v-59l-148 -188h-61z" />
    <glyph glyph-name="ellipsis" unicode="&#x2026;" horiz-adv-x="537" 
d="M446 -5c-36 0 -64 28 -64 63s28 64 64 64c37 0 65 -29 65 -64s-28 -63 -65 -63zM269 -5c-37 0 -65 28 -65 63s28 64 65 64c36 0 65 -29 65 -64s-29 -63 -65 -63zM91 -5c-37 0 -65 28 -65 63s28 64 65 64c36 0 65 -29 65 -64s-29 -63 -65 -63z" />
    <glyph glyph-name="perthousand" unicode="&#x2030;" horiz-adv-x="1124" 
d="M186 405c44 0 71 38 71 119s-27 120 -71 120c-45 0 -72 -39 -72 -120s27 -119 72 -119zM186 343c-88 0 -165 60 -165 182s77 182 165 182c87 0 164 -60 164 -182s-77 -182 -164 -182zM95 -34l493 763h80l-493 -763h-80zM577 55c44 0 71 38 71 119s-27 120 -71 120
c-45 0 -72 -39 -72 -120s27 -119 72 -119zM577 -7c-88 0 -165 60 -165 182s77 182 165 182c87 0 164 -60 164 -182s-77 -182 -164 -182zM939 55c44 0 71 38 71 119s-27 120 -71 120c-45 0 -72 -39 -72 -120s27 -119 72 -119zM939 -7c-88 0 -165 60 -165 182s77 182 165 182
c87 0 164 -60 164 -182s-77 -182 -164 -182z" />
    <glyph glyph-name="questiondown" unicode="&#xbf;" horiz-adv-x="435" 
d="M305 447c12 -83 -2 -132 -70 -202c-35 -36 -93 -86 -93 -154c0 -60 31 -94 92 -94c59 0 97 21 111 76h66v-118c-51 -21 -99 -35 -181 -35c-127 0 -208 57 -208 173c0 86 50 130 112 181c70 58 107 95 100 173h71zM263 632c36 0 65 -28 65 -63s-29 -64 -65 -64
s-65 29 -65 64s29 63 65 63z" />
    <glyph glyph-name="grave" unicode="`" horiz-adv-x="400" 
d="M177 567l-94 94v39h108l46 -133h-60z" />
    <glyph glyph-name="acute" unicode="&#xb4;" horiz-adv-x="400" 
d="M163 567l46 133h108v-39l-94 -94h-60z" />
    <glyph glyph-name="circumflex" unicode="&#x2c6;" horiz-adv-x="400" 
d="M78 567v29l75 104h95l73 -104v-29h-44l-79 69l-78 -69h-42z" />
    <glyph glyph-name="tilde" unicode="&#x2dc;" horiz-adv-x="400" 
d="M44 573v55c15 30 41 58 90 58c46 0 98 -32 128 -32c23 0 36 14 42 36h52v-56c-15 -31 -41 -58 -90 -58c-46 0 -98 35 -128 35c-23 0 -36 -15 -42 -38h-52z" />
    <glyph glyph-name="macron" unicode="&#xaf;" horiz-adv-x="400" 
d="M326 667v-72h-252v72h252z" />
    <glyph glyph-name="breve" unicode="&#x2d8;" horiz-adv-x="400" 
d="M200 568c-73 0 -112 44 -127 88v38h64c6 -34 28 -54 63 -54c36 0 57 20 63 54h64v-38c-15 -44 -54 -88 -127 -88z" />
    <glyph glyph-name="dotaccent" unicode="&#x2d9;" horiz-adv-x="400" 
d="M200 579c-35 0 -62 27 -62 61s27 61 62 61s62 -27 62 -61s-27 -61 -62 -61z" />
    <glyph glyph-name="dieresis" unicode="&#xa8;" horiz-adv-x="400" 
d="M114 579c-33 0 -59 26 -59 58s26 58 59 58s59 -26 59 -58s-26 -58 -59 -58zM286 579c-33 0 -59 26 -59 58s26 58 59 58s59 -26 59 -58s-26 -58 -59 -58z" />
    <glyph glyph-name="ring" unicode="&#x2da;" horiz-adv-x="400" 
d="M200 569c-53 0 -99 37 -99 96s46 96 99 96s99 -37 99 -96s-46 -96 -99 -96zM200 613c29 0 51 20 51 52c0 33 -22 53 -51 53s-50 -20 -50 -53c0 -32 21 -52 50 -52z" />
    <glyph glyph-name="cedilla" unicode="&#xb8;" horiz-adv-x="400" 
d="M199 -175c-35 0 -57 8 -78 17v48h29c7 -9 21 -16 39 -16c24 0 36 10 36 27c0 19 -14 28 -46 28h-18v71h51v-31c57 -2 84 -26 84 -71c0 -46 -37 -73 -97 -73z" />
    <glyph glyph-name="hungarumlaut" unicode="&#x2dd;" horiz-adv-x="400" 
d="M92 567l33 133h91v-39l-64 -94h-60zM237 567l33 133h91v-39l-64 -94h-60z" />
    <glyph glyph-name="ogonek" unicode="&#x2db;" horiz-adv-x="400" 
d="M228 -165c-57 0 -92 28 -92 72c0 46 39 77 70 93h64c-27 -22 -48 -42 -48 -70c0 -20 10 -32 39 -32h31v-48c-18 -9 -36 -15 -64 -15z" />
    <glyph glyph-name="caron" unicode="&#x2c7;" horiz-adv-x="400" 
d="M322 700v-30l-76 -103h-94l-73 103v30h44l78 -69l79 69h42z" />
    <glyph glyph-name="emdash" unicode="&#x2014;" horiz-adv-x="664" 
d="M27 248v74h609v-74h-609z" />
    <glyph glyph-name="AE" unicode="&#xc6;" horiz-adv-x="975" 
d="M944 700v-186h-73l-12 115h-260v-237h128l8 83h70v-235h-70l-8 83h-128v-253h269l12 128h75v-198h-544v64h73v157h-248l-43 -77c-28 -49 -14 -80 29 -80h46v-64h-257v64h23c21 0 35 13 46 34l277 501c10 18 0 35 -19 35h-53v66h659zM484 628h-21l-190 -339h211v339z" />
    <glyph glyph-name="ordfeminine" unicode="&#xaa;" horiz-adv-x="448" 
d="M157 254c-83 0 -142 42 -142 130c0 92 71 135 178 135c35 0 63 -2 94 -9v54c0 53 -30 72 -85 72c-57 0 -89 -18 -112 -37h-46v72c40 19 95 36 178 36c106 0 167 -34 167 -133v-229c0 -17 11 -28 27 -28h22v-50c-14 -7 -36 -14 -64 -14c-49 0 -75 23 -83 59
c-34 -36 -77 -58 -134 -58zM189 316c44 0 74 20 98 48v92c-23 5 -49 8 -77 8c-60 0 -96 -23 -96 -75c0 -54 29 -73 75 -73z" />
    <glyph glyph-name="Lslash" unicode="&#x141;" horiz-adv-x="567" 
d="M14 221v71l75 31v278c0 15 -16 33 -31 33h-42v66h290v-66h-101v-263l200 83v-71l-200 -83v-230h255l11 147h79v-217h-534v64h42c15 0 31 18 31 32v156z" />
    <glyph glyph-name="Oslash" unicode="&#xd8;" horiz-adv-x="725" 
d="M45 -29l83 113c-62 60 -101 150 -101 266c0 231 154 357 336 357c67 0 131 -18 184 -52l49 66h81l-79 -106c61 -61 100 -150 100 -265c0 -231 -154 -357 -335 -357c-68 0 -131 17 -185 51l-53 -73h-80zM363 69c123 0 214 94 214 279c0 76 -15 137 -41 182l-306 -416
c35 -30 80 -45 133 -45zM148 348c0 -77 14 -138 40 -183l306 417c-35 31 -80 46 -131 46c-124 0 -215 -94 -215 -280z" />
    <glyph glyph-name="OE" unicode="&#x152;" horiz-adv-x="957" 
d="M391 0c-233 0 -364 104 -364 348c0 240 132 352 367 352h531v-186h-73l-12 115h-260v-237h128l8 83h70v-235h-70l-8 83h-128v-253h269l12 128h75v-198h-545zM465 629h-71c-168 0 -247 -81 -247 -281s79 -278 247 -278h71v559z" />
    <glyph glyph-name="ordmasculine" unicode="&#xba;" horiz-adv-x="490" 
d="M246 253c-129 0 -228 84 -228 225s99 229 228 229c128 0 226 -88 226 -229s-98 -225 -226 -225zM246 317c73 0 123 55 123 160c0 107 -50 162 -123 162c-74 0 -125 -55 -125 -162c0 -105 51 -160 125 -160z" />
    <glyph glyph-name="ae" unicode="&#xe6;" horiz-adv-x="843" 
d="M188 -6c-100 0 -170 52 -170 155c0 108 90 161 226 161c24 0 85 -3 102 -6v60c0 67 -40 91 -105 91c-71 0 -110 -24 -138 -49h-50v83c45 22 109 41 205 41c83 0 141 -18 164 -79c40 51 100 79 175 79c144 0 226 -76 226 -251c0 -13 -1 -29 -2 -39h-365
c5 -112 55 -177 158 -177c71 0 106 28 131 59h62v-74c-40 -27 -99 -54 -202 -54c-102 0 -174 39 -213 96c-64 -77 -125 -96 -204 -96zM222 63c60 0 106 32 141 82c-10 29 -16 59 -17 95c-17 3 -75 5 -96 5c-77 0 -125 -29 -125 -92c0 -66 37 -90 97 -90zM457 306h257
c-2 115 -41 157 -117 157c-79 0 -131 -53 -140 -157z" />
    <glyph glyph-name="dotlessi" unicode="&#x131;" horiz-adv-x="268" 
d="M14 0v64h39c13 0 27 14 27 27v337c0 12 -13 28 -26 28h-44v68h158c14 0 20 -12 20 -46v-387c0 -14 14 -27 27 -27h39v-64h-240z" />
    <glyph glyph-name="lslash" unicode="&#x142;" horiz-adv-x="268" 
d="M14 267v77l66 44v218c0 12 -14 28 -28 28h-41v66h157c14 0 20 -9 20 -27v-212l66 44v-77l-66 -44v-293c0 -14 14 -27 27 -27h39v-64h-240v64h38c14 0 28 14 28 27v220z" />
    <glyph glyph-name="oslash" unicode="&#xf8;" horiz-adv-x="576" 
d="M288 -6c-52 0 -100 12 -140 34l-42 -55h-71l67 88c-50 46 -81 114 -81 199c0 168 117 270 267 270c52 0 100 -12 141 -35l38 50h71l-64 -84c50 -46 81 -115 81 -201c0 -166 -116 -266 -267 -266zM288 64c91 0 156 67 156 195c0 52 -10 94 -27 126l-222 -294
c24 -18 56 -27 93 -27zM132 259c0 -52 9 -93 25 -124l222 294c-24 19 -55 29 -91 29c-91 0 -156 -69 -156 -199z" />
    <glyph glyph-name="oe" unicode="&#x153;" horiz-adv-x="938" 
d="M283 -6c-150 0 -262 100 -262 266c0 168 112 270 262 270c94 0 168 -42 208 -114c37 72 104 114 198 114c148 0 229 -77 229 -252c0 -15 0 -23 -1 -33h-368c4 -122 56 -182 160 -182c72 0 106 27 131 59h62v-74c-40 -27 -96 -54 -201 -54c-108 0 -176 40 -212 110
c-40 -70 -113 -110 -206 -110zM284 64c92 0 154 67 154 195c0 130 -62 198 -154 198c-91 0 -151 -68 -151 -198c0 -128 60 -195 151 -195zM689 463c-78 0 -127 -50 -137 -153h257c-3 111 -43 153 -120 153z" />
    <glyph glyph-name="germandbls" unicode="&#xdf;" horiz-adv-x="618" 
d="M414 -6c-62 0 -105 9 -141 23v107h61c6 -44 30 -63 81 -63c50 0 83 23 83 72c0 45 -41 60 -106 85c-74 28 -113 64 -113 121c0 61 39 94 85 133c37 33 60 56 60 95c0 44 -35 68 -97 68c-97 0 -140 -58 -140 -131v-440h47v-64h-220v64h38c13 0 27 14 27 27v365h-69v68h69
c7 100 92 184 246 184c111 0 206 -36 206 -138c0 -55 -39 -94 -89 -130c-49 -35 -67 -50 -67 -75c0 -24 12 -33 79 -59c89 -35 143 -66 143 -156c0 -97 -67 -156 -183 -156z" />
    <glyph glyph-name="onesuperior" unicode="&#xb9;" horiz-adv-x="252" 
d="M15 320v48h52c9 0 18 12 18 20v239l-50 -28h-22v53l98 48h61v-312c0 -8 9 -20 18 -20h48v-48h-223z" />
    <glyph glyph-name="trademark" unicode="&#x2122;" horiz-adv-x="685" 
d="M81 423v35h20c7 0 13 7 13 13v190h-48l-5 -59h-42v98h258v-98h-42l-6 59h-48v-190c0 -6 7 -13 13 -13h21v-35h-134zM296 423v35h19c6 0 13 7 13 13v180c0 5 -7 12 -13 12h-19v37h128l58 -179h1l59 179h127v-37h-20c-5 0 -11 -7 -11 -12v-180c0 -6 6 -13 11 -13h20v-35
h-127v35h30v193h-2l-75 -228h-43l-74 228h-1v-193h29v-35h-110z" />
    <glyph glyph-name="Eth" unicode="&#xd0;" horiz-adv-x="690" 
d="M16 0v64h42c15 0 31 18 31 32v217h-72v67h72v221c0 15 -16 33 -31 33h-42v66h283c233 0 364 -104 364 -348c0 -240 -132 -352 -368 -352h-279zM205 68h90c168 0 250 83 250 283c0 199 -81 278 -250 278h-90v-249h168v-67h-168v-245z" />
    <glyph glyph-name="onehalf" unicode="&#xbd;" horiz-adv-x="733" 
d="M437 0v35c0 68 47 110 101 146c44 29 84 52 84 91c0 36 -21 54 -58 54c-32 0 -60 -10 -69 -46h-46v84c34 13 74 21 124 21c83 0 136 -37 136 -108c0 -68 -57 -100 -108 -129c-47 -27 -82 -50 -88 -86h131l6 43h53v-105h-266zM18 320v48h52c9 0 18 12 18 20v239l-50 -28
h-22v53l98 48h61v-312c0 -8 9 -20 18 -20h48v-48h-223zM70 -34l493 763h74l-493 -763h-74z" />
    <glyph glyph-name="Thorn" unicode="&#xde;" horiz-adv-x="592" 
d="M16 0v64h42c15 0 31 18 31 32v505c0 15 -16 33 -31 33h-42v66h275v-66h-86v-90h108c150 0 259 -44 259 -189c0 -143 -108 -191 -262 -191h-105v-100h91v-64h-280zM205 235h105c97 0 143 35 143 118c0 84 -49 119 -143 119h-105v-237z" />
    <glyph glyph-name="onequarter" unicode="&#xbc;" horiz-adv-x="684" 
d="M489 0v48h30c7 0 18 12 18 20v31h-177v61l179 220h80v-230h47v-51h-47v-31c0 -8 10 -20 19 -20h28v-48h-177zM417 153v-3h121v150h-2zM18 320v48h52c9 0 18 12 18 20v239l-50 -28h-22v53l98 48h61v-312c0 -8 9 -20 18 -20h48v-48h-223zM79 -34l493 763h74l-493 -763h-74z
" />
    <glyph glyph-name="divide" unicode="&#xf7;" horiz-adv-x="496" 
d="M249 117c-37 0 -64 27 -64 62s27 63 64 63c35 0 63 -28 63 -63s-28 -62 -63 -62zM249 449c-37 0 -64 27 -64 62s27 63 64 63c35 0 63 -28 63 -63s-28 -62 -63 -62zM25 305v81h446v-81h-446z" />
    <glyph glyph-name="brokenbar" unicode="&#xa6;" horiz-adv-x="155" 
d="M39 -49v358h77v-358h-77zM39 389v352h77v-352h-77z" />
    <glyph glyph-name="degree" unicode="&#xb0;" horiz-adv-x="339" 
d="M170 436c-76 0 -140 54 -140 135c0 82 64 135 140 135c75 0 139 -53 139 -135c0 -81 -64 -135 -139 -135zM170 489c43 0 77 34 77 82c0 50 -34 83 -77 83c-44 0 -77 -33 -77 -83c0 -48 33 -82 77 -82z" />
    <glyph glyph-name="thorn" unicode="&#xfe;" horiz-adv-x="557" 
d="M-17 -162v60h39c14 0 27 14 27 27v681c0 12 -13 28 -27 28h-43v66h157c14 0 21 -9 21 -27v-222c39 40 94 79 173 79c103 0 204 -67 204 -259c0 -197 -117 -265 -231 -265c-71 0 -114 20 -146 48v-156h78v-60h-252zM278 70c66 0 146 34 146 192c0 152 -70 189 -137 189
c-53 0 -96 -28 -130 -56v-278c29 -27 63 -47 121 -47z" />
    <glyph glyph-name="threequarters" unicode="&#xbe;" horiz-adv-x="691" 
d="M133 315c-50 0 -86 9 -115 20v78h47c9 -30 27 -43 66 -43c42 0 69 21 69 62c0 39 -28 54 -70 54h-35v54h32c43 0 69 18 69 54c0 34 -19 53 -58 53c-34 0 -54 -9 -63 -40h-45v77c32 12 73 21 117 21c80 0 131 -32 131 -98c0 -52 -32 -80 -79 -90v-3c54 -8 86 -37 86 -88
c0 -70 -57 -111 -152 -111zM496 0v48h30c7 0 18 12 18 20v31h-177v61l179 220h80v-230h47v-51h-47v-31c0 -8 10 -20 19 -20h28v-48h-177zM424 153v-3h121v150h-2zM83 -34l493 763h74l-493 -763h-74z" />
    <glyph glyph-name="twosuperior" unicode="&#xb2;" horiz-adv-x="312" 
d="M19 320v35c0 68 47 110 101 146c44 29 84 52 84 91c0 36 -21 54 -58 54c-32 0 -60 -10 -69 -46h-46v84c34 13 74 21 124 21c83 0 136 -37 136 -108c0 -68 -57 -100 -108 -129c-47 -27 -82 -50 -88 -86h131l6 43h53v-105h-266z" />
    <glyph glyph-name="registered" unicode="&#xae;" horiz-adv-x="395" 
d="M197 350c-96 0 -181 66 -181 179c0 114 85 179 181 179c95 0 181 -65 181 -179c0 -113 -86 -179 -181 -179zM197 380c81 0 146 53 146 149s-65 149 -146 149c-80 0 -145 -53 -145 -149s65 -149 145 -149zM116 444v26h10c3 0 8 4 8 8v107c0 3 -5 8 -8 8h-10v27h86
c49 0 72 -17 72 -50c0 -22 -12 -34 -36 -41v-1c18 -3 25 -11 32 -36l5 -16c1 -4 6 -6 8 -6h7v-26h-57l-9 48c-3 16 -9 23 -25 23h-17v-45h20v-26h-86zM181 591v-50h18c20 0 26 9 26 26c0 15 -5 24 -26 24h-18z" />
    <glyph glyph-name="minus" unicode="&#x2212;" horiz-adv-x="496" 
d="M25 305v81h446v-81h-446z" />
    <glyph glyph-name="eth" unicode="&#xf0;" horiz-adv-x="576" 
d="M433 680l-56 -45c111 -69 178 -182 178 -351c0 -207 -116 -290 -267 -290c-150 0 -267 100 -267 261s110 260 249 260c73 0 118 -28 152 -68c-26 60 -62 100 -115 132l-50 -41h-71v20l61 49c-26 11 -51 17 -73 22v71h37c35 -7 74 -18 109 -34l42 34h71v-20zM288 64
c91 0 157 65 157 189c0 125 -65 193 -157 193c-91 0 -157 -65 -157 -192c0 -125 66 -190 157 -190z" />
    <glyph glyph-name="multiply" unicode="&#xd7;" horiz-adv-x="497" 
d="M99 131l-56 58l149 150l-149 150l56 57l149 -150l150 150l57 -57l-150 -150l150 -150l-57 -58l-150 151z" />
    <glyph glyph-name="threesuperior" unicode="&#xb3;" horiz-adv-x="302" 
d="M130 315c-50 0 -86 9 -115 20v78h47c9 -30 27 -43 66 -43c42 0 69 21 69 62c0 39 -28 54 -70 54h-35v54h32c43 0 69 18 69 54c0 34 -19 53 -58 53c-34 0 -54 -9 -63 -40h-45v77c32 12 73 21 117 21c80 0 131 -32 131 -98c0 -52 -32 -80 -79 -90v-3c54 -8 86 -37 86 -88
c0 -70 -57 -111 -152 -111z" />
    <glyph glyph-name="copyright" unicode="&#xa9;" horiz-adv-x="756" 
d="M378 -7c-190 0 -352 126 -352 357s162 357 352 357c191 0 353 -126 353 -357s-162 -357 -353 -357zM378 30c174 0 309 115 309 320c0 206 -135 320 -309 320c-173 0 -308 -114 -308 -320c0 -205 135 -320 308 -320zM385 155c-117 0 -190 67 -190 195
c0 129 80 197 187 197c39 0 60 -8 79 -16c6 0 9 4 10 12h52v-133h-55l-8 53c-17 14 -34 27 -71 27c-57 0 -104 -39 -104 -137c0 -95 37 -142 106 -142c46 0 75 19 95 45h41v-56c-31 -26 -79 -45 -142 -45z" />
    <glyph glyph-name="Aacute" unicode="&#xc1;" horiz-adv-x="721" 
d="M535 64l-53 157h-274l-27 -77c-18 -50 -12 -80 32 -80h47v-64h-249v64h25c20 0 35 14 43 34l181 502c7 20 -3 34 -21 34h-54v66h253l205 -603c6 -18 23 -33 40 -33h27v-64h-273v64h98zM348 614l-115 -325h227l-108 325h-4zM308 736l46 133h108v-39l-94 -94h-60z" />
    <glyph glyph-name="Acircumflex" unicode="&#xc2;" horiz-adv-x="721" 
d="M535 64l-53 157h-274l-27 -77c-18 -50 -12 -80 32 -80h47v-64h-249v64h25c20 0 35 14 43 34l181 502c7 20 -3 34 -21 34h-54v66h253l205 -603c6 -18 23 -33 40 -33h27v-64h-273v64h98zM348 614l-115 -325h227l-108 325h-4zM221 736v29l75 104h95l73 -104v-29h-44l-79 69
l-78 -69h-42z" />
    <glyph glyph-name="Adieresis" unicode="&#xc4;" horiz-adv-x="721" 
d="M535 64l-53 157h-274l-27 -77c-18 -50 -12 -80 32 -80h47v-64h-249v64h25c20 0 35 14 43 34l181 502c7 20 -3 34 -21 34h-54v66h253l205 -603c6 -18 23 -33 40 -33h27v-64h-273v64h98zM348 614l-115 -325h227l-108 325h-4zM259 748c-33 0 -59 26 -59 58s26 58 59 58
s59 -26 59 -58s-26 -58 -59 -58zM431 748c-33 0 -59 26 -59 58s26 58 59 58s59 -26 59 -58s-26 -58 -59 -58z" />
    <glyph glyph-name="Agrave" unicode="&#xc0;" horiz-adv-x="721" 
d="M535 64l-53 157h-274l-27 -77c-18 -50 -12 -80 32 -80h47v-64h-249v64h25c20 0 35 14 43 34l181 502c7 20 -3 34 -21 34h-54v66h253l205 -603c6 -18 23 -33 40 -33h27v-64h-273v64h98zM348 614l-115 -325h227l-108 325h-4zM322 736l-94 94v39h108l46 -133h-60z" />
    <glyph glyph-name="Aring" unicode="&#xc5;" horiz-adv-x="721" 
d="M535 64l-53 157h-274l-27 -77c-18 -50 -12 -80 32 -80h47v-64h-249v64h25c20 0 35 14 43 34l181 502c7 20 -3 34 -21 34h-54v66h253l205 -603c6 -18 23 -33 40 -33h27v-64h-273v64h98zM348 614l-115 -325h227l-108 325h-4zM343 738c-53 0 -99 37 -99 96s46 96 99 96
s99 -37 99 -96s-46 -96 -99 -96zM343 782c29 0 51 20 51 52c0 33 -22 53 -51 53s-50 -20 -50 -53c0 -32 21 -52 50 -52z" />
    <glyph glyph-name="Atilde" unicode="&#xc3;" horiz-adv-x="721" 
d="M535 64l-53 157h-274l-27 -77c-18 -50 -12 -80 32 -80h47v-64h-249v64h25c20 0 35 14 43 34l181 502c7 20 -3 34 -21 34h-54v66h253l205 -603c6 -18 23 -33 40 -33h27v-64h-273v64h98zM348 614l-115 -325h227l-108 325h-4zM186 742v55c15 30 41 58 90 58
c46 0 98 -32 128 -32c23 0 36 14 42 36h52v-56c-15 -31 -41 -58 -90 -58c-46 0 -98 35 -128 35c-23 0 -36 -15 -42 -38h-52z" />
    <glyph glyph-name="Ccedilla" unicode="&#xc7;" horiz-adv-x="630" 
d="M338 -175c-35 0 -57 8 -78 17v48h29c7 -9 21 -16 39 -16c24 0 36 10 36 27c0 19 -14 28 -46 28h-18v68c-168 22 -274 144 -274 353c0 232 141 357 339 357c82 0 120 -17 140 -26c8 0 15 8 16 19h73v-214h-79l-12 99c-29 24 -72 44 -135 44c-125 0 -220 -83 -220 -275
c0 -189 79 -285 215 -285c92 0 150 37 188 89h55v-82c-57 -48 -135 -83 -247 -83h-8v-24c57 -2 84 -26 84 -71c0 -46 -37 -73 -97 -73z" />
    <glyph glyph-name="Eacute" unicode="&#xc9;" horiz-adv-x="588" 
d="M265 736l46 133h108v-39l-94 -94h-60zM16 0v64h42c15 0 31 18 31 32v505c0 15 -16 33 -31 33h-42v66h541v-186h-73l-12 115h-269v-237h137l8 83h70v-235h-70l-8 83h-137v-253h278l12 128h75v-198h-552z" />
    <glyph glyph-name="Ecircumflex" unicode="&#xca;" horiz-adv-x="588" 
d="M183 736v29l75 104h95l73 -104v-29h-44l-79 69l-78 -69h-42zM16 0v64h42c15 0 31 18 31 32v505c0 15 -16 33 -31 33h-42v66h541v-186h-73l-12 115h-269v-237h137l8 83h70v-235h-70l-8 83h-137v-253h278l12 128h75v-198h-552z" />
    <glyph glyph-name="Edieresis" unicode="&#xcb;" horiz-adv-x="588" 
d="M219 748c-33 0 -59 26 -59 58s26 58 59 58s59 -26 59 -58s-26 -58 -59 -58zM391 748c-33 0 -59 26 -59 58s26 58 59 58s59 -26 59 -58s-26 -58 -59 -58zM16 0v64h42c15 0 31 18 31 32v505c0 15 -16 33 -31 33h-42v66h541v-186h-73l-12 115h-269v-237h137l8 83h70v-235
h-70l-8 83h-137v-253h278l12 128h75v-198h-552z" />
    <glyph glyph-name="Egrave" unicode="&#xc8;" horiz-adv-x="588" 
d="M16 0v64h42c15 0 31 18 31 32v505c0 15 -16 33 -31 33h-42v66h541v-186h-73l-12 115h-269v-237h137l8 83h70v-235h-70l-8 83h-137v-253h278l12 128h75v-198h-552zM282 736l-94 94v39h108l46 -133h-60z" />
    <glyph glyph-name="Iacute" unicode="&#xcd;" horiz-adv-x="310" 
d="M16 0v64h50c16 0 31 18 31 32v505c0 15 -15 33 -31 33h-50v66h278v-66h-50c-16 0 -31 -18 -31 -33v-505c0 -14 15 -32 31 -32h50v-64h-278zM119 736l46 133h108v-39l-94 -94h-60z" />
    <glyph glyph-name="Icircumflex" unicode="&#xce;" horiz-adv-x="310" 
d="M16 0v64h50c16 0 31 18 31 32v505c0 15 -15 33 -31 33h-50v66h278v-66h-50c-16 0 -31 -18 -31 -33v-505c0 -14 15 -32 31 -32h50v-64h-278zM33 736v29l75 104h95l73 -104v-29h-44l-79 69l-78 -69h-42z" />
    <glyph glyph-name="Idieresis" unicode="&#xcf;" horiz-adv-x="310" 
d="M16 0v64h50c16 0 31 18 31 32v505c0 15 -15 33 -31 33h-50v66h278v-66h-50c-16 0 -31 -18 -31 -33v-505c0 -14 15 -32 31 -32h50v-64h-278zM69 748c-33 0 -59 26 -59 58s26 58 59 58s59 -26 59 -58s-26 -58 -59 -58zM241 748c-33 0 -59 26 -59 58s26 58 59 58
s59 -26 59 -58s-26 -58 -59 -58z" />
    <glyph glyph-name="Igrave" unicode="&#xcc;" horiz-adv-x="310" 
d="M16 0v64h50c16 0 31 18 31 32v505c0 15 -15 33 -31 33h-50v66h278v-66h-50c-16 0 -31 -18 -31 -33v-505c0 -14 15 -32 31 -32h50v-64h-278zM133 736l-94 94v39h108l46 -133h-60z" />
    <glyph glyph-name="Ntilde" unicode="&#xd1;" horiz-adv-x="710" 
d="M16 0v64h42c15 0 31 18 31 32v505c0 15 -16 33 -31 33h-42v66h196l321 -511h3v445h-88v66h247v-66h-41c-15 0 -30 -18 -30 -33v-601h-100l-344 544h-4v-480h90v-64h-250zM196 742v55c15 30 41 58 90 58c46 0 98 -32 128 -32c23 0 36 14 42 36h52v-56
c-15 -31 -41 -58 -90 -58c-46 0 -98 35 -128 35c-23 0 -36 -15 -42 -38h-52z" />
    <glyph glyph-name="Oacute" unicode="&#xd3;" horiz-adv-x="725" 
d="M326 740l46 133h108v-39l-94 -94h-60zM363 -7c-182 0 -336 126 -336 357s154 357 336 357c181 0 335 -126 335 -357s-154 -357 -335 -357zM363 69c123 0 214 94 214 279c0 186 -91 280 -214 280c-124 0 -215 -94 -215 -280c0 -185 91 -279 215 -279z" />
    <glyph glyph-name="Ocircumflex" unicode="&#xd4;" horiz-adv-x="725" 
d="M240 740v29l75 104h95l73 -104v-29h-44l-79 69l-78 -69h-42zM363 -7c-182 0 -336 126 -336 357s154 357 336 357c181 0 335 -126 335 -357s-154 -357 -335 -357zM363 69c123 0 214 94 214 279c0 186 -91 280 -214 280c-124 0 -215 -94 -215 -280c0 -185 91 -279 215 -279
z" />
    <glyph glyph-name="Odieresis" unicode="&#xd6;" horiz-adv-x="725" 
d="M276 752c-33 0 -59 26 -59 58s26 58 59 58s59 -26 59 -58s-26 -58 -59 -58zM448 752c-33 0 -59 26 -59 58s26 58 59 58s59 -26 59 -58s-26 -58 -59 -58zM363 -7c-182 0 -336 126 -336 357s154 357 336 357c181 0 335 -126 335 -357s-154 -357 -335 -357zM363 69
c123 0 214 94 214 279c0 186 -91 280 -214 280c-124 0 -215 -94 -215 -280c0 -185 91 -279 215 -279z" />
    <glyph glyph-name="Ograve" unicode="&#xd2;" horiz-adv-x="725" 
d="M363 -7c-182 0 -336 126 -336 357s154 357 336 357c181 0 335 -126 335 -357s-154 -357 -335 -357zM363 69c123 0 214 94 214 279c0 186 -91 280 -214 280c-124 0 -215 -94 -215 -280c0 -185 91 -279 215 -279zM339 740l-94 94v39h108l46 -133h-60z" />
    <glyph glyph-name="Otilde" unicode="&#xd5;" horiz-adv-x="725" 
d="M363 -7c-182 0 -336 126 -336 357s154 357 336 357c181 0 335 -126 335 -357s-154 -357 -335 -357zM363 69c123 0 214 94 214 279c0 186 -91 280 -214 280c-124 0 -215 -94 -215 -280c0 -185 91 -279 215 -279zM206 746v55c15 30 41 58 90 58c46 0 98 -32 128 -32
c23 0 36 14 42 36h52v-56c-15 -31 -41 -58 -90 -58c-46 0 -98 35 -128 35c-23 0 -36 -15 -42 -38h-52z" />
    <glyph glyph-name="Scaron" unicode="&#x160;" horiz-adv-x="521" 
d="M381 873v-30l-76 -103h-94l-73 103v30h44l78 -69l79 69h42zM259 -7c-79 0 -119 18 -146 33c-7 0 -13 -11 -15 -26h-76v204h79l10 -85c35 -34 71 -53 146 -53c80 0 133 37 133 114c0 95 -70 106 -172 134c-123 34 -184 85 -184 204c0 126 93 189 222 189
c71 0 106 -19 126 -29c7 0 14 12 15 22h73v-185h-77l-10 70c-25 24 -59 48 -127 48c-73 0 -123 -28 -123 -104c0 -82 64 -96 160 -122c134 -36 202 -79 202 -208c0 -134 -82 -206 -236 -206z" />
    <glyph glyph-name="Uacute" unicode="&#xda;" horiz-adv-x="715" 
d="M337 736l46 133h108v-39l-94 -94h-60zM361 -7c-171 0 -273 83 -273 261v347c0 15 -15 33 -32 33h-40v66h275v-66h-88v-386c0 -140 69 -175 170 -175c100 0 169 34 169 175v386h-88v66h245v-66h-40c-15 0 -31 -18 -31 -33v-347c0 -178 -91 -261 -267 -261z" />
    <glyph glyph-name="Ucircumflex" unicode="&#xdb;" horiz-adv-x="715" 
d="M252 736v29l75 104h95l73 -104v-29h-44l-79 69l-78 -69h-42zM361 -7c-171 0 -273 83 -273 261v347c0 15 -15 33 -32 33h-40v66h275v-66h-88v-386c0 -140 69 -175 170 -175c100 0 169 34 169 175v386h-88v66h245v-66h-40c-15 0 -31 -18 -31 -33v-347
c0 -178 -91 -261 -267 -261z" />
    <glyph glyph-name="Udieresis" unicode="&#xdc;" horiz-adv-x="715" 
d="M289 748c-33 0 -59 26 -59 58s26 58 59 58s59 -26 59 -58s-26 -58 -59 -58zM461 748c-33 0 -59 26 -59 58s26 58 59 58s59 -26 59 -58s-26 -58 -59 -58zM361 -7c-171 0 -273 83 -273 261v347c0 15 -15 33 -32 33h-40v66h275v-66h-88v-386c0 -140 69 -175 170 -175
c100 0 169 34 169 175v386h-88v66h245v-66h-40c-15 0 -31 -18 -31 -33v-347c0 -178 -91 -261 -267 -261z" />
    <glyph glyph-name="Ugrave" unicode="&#xd9;" horiz-adv-x="715" 
d="M361 -7c-171 0 -273 83 -273 261v347c0 15 -15 33 -32 33h-40v66h275v-66h-88v-386c0 -140 69 -175 170 -175c100 0 169 34 169 175v386h-88v66h245v-66h-40c-15 0 -31 -18 -31 -33v-347c0 -178 -91 -261 -267 -261zM352 736l-94 94v39h108l46 -133h-60z" />
    <glyph glyph-name="Yacute" unicode="&#xdd;" horiz-adv-x="659" 
d="M196 0v64h48c16 0 31 18 31 32v194l-196 314c-11 17 -26 30 -43 30h-21v66h260v-66h-82l157 -258h2l116 192c25 42 8 66 -32 66h-32v66h240v-66h-19c-18 0 -33 -13 -45 -32l-189 -308v-198c0 -14 15 -32 31 -32h48v-64h-274zM301 736l46 133h108v-39l-94 -94h-60z" />
    <glyph glyph-name="Ydieresis" unicode="&#x178;" horiz-adv-x="659" 
d="M196 0v64h48c16 0 31 18 31 32v194l-196 314c-11 17 -26 30 -43 30h-21v66h260v-66h-82l157 -258h2l116 192c25 42 8 66 -32 66h-32v66h240v-66h-19c-18 0 -33 -13 -45 -32l-189 -308v-198c0 -14 15 -32 31 -32h48v-64h-274zM253 733c-33 0 -59 26 -59 58s26 58 59 58
s59 -26 59 -58s-26 -58 -59 -58zM425 733c-33 0 -59 26 -59 58s26 58 59 58s59 -26 59 -58s-26 -58 -59 -58z" />
    <glyph glyph-name="Zcaron" unicode="&#x17d;" horiz-adv-x="553" 
d="M407 869v-30l-76 -103h-94l-73 103v30h44l78 -69l79 69h42zM16 0v79l398 547v3h-286l-13 -114h-72v185h494v-81l-398 -547v-2h306l12 126h75v-196h-516z" />
    <glyph glyph-name="aacute" unicode="&#xe1;" horiz-adv-x="526" 
d="M188 -6c-100 0 -170 52 -170 156c0 108 86 159 207 159c47 0 83 -5 120 -14v69c0 67 -39 91 -106 91c-69 0 -108 -24 -136 -49h-50v83c45 22 109 41 205 41c123 0 195 -39 195 -155v-279c0 -20 13 -32 32 -32h27v-54c-14 -9 -39 -16 -69 -16c-57 0 -87 23 -95 71
c-39 -48 -90 -71 -160 -71zM222 63c55 0 91 24 123 58v114c-30 6 -63 10 -98 10c-76 0 -122 -27 -122 -92c0 -64 36 -90 97 -90zM210 567l46 133h108v-39l-94 -94h-60z" />
    <glyph glyph-name="acircumflex" unicode="&#xe2;" horiz-adv-x="526" 
d="M188 -6c-100 0 -170 52 -170 156c0 108 86 159 207 159c47 0 83 -5 120 -14v69c0 67 -39 91 -106 91c-69 0 -108 -24 -136 -49h-50v83c45 22 109 41 205 41c123 0 195 -39 195 -155v-279c0 -20 13 -32 32 -32h27v-54c-14 -9 -39 -16 -69 -16c-57 0 -87 23 -95 71
c-39 -48 -90 -71 -160 -71zM222 63c55 0 91 24 123 58v114c-30 6 -63 10 -98 10c-76 0 -122 -27 -122 -92c0 -64 36 -90 97 -90zM125 567v29l75 104h95l73 -104v-29h-44l-79 69l-78 -69h-42z" />
    <glyph glyph-name="adieresis" unicode="&#xe4;" horiz-adv-x="526" 
d="M188 -6c-100 0 -170 52 -170 156c0 108 86 159 207 159c47 0 83 -5 120 -14v69c0 67 -39 91 -106 91c-69 0 -108 -24 -136 -49h-50v83c45 22 109 41 205 41c123 0 195 -39 195 -155v-279c0 -20 13 -32 32 -32h27v-54c-14 -9 -39 -16 -69 -16c-57 0 -87 23 -95 71
c-39 -48 -90 -71 -160 -71zM222 63c55 0 91 24 123 58v114c-30 6 -63 10 -98 10c-76 0 -122 -27 -122 -92c0 -64 36 -90 97 -90zM161 579c-33 0 -59 26 -59 58s26 58 59 58s59 -26 59 -58s-26 -58 -59 -58zM333 579c-33 0 -59 26 -59 58s26 58 59 58s59 -26 59 -58
s-26 -58 -59 -58z" />
    <glyph glyph-name="agrave" unicode="&#xe0;" horiz-adv-x="526" 
d="M188 -6c-100 0 -170 52 -170 156c0 108 86 159 207 159c47 0 83 -5 120 -14v69c0 67 -39 91 -106 91c-69 0 -108 -24 -136 -49h-50v83c45 22 109 41 205 41c123 0 195 -39 195 -155v-279c0 -20 13 -32 32 -32h27v-54c-14 -9 -39 -16 -69 -16c-57 0 -87 23 -95 71
c-39 -48 -90 -71 -160 -71zM222 63c55 0 91 24 123 58v114c-30 6 -63 10 -98 10c-76 0 -122 -27 -122 -92c0 -64 36 -90 97 -90zM224 567l-94 94v39h108l46 -133h-60z" />
    <glyph glyph-name="aring" unicode="&#xe5;" horiz-adv-x="526" 
d="M188 -6c-100 0 -170 52 -170 156c0 108 86 159 207 159c47 0 83 -5 120 -14v69c0 67 -39 91 -106 91c-69 0 -108 -24 -136 -49h-50v83c45 22 109 41 205 41c123 0 195 -39 195 -155v-279c0 -20 13 -32 32 -32h27v-54c-14 -9 -39 -16 -69 -16c-57 0 -87 23 -95 71
c-39 -48 -90 -71 -160 -71zM222 63c55 0 91 24 123 58v114c-30 6 -63 10 -98 10c-76 0 -122 -27 -122 -92c0 -64 36 -90 97 -90zM247 569c-53 0 -99 37 -99 96s46 96 99 96s99 -37 99 -96s-46 -96 -99 -96zM247 613c29 0 51 20 51 52c0 33 -22 53 -51 53s-50 -20 -50 -53
c0 -32 21 -52 50 -52z" />
    <glyph glyph-name="atilde" unicode="&#xe3;" horiz-adv-x="526" 
d="M188 -6c-100 0 -170 52 -170 156c0 108 86 159 207 159c47 0 83 -5 120 -14v69c0 67 -39 91 -106 91c-69 0 -108 -24 -136 -49h-50v83c45 22 109 41 205 41c123 0 195 -39 195 -155v-279c0 -20 13 -32 32 -32h27v-54c-14 -9 -39 -16 -69 -16c-57 0 -87 23 -95 71
c-39 -48 -90 -71 -160 -71zM222 63c55 0 91 24 123 58v114c-30 6 -63 10 -98 10c-76 0 -122 -27 -122 -92c0 -64 36 -90 97 -90zM91 573v55c15 30 41 58 90 58c46 0 98 -32 128 -32c23 0 36 14 42 36h52v-56c-15 -31 -41 -58 -90 -58c-46 0 -98 35 -128 35
c-23 0 -36 -15 -42 -38h-52z" />
    <glyph glyph-name="ccedilla" unicode="&#xe7;" horiz-adv-x="506" 
d="M264 -175c-35 0 -57 8 -78 17v48h29c7 -9 21 -16 39 -16c24 0 36 10 36 27c0 19 -14 28 -46 28h-18v69c-136 21 -205 117 -205 263c0 168 107 269 270 269c86 0 140 -13 174 -28v-110h-69c-9 52 -46 68 -107 68c-96 0 -155 -66 -155 -200c0 -133 50 -196 153 -196
c73 0 107 31 128 60h55v-78c-35 -25 -95 -52 -185 -52h-8v-25c57 -2 84 -26 84 -71c0 -46 -37 -73 -97 -73z" />
    <glyph glyph-name="eacute" unicode="&#xe9;" horiz-adv-x="528" 
d="M234 567l46 133h108v-39l-94 -94h-60zM287 -6c-176 0 -266 102 -266 266c0 166 103 270 255 270c147 0 232 -77 232 -252c0 -15 -1 -29 -1 -33h-373c4 -122 57 -182 161 -182c74 0 108 26 135 59h62v-74c-41 -27 -100 -54 -205 -54zM136 310h263c-4 111 -47 153 -123 153
c-79 0 -130 -50 -140 -153z" />
    <glyph glyph-name="ecircumflex" unicode="&#xea;" horiz-adv-x="528" 
d="M149 567v29l75 104h95l73 -104v-29h-44l-79 69l-78 -69h-42zM287 -6c-176 0 -266 102 -266 266c0 166 103 270 255 270c147 0 232 -77 232 -252c0 -15 -1 -29 -1 -33h-373c4 -122 57 -182 161 -182c74 0 108 26 135 59h62v-74c-41 -27 -100 -54 -205 -54zM136 310h263
c-4 111 -47 153 -123 153c-79 0 -130 -50 -140 -153z" />
    <glyph glyph-name="edieresis" unicode="&#xeb;" horiz-adv-x="528" 
d="M185 579c-33 0 -59 26 -59 58s26 58 59 58s59 -26 59 -58s-26 -58 -59 -58zM357 579c-33 0 -59 26 -59 58s26 58 59 58s59 -26 59 -58s-26 -58 -59 -58zM287 -6c-176 0 -266 102 -266 266c0 166 103 270 255 270c147 0 232 -77 232 -252c0 -15 -1 -29 -1 -33h-373
c4 -122 57 -182 161 -182c74 0 108 26 135 59h62v-74c-41 -27 -100 -54 -205 -54zM136 310h263c-4 111 -47 153 -123 153c-79 0 -130 -50 -140 -153z" />
    <glyph glyph-name="egrave" unicode="&#xe8;" horiz-adv-x="528" 
d="M287 -6c-176 0 -266 102 -266 266c0 166 103 270 255 270c147 0 232 -77 232 -252c0 -15 -1 -29 -1 -33h-373c4 -122 57 -182 161 -182c74 0 108 26 135 59h62v-74c-41 -27 -100 -54 -205 -54zM136 310h263c-4 111 -47 153 -123 153c-79 0 -130 -50 -140 -153zM248 567
l-94 94v39h108l46 -133h-60z" />
    <glyph glyph-name="iacute" unicode="&#xed;" horiz-adv-x="268" 
d="M89 567l46 133h108v-39l-94 -94h-60zM14 0v64h39c13 0 27 14 27 27v337c0 12 -13 28 -26 28h-44v68h158c14 0 20 -12 20 -46v-387c0 -14 14 -27 27 -27h39v-64h-240z" />
    <glyph glyph-name="icircumflex" unicode="&#xee;" horiz-adv-x="268" 
d="M4 567v29l75 104h95l73 -104v-29h-44l-79 69l-78 -69h-42zM14 0v64h39c13 0 27 14 27 27v337c0 12 -13 28 -26 28h-44v68h158c14 0 20 -12 20 -46v-387c0 -14 14 -27 27 -27h39v-64h-240z" />
    <glyph glyph-name="idieresis" unicode="&#xef;" horiz-adv-x="268" 
d="M40 579c-33 0 -59 26 -59 58s26 58 59 58s59 -26 59 -58s-26 -58 -59 -58zM212 579c-33 0 -59 26 -59 58s26 58 59 58s59 -26 59 -58s-26 -58 -59 -58zM14 0v64h39c13 0 27 14 27 27v337c0 12 -13 28 -26 28h-44v68h158c14 0 20 -12 20 -46v-387c0 -14 14 -27 27 -27h39
v-64h-240z" />
    <glyph glyph-name="igrave" unicode="&#xec;" horiz-adv-x="268" 
d="M14 0v64h39c13 0 27 14 27 27v337c0 12 -13 28 -26 28h-44v68h158c14 0 20 -12 20 -46v-387c0 -14 14 -27 27 -27h39v-64h-240zM103 567l-94 94v39h108l46 -133h-60z" />
    <glyph glyph-name="ntilde" unicode="&#xf1;" horiz-adv-x="604" 
d="M14 0v64h39c13 0 27 14 27 27v337c0 12 -14 28 -27 28h-43v68h153c15 0 26 -14 25 -64v-14c52 48 125 84 206 84c75 0 137 -27 137 -130v-309c0 -14 14 -27 26 -27h33v-64h-239v64h72v300c0 65 -29 81 -82 81c-56 0 -108 -23 -153 -50v-331h73v-64h-247zM142 573v55
c15 30 41 58 90 58c46 0 98 -32 128 -32c23 0 36 14 42 36h52v-56c-15 -31 -41 -58 -90 -58c-46 0 -98 35 -128 35c-23 0 -36 -15 -42 -38h-52z" />
    <glyph glyph-name="oacute" unicode="&#xf3;" horiz-adv-x="576" 
d="M247 567l46 133h108v-39l-94 -94h-60zM288 -6c-150 0 -267 100 -267 266c0 168 117 270 267 270c151 0 267 -102 267 -270c0 -166 -116 -266 -267 -266zM288 64c91 0 155 67 155 195c0 130 -64 198 -155 198s-155 -68 -155 -198c0 -128 64 -195 155 -195z" />
    <glyph glyph-name="ocircumflex" unicode="&#xf4;" horiz-adv-x="576" 
d="M162 567v29l75 104h95l73 -104v-29h-44l-79 69l-78 -69h-42zM288 -6c-150 0 -267 100 -267 266c0 168 117 270 267 270c151 0 267 -102 267 -270c0 -166 -116 -266 -267 -266zM288 64c91 0 155 67 155 195c0 130 -64 198 -155 198s-155 -68 -155 -198
c0 -128 64 -195 155 -195z" />
    <glyph glyph-name="odieresis" unicode="&#xf6;" horiz-adv-x="576" 
d="M198 579c-33 0 -59 26 -59 58s26 58 59 58s59 -26 59 -58s-26 -58 -59 -58zM370 579c-33 0 -59 26 -59 58s26 58 59 58s59 -26 59 -58s-26 -58 -59 -58zM288 -6c-150 0 -267 100 -267 266c0 168 117 270 267 270c151 0 267 -102 267 -270c0 -166 -116 -266 -267 -266z
M288 64c91 0 155 67 155 195c0 130 -64 198 -155 198s-155 -68 -155 -198c0 -128 64 -195 155 -195z" />
    <glyph glyph-name="ograve" unicode="&#xf2;" horiz-adv-x="576" 
d="M288 -6c-150 0 -267 100 -267 266c0 168 117 270 267 270c151 0 267 -102 267 -270c0 -166 -116 -266 -267 -266zM288 64c91 0 155 67 155 195c0 130 -64 198 -155 198s-155 -68 -155 -198c0 -128 64 -195 155 -195zM261 567l-94 94v39h108l46 -133h-60z" />
    <glyph glyph-name="otilde" unicode="&#xf5;" horiz-adv-x="576" 
d="M288 -6c-150 0 -267 100 -267 266c0 168 117 270 267 270c151 0 267 -102 267 -270c0 -166 -116 -266 -267 -266zM288 64c91 0 155 67 155 195c0 130 -64 198 -155 198s-155 -68 -155 -198c0 -128 64 -195 155 -195zM128 573v55c15 30 41 58 90 58c46 0 98 -32 128 -32
c23 0 36 14 42 36h52v-56c-15 -31 -41 -58 -90 -58c-46 0 -98 35 -128 35c-23 0 -36 -15 -42 -38h-52z" />
    <glyph glyph-name="scaron" unicode="&#x161;" horiz-adv-x="439" 
d="M345 700v-30l-76 -103h-94l-73 103v30h44l78 -69l79 69h42zM203 -6c-94 0 -144 15 -182 30v109h65c12 -49 46 -69 116 -69c72 0 116 26 116 80c0 49 -36 63 -125 77c-108 16 -164 50 -164 154c0 98 75 155 200 155c83 0 134 -12 172 -26v-104h-63c-11 39 -40 58 -113 58
c-64 0 -102 -26 -102 -69c0 -46 28 -62 119 -76c120 -18 176 -50 176 -154c0 -100 -70 -165 -215 -165z" />
    <glyph glyph-name="uacute" unicode="&#xfa;" horiz-adv-x="607" 
d="M241 567l46 133h108v-39l-94 -94h-60zM216 -7c-73 0 -140 29 -140 130v306c0 13 -14 27 -27 27h-39v68h174v-367c0 -68 35 -85 84 -85c54 0 107 24 149 52v332h-75v68h183v-432c0 -13 14 -28 28 -28h40v-64h-151c-14 0 -24 12 -24 61v13c-54 -48 -117 -81 -202 -81z" />
    <glyph glyph-name="ucircumflex" unicode="&#xfb;" horiz-adv-x="607" 
d="M156 567v29l75 104h95l73 -104v-29h-44l-79 69l-78 -69h-42zM216 -7c-73 0 -140 29 -140 130v306c0 13 -14 27 -27 27h-39v68h174v-367c0 -68 35 -85 84 -85c54 0 107 24 149 52v332h-75v68h183v-432c0 -13 14 -28 28 -28h40v-64h-151c-14 0 -24 12 -24 61v13
c-54 -48 -117 -81 -202 -81z" />
    <glyph glyph-name="udieresis" unicode="&#xfc;" horiz-adv-x="607" 
d="M192 579c-33 0 -59 26 -59 58s26 58 59 58s59 -26 59 -58s-26 -58 -59 -58zM364 579c-33 0 -59 26 -59 58s26 58 59 58s59 -26 59 -58s-26 -58 -59 -58zM216 -7c-73 0 -140 29 -140 130v306c0 13 -14 27 -27 27h-39v68h174v-367c0 -68 35 -85 84 -85c54 0 107 24 149 52
v332h-75v68h183v-432c0 -13 14 -28 28 -28h40v-64h-151c-14 0 -24 12 -24 61v13c-54 -48 -117 -81 -202 -81z" />
    <glyph glyph-name="ugrave" unicode="&#xf9;" horiz-adv-x="607" 
d="M216 -7c-73 0 -140 29 -140 130v306c0 13 -14 27 -27 27h-39v68h174v-367c0 -68 35 -85 84 -85c54 0 107 24 149 52v332h-75v68h183v-432c0 -13 14 -28 28 -28h40v-64h-151c-14 0 -24 12 -24 61v13c-54 -48 -117 -81 -202 -81zM255 567l-94 94v39h108l46 -133h-60z" />
    <glyph glyph-name="yacute" unicode="&#xfd;" horiz-adv-x="588" 
d="M98 -162v60c58 18 106 55 145 115l-177 411c-8 19 -21 32 -37 32h-19v68h232v-68h-77l134 -322l108 264c14 34 12 58 -25 58h-26v68h214v-68h-23c-16 0 -30 -13 -39 -33l-166 -383c-48 -111 -102 -172 -153 -202h-91zM256 567l46 133h108v-39l-94 -94h-60z" />
    <glyph glyph-name="ydieresis" unicode="&#xff;" horiz-adv-x="588" 
d="M98 -162v60c58 18 106 55 145 115l-177 411c-8 19 -21 32 -37 32h-19v68h232v-68h-77l134 -322l108 264c14 34 12 58 -25 58h-26v68h214v-68h-23c-16 0 -30 -13 -39 -33l-166 -383c-48 -111 -102 -172 -153 -202h-91zM207 579c-33 0 -59 26 -59 58s26 58 59 58
s59 -26 59 -58s-26 -58 -59 -58zM379 579c-33 0 -59 26 -59 58s26 58 59 58s59 -26 59 -58s-26 -58 -59 -58z" />
    <glyph glyph-name="zcaron" unicode="&#x17e;" horiz-adv-x="482" 
d="M367 700v-30l-76 -103h-94l-73 103v30h44l78 -69l79 69h42zM16 0v73l323 380h-227l-11 -93h-65v164h428v-75l-324 -379h236l10 93h68v-163h-438z" />
    <glyph glyph-name="oneeighth" unicode="&#x215b;" horiz-adv-x="740" 
d="M18 320v48h52c9 0 18 12 18 20v239l-50 -28h-22v53l98 48h61v-312c0 -8 9 -20 18 -20h48v-48h-223zM66 -34l493 763h74l-493 -763h-74zM562 -5c-97 0 -152 45 -152 112c0 49 30 81 81 96v2c-41 10 -65 39 -65 80c0 61 57 100 136 100c80 0 137 -39 137 -100
c0 -41 -23 -67 -64 -80v-2c51 -15 81 -47 81 -96c0 -67 -56 -112 -154 -112zM562 49c49 0 72 26 72 63c0 38 -23 66 -72 66c-48 0 -69 -28 -69 -66c0 -37 21 -63 69 -63zM562 226c37 0 57 19 57 52s-20 52 -57 52c-36 0 -56 -19 -56 -52s20 -52 56 -52z" />
    <glyph glyph-name="threeeighths" unicode="&#x215c;" horiz-adv-x="739" 
d="M133 315c-50 0 -86 9 -115 20v78h47c9 -30 27 -43 66 -43c42 0 69 21 69 62c0 39 -28 54 -70 54h-35v54h32c43 0 69 18 69 54c0 34 -19 53 -58 53c-34 0 -54 -9 -63 -40h-45v77c32 12 73 21 117 21c80 0 131 -32 131 -98c0 -52 -32 -80 -79 -90v-3c54 -8 86 -37 86 -88
c0 -70 -57 -111 -152 -111zM72 -34l493 763h74l-493 -763h-74zM561 -5c-97 0 -152 45 -152 112c0 49 30 81 81 96v2c-41 10 -65 39 -65 80c0 61 57 100 136 100c80 0 137 -39 137 -100c0 -41 -23 -67 -64 -80v-2c51 -15 81 -47 81 -96c0 -67 -56 -112 -154 -112zM561 49
c49 0 72 26 72 63c0 38 -23 66 -72 66c-48 0 -69 -28 -69 -66c0 -37 21 -63 69 -63zM561 226c37 0 57 19 57 52s-20 52 -57 52c-36 0 -56 -19 -56 -52s20 -52 56 -52z" />
    <glyph glyph-name="fiveeighths" unicode="&#x215d;" horiz-adv-x="738" 
d="M133 315c-51 0 -85 11 -114 23v74h47c7 -29 29 -42 64 -42c43 0 72 25 72 72c0 46 -28 66 -61 66s-53 -15 -64 -28h-49v220h241v-95h-52l-6 35h-123v-105h2c15 13 42 24 77 24c67 0 119 -33 119 -116c0 -80 -62 -128 -153 -128zM68 -34l493 763h74l-493 -763h-74zM560 -5
c-97 0 -152 45 -152 112c0 49 30 81 81 96v2c-41 10 -65 39 -65 80c0 61 57 100 136 100c80 0 137 -39 137 -100c0 -41 -23 -67 -64 -80v-2c51 -15 81 -47 81 -96c0 -67 -56 -112 -154 -112zM560 49c49 0 72 26 72 63c0 38 -23 66 -72 66c-48 0 -69 -28 -69 -66
c0 -37 21 -63 69 -63zM560 226c37 0 57 19 57 52s-20 52 -57 52c-36 0 -56 -19 -56 -52s20 -52 56 -52z" />
    <glyph glyph-name="seveneighths" unicode="&#x215e;" horiz-adv-x="708" 
d="M28 -34l493 763h74l-493 -763h-74zM530 -5c-97 0 -152 45 -152 112c0 49 30 81 81 96v2c-41 10 -65 39 -65 80c0 61 57 100 136 100c80 0 137 -39 137 -100c0 -41 -23 -67 -64 -80v-2c51 -15 81 -47 81 -96c0 -67 -56 -112 -154 -112zM530 49c49 0 72 26 72 63
c0 38 -23 66 -72 66c-48 0 -69 -28 -69 -66c0 -37 21 -63 69 -63zM530 226c37 0 57 19 57 52s-20 52 -57 52c-36 0 -56 -19 -56 -52s20 -52 56 -52zM66 320v35l167 280v2h-157l-6 -54h-52v117h273v-69l-142 -311h-83z" />
    <glyph glyph-name="onethird" unicode="&#x2153;" horiz-adv-x="725" 
d="M18 320v48h52c9 0 18 12 18 20v239l-50 -28h-22v53l98 48h61v-312c0 -8 9 -20 18 -20h48v-48h-223zM66 -34l493 763h74l-493 -763h-74zM550 -5c-50 0 -86 9 -115 20v78h47c9 -30 27 -43 66 -43c42 0 69 21 69 62c0 39 -28 54 -70 54h-35v54h32c43 0 69 18 69 54
c0 34 -19 53 -58 53c-34 0 -54 -9 -63 -40h-45v77c32 12 73 21 117 21c80 0 131 -32 131 -98c0 -52 -32 -80 -79 -90v-3c54 -8 86 -37 86 -88c0 -70 -57 -111 -152 -111z" />
    <glyph glyph-name="twothirds" unicode="&#x2154;" horiz-adv-x="766" 
d="M22 320v35c0 68 47 110 101 146c44 29 84 52 84 91c0 36 -21 54 -58 54c-32 0 -60 -10 -69 -46h-46v84c34 13 74 21 124 21c83 0 136 -37 136 -108c0 -68 -57 -100 -108 -129c-47 -27 -82 -50 -88 -86h131l6 43h53v-105h-266zM110 -34l493 763h74l-493 -763h-74zM591 -5
c-50 0 -86 9 -115 20v78h47c9 -30 27 -43 66 -43c42 0 69 21 69 62c0 39 -28 54 -70 54h-35v54h32c43 0 69 18 69 54c0 34 -19 53 -58 53c-34 0 -54 -9 -63 -40h-45v77c32 12 73 21 117 21c80 0 131 -32 131 -98c0 -52 -32 -80 -79 -90v-3c54 -8 86 -37 86 -88
c0 -70 -57 -111 -152 -111z" />
    <glyph glyph-name="Euro" unicode="&#x20ac;" horiz-adv-x="593" 
d="M21 251v63h54c-1 7 -1 28 -1 35c0 5 1 25 1 31h-54v63h60c28 171 137 264 290 264c84 0 142 -13 190 -35v-140h-68c-10 74 -45 99 -120 97c-99 0 -157 -58 -174 -186h223l-14 -63h-214v-66h202l-14 -63h-183c15 -120 62 -182 171 -182c69 0 110 29 138 67h60v-83
c-54 -37 -113 -60 -201 -60c-156 0 -259 85 -286 258h-60z" />
    <glyph glyph-name="space_uni0326" unicode="&#xf6c3;" horiz-adv-x="406" 
d="M141 -208v46c31 5 47 15 47 30c0 12 -12 16 -22 22c-14 8 -21 20 -21 40c0 26 23 45 53 45c34 0 61 -19 61 -65c0 -76 -41 -110 -118 -118z" />
    <glyph glyph-name="paragraph.cap" horiz-adv-x="554" 
d="M257 0v318c-138 4 -236 49 -236 191c0 150 107 191 248 191h269v-66h-42c-16 0 -31 -18 -31 -33v-601h-68v629h-72v-629h-68z" />
    <glyph glyph-name="bullet.cap" horiz-adv-x="314" 
d="M157 201c-71 0 -129 47 -129 126s58 128 129 128c73 0 129 -49 129 -128s-56 -126 -129 -126z" />
    <glyph glyph-name="at.cap" horiz-adv-x="789" 
d="M556 169c-74 0 -100 29 -110 67c-26 -34 -67 -67 -131 -67c-68 0 -111 44 -111 120c0 72 26 129 65 175c35 40 86 63 142 63c49 0 75 -15 96 -36c16 16 37 33 54 33h31l-54 -235c-8 -39 -8 -67 31 -67c69 0 128 57 128 190c0 152 -120 239 -284 239
c-154 0 -312 -106 -312 -323c0 -197 131 -278 298 -278c89 0 164 22 216 57h38v-46c-58 -42 -152 -69 -256 -69c-189 0 -373 100 -373 337c0 248 209 381 388 381c186 0 353 -105 353 -296c0 -169 -105 -245 -209 -245zM348 228c36 0 65 25 92 54l40 173
c-13 7 -31 13 -54 13c-37 0 -65 -17 -86 -46c-23 -31 -41 -76 -41 -132c0 -43 20 -62 49 -62z" />
    <glyph glyph-name="dagger.cap" horiz-adv-x="437" 
d="M195 0l-37 271v93l41 107l-142 -39l-37 22v65l37 22l142 -39l-35 97v58l18 43h72l18 -43v-58l-36 -97l144 39l37 -22v-65l-37 -22l-144 39l43 -106v-92l-38 -273h-46z" />
    <glyph glyph-name="daggerdbl.cap" horiz-adv-x="437" 
d="M182 0l-18 43v55l35 98l-142 -40l-37 23v64l37 23l142 -40l-37 93v62l37 92l-142 -39l-37 23v64l37 23l143 -40l-36 98v55l18 43h72l18 -43v-55l-36 -98l144 40l37 -23v-64l-37 -23l-143 39l37 -92v-62l-37 -92l143 39l37 -23v-64l-37 -23l-144 40l36 -98v-55l-18 -43
h-72z" />
    <glyph glyph-name="less.cap" horiz-adv-x="453" 
d="M385 0l-361 314v73l361 313h41v-66l-282 -282v-3l282 -286v-63h-41z" />
    <glyph glyph-name="greater.cap" horiz-adv-x="453" 
d="M26 0v64l283 283v2l-283 286v65h41l362 -314v-72l-362 -314h-41z" />
    <glyph glyph-name="guillemotleft.cap" horiz-adv-x="673" 
d="M340 0l-316 314v72l316 314h42v-66l-243 -281v-3l243 -287v-63h-42zM604 0l-315 314v72l315 314h43v-66l-243 -281v-3l243 -287v-63h-43z" />
    <glyph glyph-name="guillemotright.cap" horiz-adv-x="673" 
d="M333 700l316 -314v-72l-316 -314h-42v64l243 283v3l-243 284v66h42zM69 700l315 -314v-72l-315 -314h-43v64l243 283v3l-243 284v66h43z" />
    <glyph glyph-name="quotedblleft.cap" horiz-adv-x="1007" 
d="M276 -7c-132 0 -250 89 -250 279c0 252 163 411 450 428v-66c-191 -21 -267 -113 -267 -190c0 -44 25 -68 71 -78c32 -7 63 -8 93 -17c61 -18 112 -68 112 -164c0 -108 -80 -192 -209 -192zM773 -7c-132 0 -249 89 -249 279c0 252 162 411 450 428v-66
c-192 -21 -267 -113 -267 -190c0 -45 25 -67 71 -78c31 -7 62 -8 92 -17c61 -18 112 -68 112 -164c0 -108 -80 -192 -209 -192z" />
    <glyph glyph-name="quotedblright.cap" horiz-adv-x="1007" 
d="M732 707c132 0 250 -89 250 -279c0 -252 -163 -411 -450 -428v64c191 21 267 115 267 192c0 44 -25 68 -71 78c-32 7 -63 8 -93 17c-61 18 -112 68 -112 164c0 108 80 192 209 192zM235 707c132 0 249 -89 249 -279c0 -252 -162 -411 -450 -428v64
c192 21 267 115 267 192c0 45 -25 67 -71 78c-31 7 -62 8 -92 17c-61 18 -112 68 -112 164c0 108 80 192 209 192z" />
    <glyph glyph-name="quoteleft.cap" horiz-adv-x="510" 
d="M276 -7c-132 0 -250 89 -250 279c0 252 163 411 450 428v-66c-191 -21 -267 -113 -267 -190c0 -44 25 -68 71 -78c32 -7 63 -8 93 -17c61 -18 112 -68 112 -164c0 -108 -80 -192 -209 -192z" />
    <glyph glyph-name="quoteright.cap" horiz-adv-x="510" 
d="M235 707c132 0 249 -89 249 -279c0 -252 -162 -411 -450 -428v64c192 21 267 115 267 192c0 45 -25 67 -71 78c-31 7 -62 8 -92 17c-61 18 -112 68 -112 164c0 108 80 192 209 192z" />
    <glyph glyph-name="hyphen.cap" horiz-adv-x="271" 
d="M27 293v82h216v-82h-216z" />
    <glyph glyph-name="endash.cap" horiz-adv-x="407" 
d="M27 297v74h352v-74h-352z" />
    <glyph glyph-name="emdash.cap" horiz-adv-x="664" 
d="M27 297v74h609v-74h-609z" />
    <glyph glyph-name="questiondown.cap" horiz-adv-x="435" 
d="M305 520c12 -83 -2 -132 -70 -202c-35 -36 -94 -86 -94 -154c0 -60 32 -94 93 -94c59 0 97 21 111 76h66v-118c-51 -21 -99 -35 -181 -35c-127 0 -208 57 -208 173c0 86 50 130 112 181c70 58 107 95 100 173h71zM263 705c36 0 65 -28 65 -63s-29 -64 -65 -64
s-65 29 -65 64s29 63 65 63z" />
    <glyph glyph-name="exclamdown.cap" horiz-adv-x="184" 
d="M123 520l27 -454v-66h-117v66l27 454h63zM92 705c36 0 65 -28 65 -63s-29 -64 -65 -64s-65 29 -65 64s29 63 65 63z" />
    <glyph glyph-name="ampersand.alt" horiz-adv-x="697" 
d="M283 68c63 0 107 26 142 64l-203 215c-44 -25 -77 -68 -77 -140c0 -75 41 -139 138 -139zM554 158l62 -66c18 -20 31 -28 46 -28h19v-64h-131l-70 74c-51 -50 -118 -81 -209 -81c-161 0 -246 80 -246 200c0 107 66 168 152 205c-28 37 -47 75 -47 136
c0 104 78 173 197 173c53 0 88 -17 101 -23c7 0 12 6 14 16h73v-173h-79l-13 69c-20 17 -47 32 -87 32c-60 0 -92 -37 -92 -89c0 -51 31 -86 69 -126l178 -189c23 48 36 106 42 179h97v-55c-17 -67 -41 -134 -76 -190z" />
    <glyph glyph-name="zero.num" horiz-adv-x="383" 
d="M192 315c-93 0 -171 67 -171 196c0 127 79 194 171 194s170 -67 170 -194c0 -129 -77 -196 -170 -196zM192 372c49 0 81 41 81 136c0 96 -32 137 -81 137c-50 0 -81 -41 -81 -137c0 -95 31 -136 81 -136z" />
    <glyph glyph-name="one.num" horiz-adv-x="252" 
d="M15 320v48h52c9 0 18 12 18 20v239l-50 -28h-22v53l98 48h61v-312c0 -8 9 -20 18 -20h48v-48h-223z" />
    <glyph glyph-name="two.num" horiz-adv-x="312" 
d="M19 320v35c0 68 47 110 101 146c44 29 84 52 84 91c0 36 -21 54 -58 54c-32 0 -60 -10 -69 -46h-46v84c34 13 74 21 124 21c83 0 136 -37 136 -108c0 -68 -57 -100 -108 -129c-47 -27 -82 -50 -88 -86h131l6 43h53v-105h-266z" />
    <glyph glyph-name="three.num" horiz-adv-x="302" 
d="M130 315c-50 0 -86 9 -115 20v78h47c9 -30 27 -43 66 -43c42 0 69 21 69 62c0 39 -28 54 -70 54h-35v54h32c43 0 69 18 69 54c0 34 -19 53 -58 53c-34 0 -54 -9 -63 -40h-45v77c32 12 73 21 117 21c80 0 131 -32 131 -98c0 -52 -32 -80 -79 -90v-3c54 -8 86 -37 86 -88
c0 -70 -57 -111 -152 -111z" />
    <glyph glyph-name="four.num" horiz-adv-x="336" 
d="M144 320v48h30c7 0 18 12 18 20v31h-177v61l179 220h80v-230h47v-51h-47v-31c0 -8 10 -20 19 -20h28v-48h-177zM72 473v-3h121v150h-2z" />
    <glyph glyph-name="five.num" horiz-adv-x="304" 
d="M130 315c-51 0 -85 11 -114 23v74h47c7 -29 29 -42 64 -42c43 0 72 25 72 72c0 46 -28 66 -61 66s-53 -15 -64 -28h-49v220h241v-95h-52l-6 35h-123v-105h2c15 13 42 24 77 24c67 0 119 -33 119 -116c0 -80 -62 -128 -153 -128z" />
    <glyph glyph-name="six.num" horiz-adv-x="345" 
d="M182 315c-91 0 -161 57 -161 187s75 203 195 203c40 0 71 -6 89 -12v-66h-43c-7 10 -23 22 -52 22c-60 0 -98 -47 -102 -128c21 25 58 37 100 37c66 0 118 -34 118 -111c0 -79 -57 -132 -144 -132zM181 506c-32 0 -58 -13 -72 -28c3 -86 29 -111 70 -111s64 31 64 76
s-25 63 -62 63z" />
    <glyph glyph-name="seven.num" horiz-adv-x="302" 
d="M63 320v35l167 280v2h-157l-6 -54h-52v117h273v-69l-142 -311h-83z" />
    <glyph glyph-name="eight.num" horiz-adv-x="348" 
d="M173 315c-97 0 -152 45 -152 112c0 49 30 81 81 96v2c-41 10 -65 39 -65 80c0 61 57 100 136 100c80 0 137 -39 137 -100c0 -41 -23 -67 -64 -80v-2c51 -15 81 -47 81 -96c0 -67 -56 -112 -154 -112zM173 369c49 0 72 26 72 63c0 38 -23 66 -72 66c-48 0 -69 -28 -69 -66
c0 -37 21 -63 69 -63zM173 546c37 0 57 19 57 52s-20 52 -57 52c-36 0 -56 -19 -56 -52s20 -52 56 -52z" />
    <glyph glyph-name="nine.num" horiz-adv-x="345" 
d="M130 315c-42 0 -76 8 -96 15v64h44c9 -11 25 -23 57 -23c65 0 98 39 102 127c-22 -21 -57 -37 -98 -37c-67 0 -119 36 -119 114s58 130 145 130c92 0 160 -55 160 -185c0 -135 -69 -205 -195 -205zM166 512c31 0 56 14 71 29c-3 84 -29 112 -71 112
c-39 0 -63 -29 -63 -75c0 -47 26 -66 63 -66z" />
    <glyph glyph-name="zero.den" horiz-adv-x="383" 
d="M192 -5c-93 0 -171 67 -171 196c0 127 79 194 171 194s170 -67 170 -194c0 -129 -77 -196 -170 -196zM192 52c49 0 81 41 81 136c0 96 -32 137 -81 137c-50 0 -81 -41 -81 -137c0 -95 31 -136 81 -136z" />
    <glyph glyph-name="one.den" horiz-adv-x="252" 
d="M15 0v48h52c9 0 18 12 18 20v239l-50 -28h-22v53l98 48h61v-312c0 -8 9 -20 18 -20h48v-48h-223z" />
    <glyph glyph-name="two.den" horiz-adv-x="312" 
d="M19 0v35c0 68 47 110 101 146c44 29 84 52 84 91c0 36 -21 54 -58 54c-32 0 -60 -10 -69 -46h-46v84c34 13 74 21 124 21c83 0 136 -37 136 -108c0 -68 -57 -100 -108 -129c-47 -27 -82 -50 -88 -86h131l6 43h53v-105h-266z" />
    <glyph glyph-name="three.den" horiz-adv-x="302" 
d="M130 -5c-50 0 -86 9 -115 20v78h47c9 -30 27 -43 66 -43c42 0 69 21 69 62c0 39 -28 54 -70 54h-35v54h32c43 0 69 18 69 54c0 34 -19 53 -58 53c-34 0 -54 -9 -63 -40h-45v77c32 12 73 21 117 21c80 0 131 -32 131 -98c0 -52 -32 -80 -79 -90v-3c54 -8 86 -37 86 -88
c0 -70 -57 -111 -152 -111z" />
    <glyph glyph-name="four.den" horiz-adv-x="336" 
d="M144 0v48h30c7 0 18 12 18 20v31h-177v61l179 220h80v-230h47v-51h-47v-31c0 -8 10 -20 19 -20h28v-48h-177zM72 153v-3h121v150h-2z" />
    <glyph glyph-name="five.den" horiz-adv-x="304" 
d="M130 -5c-51 0 -85 11 -114 23v74h47c7 -29 29 -42 64 -42c43 0 72 25 72 72c0 46 -28 66 -61 66s-53 -15 -64 -28h-49v220h241v-95h-52l-6 35h-123v-105h2c15 13 42 24 77 24c67 0 119 -33 119 -116c0 -80 -62 -128 -153 -128z" />
    <glyph glyph-name="six.den" horiz-adv-x="345" 
d="M182 -5c-91 0 -161 57 -161 187s75 203 195 203c40 0 71 -6 89 -12v-66h-43c-7 10 -23 22 -52 22c-60 0 -98 -47 -102 -128c21 25 58 37 100 37c66 0 118 -34 118 -111c0 -79 -57 -132 -144 -132zM181 186c-32 0 -58 -13 -72 -28c3 -86 29 -111 70 -111s64 31 64 76
s-25 63 -62 63z" />
    <glyph glyph-name="seven.den" horiz-adv-x="302" 
d="M63 0v35l167 280v2h-157l-6 -54h-52v117h273v-69l-142 -311h-83z" />
    <glyph glyph-name="eight.den" horiz-adv-x="348" 
d="M173 -5c-97 0 -152 45 -152 112c0 49 30 81 81 96v2c-41 10 -65 39 -65 80c0 61 57 100 136 100c80 0 137 -39 137 -100c0 -41 -23 -67 -64 -80v-2c51 -15 81 -47 81 -96c0 -67 -56 -112 -154 -112zM173 49c49 0 72 26 72 63c0 38 -23 66 -72 66c-48 0 -69 -28 -69 -66
c0 -37 21 -63 69 -63zM173 226c37 0 57 19 57 52s-20 52 -57 52c-36 0 -56 -19 -56 -52s20 -52 56 -52z" />
    <glyph glyph-name="nine.den" horiz-adv-x="345" 
d="M130 -5c-42 0 -76 8 -96 15v64h44c9 -11 25 -23 57 -23c65 0 98 39 102 127c-22 -21 -57 -37 -98 -37c-67 0 -119 36 -119 114s58 130 145 130c92 0 160 -55 160 -185c0 -135 -69 -205 -195 -205zM166 192c31 0 56 14 71 29c-3 84 -29 112 -71 112c-39 0 -63 -29 -63 -75
c0 -47 26 -66 63 -66z" />
    <glyph glyph-name="dollar.tab" 
d="M64 25v145h68c8 -72 43 -95 131 -103v247c-120 32 -195 75 -195 200c0 107 69 179 195 190v60h64v-58c72 -3 130 -15 178 -32v-136h-67c-11 64 -37 86 -111 95v-231c129 -36 205 -73 205 -198c0 -124 -74 -197 -205 -208v-98h-64v96c-77 2 -141 14 -199 31zM428 188
c0 61 -38 86 -101 107v-225c66 11 101 53 101 118zM165 528c0 -60 31 -85 98 -107v211c-68 -11 -98 -50 -98 -104z" />
    <glyph glyph-name="Euro.tab" 
d="M32 251v63h54c-1 12 -1 23 -1 35c0 5 0 19 1 31h-54v63h60c28 171 136 264 283 264c84 0 139 -12 186 -35v-140h-68c-11 73 -39 97 -117 97c-93 0 -150 -57 -167 -186h212l-14 -63h-203v-66h191l-14 -63h-173c16 -120 62 -182 167 -182c67 0 104 29 132 67h61v-83
c-55 -37 -111 -60 -196 -60c-152 0 -253 85 -280 258h-60z" />
    <glyph glyph-name="sterling.tab" 
d="M67 313v72h53c-11 45 -19 89 -19 126c0 128 96 196 229 196c81 0 134 -14 192 -38v-133h-67c-13 70 -48 93 -122 93c-75 0 -113 -40 -113 -115c0 -34 6 -79 14 -129h176v-72h-166c6 -41 11 -81 11 -119c0 -31 -6 -58 -16 -81c61 -18 137 -25 209 -25l9 92h76v-180h-46
c-125 0 -221 14 -293 46c-23 -21 -50 -36 -78 -46h-55v64c58 12 96 49 96 120c0 40 -9 84 -19 129h-71z" />
    <glyph glyph-name="yen.tab" 
d="M63 310v63h148l-129 231c-10 18 -26 30 -44 30h-13v66h237v-66h-72l125 -237h2l89 171c23 44 8 66 -32 66h-22v66h222v-66h-19c-18 0 -34 -13 -44 -32l-127 -229h152v-63h-178v-60h178v-63h-178v-91c0 -14 14 -32 31 -32h48v-64h-274v64h48c16 0 31 18 31 32v91h-179v63
h179v60h-179z" />
    <glyph glyph-name="zero.tab" 
d="M300 -7c-138 0 -260 108 -260 357s122 357 260 357c139 0 260 -108 260 -357s-121 -357 -260 -357zM300 69c87 0 139 78 139 279s-52 280 -139 280s-139 -79 -139 -280s52 -279 139 -279z" />
    <glyph glyph-name="one.tab" 
d="M116 0v64h109c15 0 30 18 30 32v496l-114 -57h-29v63l181 102h78v-604c0 -14 14 -32 30 -32h109v-64h-394z" />
    <glyph glyph-name="two.tab" 
d="M63 0v53c0 132 92 203 193 272c92 63 159 105 159 188c0 72 -36 116 -117 116c-79 0 -122 -26 -135 -93h-68v133c60 23 129 38 207 38c148 0 233 -64 233 -193c0 -126 -105 -186 -209 -249c-82 -49 -157 -104 -162 -179h273l10 93h76v-179h-460z" />
    <glyph glyph-name="three.tab" 
d="M266 -7c-87 0 -149 16 -200 36v122h67c12 -57 58 -82 132 -82c90 0 143 46 143 132s-54 119 -142 119h-57v77h49c91 0 143 37 143 118c0 74 -35 114 -118 114c-68 0 -115 -21 -128 -78h-65v119c59 22 124 37 201 37c142 0 224 -57 224 -180c0 -94 -56 -144 -142 -163v-3
c102 -17 154 -72 154 -166c1 -130 -101 -202 -261 -202z" />
    <glyph glyph-name="four.tab" 
d="M318 64c14 0 30 18 30 32v77h-296v91l303 436h106v-452h80v-75h-80v-77c0 -14 15 -32 31 -32h49v-64h-274v64h51zM129 252v-4h219v322h-3z" />
    <glyph glyph-name="five.tab" 
d="M266 -7c-89 0 -148 18 -200 41v118h67c13 -60 54 -83 131 -83c87 0 148 50 148 153c0 101 -59 140 -129 140c-69 0 -106 -28 -129 -55h-71v393h420v-154h-75l-10 68h-250v-218h3c25 21 72 44 143 44c117 0 216 -64 216 -214c0 -148 -107 -233 -264 -233z" />
    <glyph glyph-name="six.tab" 
d="M312 -7c-148 0 -264 108 -264 342c0 239 133 372 326 372c68 0 111 -9 145 -20v-93h-64c-15 16 -36 35 -88 35c-149 0 -197 -132 -199 -268c40 42 102 76 179 76c116 0 209 -68 209 -208c0 -141 -98 -236 -244 -236zM312 68c90 0 127 64 127 157s-47 134 -122 134
c-66 0 -116 -30 -149 -65c6 -159 55 -226 144 -226z" />
    <glyph glyph-name="seven.tab" 
d="M458 610v3h-315l-9 -103h-76v190h484v-96l-286 -604h-110v47z" />
    <glyph glyph-name="eight.tab" 
d="M412 376v-3c93 -25 144 -87 144 -177c0 -123 -93 -203 -256 -203s-256 80 -256 203c0 90 51 150 144 177v3c-72 23 -113 73 -113 149c0 111 93 182 225 182s224 -71 224 -182c0 -76 -40 -126 -112 -149zM300 68c93 0 139 56 139 133c0 78 -46 136 -139 136
c-94 0 -139 -58 -139 -136c0 -77 45 -133 139 -133zM300 410c70 0 112 38 112 109s-42 111 -112 111c-71 0 -113 -40 -113 -111s42 -109 113 -109z" />
    <glyph glyph-name="nine.tab" 
d="M289 707c149 0 263 -108 263 -342c0 -242 -125 -372 -319 -372c-74 0 -119 10 -161 26v95h64c22 -25 40 -45 103 -45c148 0 192 131 193 270c-40 -42 -101 -76 -178 -76c-116 0 -209 68 -209 208c0 141 98 236 244 236zM289 629c-90 0 -127 -61 -127 -154
s47 -134 122 -134c66 0 115 30 148 65c-6 159 -54 223 -143 223z" />
    <glyph glyph-name="plus.tab" 
d="M257 115v190h-180v81h180v190h87v-190h179v-81h-179v-190h-87z" />
    <glyph glyph-name="minus.tab" 
d="M77 305v81h446v-81h-446z" />
    <glyph glyph-name="multiply.tab" 
d="M151 131l-57 58l149 150l-149 150l57 57l149 -150l150 150l56 -57l-150 -150l150 -150l-56 -58l-150 151z" />
    <glyph glyph-name="divide.tab" 
d="M301 117c-37 0 -64 27 -64 62s27 63 64 63c35 0 63 -28 63 -63s-28 -62 -63 -62zM301 449c-37 0 -64 27 -64 62s27 63 64 63c35 0 63 -28 63 -63s-28 -62 -63 -62zM77 305v81h446v-81h-446z" />
    <glyph glyph-name="less.tab" 
d="M94 293v73l381 195h27v-80l-298 -149v-2l298 -151v-81h-27z" />
    <glyph glyph-name="equal.tab" 
d="M83 178v81h435v-81h-435zM83 370v81h435v-81h-435z" />
    <glyph glyph-name="greater.tab" 
d="M506 366v-73l-380 -195h-28v80l299 148v3l-299 150v82h28z" />
    <glyph glyph-name="comma.tab" horiz-adv-x="300" 
d="M80 -53c36 7 56 23 56 43c0 16 -13 18 -26 27c-16 11 -25 25 -25 49c0 32 27 56 62 56c37 0 70 -25 70 -79c0 -90 -47 -135 -137 -146v50z" />
    <glyph glyph-name="period.tab" horiz-adv-x="300" 
d="M150 -5c-37 0 -65 28 -65 63s28 64 65 64c36 0 65 -29 65 -64s-29 -63 -65 -63z" />
    <glyph glyph-name="colon.tab" horiz-adv-x="300" 
d="M150 293c-37 0 -65 27 -65 62c0 36 28 64 65 64c36 0 65 -28 65 -64c0 -35 -29 -62 -65 -62zM150 -5c-37 0 -65 28 -65 63s28 64 65 64c36 0 65 -29 65 -64s-29 -63 -65 -63z" />
    <glyph glyph-name="semicolon.tab" horiz-adv-x="300" 
d="M79 -53c36 7 56 23 56 43c0 16 -13 18 -27 27c-15 11 -25 25 -25 49c0 32 28 56 63 56c36 0 69 -25 69 -79c0 -90 -46 -135 -136 -146v50zM150 293c-37 0 -65 27 -65 62c0 36 28 64 65 64c36 0 65 -28 65 -64c0 -35 -29 -62 -65 -62z" />
    <glyph glyph-name="percent.tab" horiz-adv-x="800" 
d="M205 405c44 0 72 38 72 119s-28 120 -72 120c-45 0 -73 -39 -73 -120s28 -119 73 -119zM205 343c-88 0 -165 60 -165 182s77 182 165 182c87 0 164 -60 164 -182s-77 -182 -164 -182zM114 -34l493 763h80l-493 -763h-80zM596 55c44 0 72 38 72 119s-28 120 -72 120
c-45 0 -73 -39 -73 -120s28 -119 73 -119zM596 -7c-88 0 -165 60 -165 182s77 182 165 182c87 0 164 -60 164 -182s-77 -182 -164 -182z" />
    <glyph glyph-name="perthousand.tab" horiz-adv-x="1200" 
d="M205 405c44 0 72 38 72 119s-28 120 -72 120c-45 0 -73 -39 -73 -120s28 -119 73 -119zM205 343c-88 0 -165 60 -165 182s77 182 165 182c87 0 164 -60 164 -182s-77 -182 -164 -182zM124 -34l493 763h80l-493 -763h-80zM616 55c44 0 72 38 72 119s-28 120 -72 120
c-45 0 -73 -39 -73 -120s28 -119 73 -119zM616 -7c-88 0 -165 60 -165 182s77 182 165 182c87 0 164 -60 164 -182s-77 -182 -164 -182zM996 55c44 0 72 38 72 119s-28 120 -72 120c-45 0 -73 -39 -73 -120s28 -119 73 -119zM996 -7c-88 0 -165 60 -165 182s77 182 165 182
c87 0 164 -60 164 -182s-77 -182 -164 -182z" />
    <glyph glyph-name="cent.tab" 
d="M300 587h64v-57c70 -2 116 -14 148 -28v-111h-65c-9 43 -35 61 -83 66v-391c53 8 83 36 102 61h51v-79c-31 -23 -81 -48 -153 -52v-98h-64v97c-153 11 -232 110 -232 266c0 154 91 253 232 267v59zM181 260c0 -117 38 -180 119 -194v389c-76 -15 -119 -80 -119 -195z" />
    <glyph glyph-name="florin.tab" 
d="M143 363v74h80l16 133c11 94 64 138 156 138c38 0 67 -7 84 -14v-60h-53c-43 0 -70 -17 -76 -68l-15 -129h103v-74h-112l-38 -316c-9 -69 -44 -119 -109 -142h-53v63c26 13 46 30 53 86l36 309h-72z" />
    <glyph glyph-name="space.tab" horiz-adv-x="300" 
 />
    <glyph glyph-name="uni0237" unicode="&#x237;" horiz-adv-x="255" 
d="M49 -168c-34 0 -56 4 -76 11v55h36c53 0 71 23 71 72v458c0 12 -13 28 -26 28h-44v68h158c14 0 20 -12 20 -46v-513c0 -97 -50 -133 -139 -133z" />
    <glyph glyph-name="Amacron" unicode="&#x100;" horiz-adv-x="721" 
d="M535 64l-53 157h-274l-27 -77c-18 -50 -12 -80 32 -80h47v-64h-249v64h25c20 0 35 14 43 34l181 502c7 20 -3 34 -21 34h-54v66h253l205 -603c6 -18 23 -33 40 -33h27v-64h-273v64h98zM348 614l-115 -325h227l-108 325h-4zM468 836v-72h-252v72h252z" />
    <glyph glyph-name="amacron" unicode="&#x101;" horiz-adv-x="526" 
d="M188 -6c-100 0 -170 52 -170 156c0 108 86 159 207 159c47 0 83 -5 120 -14v69c0 67 -39 91 -106 91c-69 0 -108 -24 -136 -49h-50v83c45 22 109 41 205 41c123 0 195 -39 195 -155v-279c0 -20 13 -32 32 -32h27v-54c-14 -9 -39 -16 -69 -16c-57 0 -87 23 -95 71
c-39 -48 -90 -71 -160 -71zM222 63c55 0 91 24 123 58v114c-30 6 -63 10 -98 10c-76 0 -122 -27 -122 -92c0 -64 36 -90 97 -90zM373 667v-72h-252v72h252z" />
    <glyph glyph-name="Abreve" unicode="&#x102;" horiz-adv-x="721" 
d="M535 64l-53 157h-274l-27 -77c-18 -50 -12 -80 32 -80h47v-64h-249v64h25c20 0 35 14 43 34l181 502c7 20 -3 34 -21 34h-54v66h253l205 -603c6 -18 23 -33 40 -33h27v-64h-273v64h98zM348 614l-115 -325h227l-108 325h-4zM342 737c-73 0 -112 44 -127 88v38h64
c6 -34 28 -54 63 -54c36 0 57 20 63 54h64v-38c-15 -44 -54 -88 -127 -88z" />
    <glyph glyph-name="abreve" unicode="&#x103;" horiz-adv-x="526" 
d="M188 -6c-100 0 -170 52 -170 156c0 108 86 159 207 159c47 0 83 -5 120 -14v69c0 67 -39 91 -106 91c-69 0 -108 -24 -136 -49h-50v83c45 22 109 41 205 41c123 0 195 -39 195 -155v-279c0 -20 13 -32 32 -32h27v-54c-14 -9 -39 -16 -69 -16c-57 0 -87 23 -95 71
c-39 -48 -90 -71 -160 -71zM222 63c55 0 91 24 123 58v114c-30 6 -63 10 -98 10c-76 0 -122 -27 -122 -92c0 -64 36 -90 97 -90zM247 568c-73 0 -112 44 -127 88v38h64c6 -34 28 -54 63 -54c36 0 57 20 63 54h64v-38c-15 -44 -54 -88 -127 -88z" />
    <glyph glyph-name="Aogonek" unicode="&#x104;" horiz-adv-x="721" 
d="M632 -165c-57 0 -92 28 -92 72c0 46 39 77 70 93h-173v64h98l-53 157h-274l-27 -77c-18 -50 -12 -80 32 -80h47v-64h-249v64h25c20 0 35 14 43 34l181 502c7 20 -3 34 -21 34h-54v66h253l205 -603c6 -18 23 -33 40 -33h27v-64h-36c-27 -22 -48 -42 -48 -70
c0 -20 10 -32 39 -32h31v-48c-18 -9 -36 -15 -64 -15zM348 614l-115 -325h227l-108 325h-4z" />
    <glyph glyph-name="aogonek" unicode="&#x105;" horiz-adv-x="526" 
d="M448 -165c-57 0 -92 28 -92 72c0 42 32 72 61 89c-40 5 -63 28 -69 69c-39 -48 -90 -71 -160 -71c-100 0 -170 52 -170 156c0 108 86 159 207 159c47 0 83 -5 120 -14v69c0 67 -39 91 -106 91c-69 0 -108 -24 -136 -49h-50v83c45 22 109 41 205 41
c123 0 195 -39 195 -155v-279c0 -20 13 -32 32 -32h27v-54c-26 -14 -70 -42 -70 -80c0 -20 10 -32 39 -32h31v-48c-18 -9 -36 -15 -64 -15zM222 63c55 0 91 24 123 58v114c-30 6 -63 10 -98 10c-76 0 -124 -27 -124 -92c0 -64 38 -90 99 -90z" />
    <glyph glyph-name="Cacute" unicode="&#x106;" horiz-adv-x="630" 
d="M319 740l46 133h108v-39l-94 -94h-60zM359 -7c-202 0 -333 125 -333 357s141 357 339 357c82 0 120 -17 140 -26c8 0 15 8 16 19h73v-214h-79l-12 99c-29 24 -72 44 -135 44c-125 0 -220 -83 -220 -275c0 -189 79 -285 215 -285c92 0 150 37 188 89h55v-82
c-57 -48 -135 -83 -247 -83z" />
    <glyph glyph-name="cacute" unicode="&#x107;" horiz-adv-x="506" 
d="M236 567l46 133h108v-39l-94 -94h-60zM285 -6c-175 0 -264 101 -264 267c0 168 107 269 270 269c86 0 140 -13 174 -28v-110h-69c-9 52 -46 68 -107 68c-96 0 -155 -66 -155 -200c0 -133 50 -196 153 -196c73 0 107 31 128 60h55v-78c-35 -25 -95 -52 -185 -52z" />
    <glyph glyph-name="Ccircumflex" unicode="&#x108;" horiz-adv-x="630" 
d="M231 740v29l75 104h95l73 -104v-29h-44l-79 69l-78 -69h-42zM359 -7c-202 0 -333 125 -333 357s141 357 339 357c82 0 120 -17 140 -26c8 0 15 8 16 19h73v-214h-79l-12 99c-29 24 -72 44 -135 44c-125 0 -220 -83 -220 -275c0 -189 79 -285 215 -285c92 0 150 37 188 89
h55v-82c-57 -48 -135 -83 -247 -83z" />
    <glyph glyph-name="ccircumflex" unicode="&#x109;" horiz-adv-x="506" 
d="M151 567v29l75 104h95l73 -104v-29h-44l-79 69l-78 -69h-42zM285 -6c-175 0 -264 101 -264 267c0 168 107 269 270 269c86 0 140 -13 174 -28v-110h-69c-9 52 -46 68 -107 68c-96 0 -155 -66 -155 -200c0 -133 50 -196 153 -196c73 0 107 31 128 60h55v-78
c-35 -25 -95 -52 -185 -52z" />
    <glyph glyph-name="Cdotaccent" unicode="&#x10a;" horiz-adv-x="630" 
d="M359 -7c-202 0 -333 125 -333 357s141 357 339 357c82 0 120 -17 140 -26c8 0 15 8 16 19h73v-214h-79l-12 99c-29 24 -72 44 -135 44c-125 0 -220 -83 -220 -275c0 -189 79 -285 215 -285c92 0 150 37 188 89h55v-82c-57 -48 -135 -83 -247 -83zM355 752
c-35 0 -62 27 -62 61s27 61 62 61s62 -27 62 -61s-27 -61 -62 -61z" />
    <glyph glyph-name="cdotaccent" unicode="&#x10b;" horiz-adv-x="506" 
d="M285 -6c-175 0 -264 101 -264 267c0 168 107 269 270 269c86 0 140 -13 174 -28v-110h-69c-9 52 -46 68 -107 68c-96 0 -155 -66 -155 -200c0 -133 50 -196 153 -196c73 0 107 31 128 60h55v-78c-35 -25 -95 -52 -185 -52zM273 579c-35 0 -62 27 -62 61s27 61 62 61
s62 -27 62 -61s-27 -61 -62 -61z" />
    <glyph glyph-name="Ccaron" unicode="&#x10c;" horiz-adv-x="630" 
d="M478 873v-30l-76 -103h-94l-73 103v30h44l78 -69l79 69h42zM359 -7c-202 0 -333 125 -333 357s141 357 339 357c82 0 120 -17 140 -26c8 0 15 8 16 19h73v-214h-79l-12 99c-29 24 -72 44 -135 44c-125 0 -220 -83 -220 -275c0 -189 79 -285 215 -285c92 0 150 37 188 89
h55v-82c-57 -48 -135 -83 -247 -83z" />
    <glyph glyph-name="ccaron" unicode="&#x10d;" horiz-adv-x="506" 
d="M395 700v-30l-76 -103h-94l-73 103v30h44l78 -69l79 69h42zM285 -6c-175 0 -264 101 -264 267c0 168 107 269 270 269c86 0 140 -13 174 -28v-110h-69c-9 52 -46 68 -107 68c-96 0 -155 -66 -155 -200c0 -133 50 -196 153 -196c73 0 107 31 128 60h55v-78
c-35 -25 -95 -52 -185 -52z" />
    <glyph glyph-name="Dcaron" unicode="&#x10e;" horiz-adv-x="690" 
d="M418 869v-30l-76 -103h-94l-73 103v30h44l78 -69l79 69h42zM16 0v64h42c15 0 31 18 31 32v505c0 15 -16 33 -31 33h-42v66h283c233 0 364 -104 364 -348c0 -240 -132 -352 -368 -352h-279zM205 68h90c168 0 247 83 247 283c0 199 -78 278 -247 278h-90v-561z" />
    <glyph glyph-name="dcaron" unicode="&#x10f;" horiz-adv-x="601" 
d="M547 562l11 138h88v-39l-41 -99h-58zM241 -6c-106 0 -218 61 -218 262c0 200 124 274 229 274c78 0 127 -28 161 -62v166h-76v66h164c14 0 20 -10 20 -27v-581c0 -13 14 -28 27 -28h39v-64h-151c-12 0 -20 15 -21 72c-37 -43 -94 -78 -174 -78zM272 61
c63 0 106 32 141 70v279c-33 26 -72 44 -126 44c-77 0 -154 -42 -154 -195c0 -160 72 -198 139 -198z" />
    <glyph glyph-name="Dcroat" unicode="&#x110;" horiz-adv-x="690" 
d="M16 0v64h42c15 0 31 18 31 32v217h-72v67h72v221c0 15 -16 33 -31 33h-42v66h283c233 0 364 -104 364 -348c0 -240 -132 -352 -368 -352h-279zM205 68h90c168 0 250 83 250 283c0 199 -81 278 -250 278h-90v-249h168v-67h-168v-245z" />
    <glyph glyph-name="dcroat" unicode="&#x111;" horiz-adv-x="601" 
d="M241 -6c-106 0 -218 61 -218 262c0 200 124 274 229 274c78 0 127 -28 161 -62v104h-141v57h141v71h88c14 0 20 -10 20 -27v-44h66v-57h-66v-480c0 -13 14 -28 27 -28h39v-64h-151c-12 0 -20 15 -21 72c-37 -43 -94 -78 -174 -78zM272 61c63 0 106 32 141 70v279
c-33 26 -72 44 -126 44c-77 0 -154 -42 -154 -195c0 -160 72 -198 139 -198z" />
    <glyph glyph-name="Emacron" unicode="&#x112;" horiz-adv-x="588" 
d="M16 0v64h42c15 0 31 18 31 32v505c0 15 -16 33 -31 33h-42v66h541v-186h-73l-12 115h-269v-237h137l8 83h70v-235h-70l-8 83h-137v-253h278l12 128h75v-198h-552zM429 836v-72h-252v72h252z" />
    <glyph glyph-name="emacron" unicode="&#x113;" horiz-adv-x="528" 
d="M287 -6c-176 0 -266 102 -266 266c0 166 103 270 255 270c147 0 232 -77 232 -252c0 -15 -1 -29 -1 -33h-373c4 -122 57 -182 161 -182c74 0 108 26 135 59h62v-74c-41 -27 -100 -54 -205 -54zM136 310h263c-4 111 -47 153 -123 153c-79 0 -130 -50 -140 -153zM397 667
v-72h-252v72h252z" />
    <glyph glyph-name="Edotaccent" unicode="&#x116;" horiz-adv-x="588" 
d="M16 0v64h42c15 0 31 18 31 32v505c0 15 -16 33 -31 33h-42v66h541v-186h-73l-12 115h-269v-237h137l8 83h70v-235h-70l-8 83h-137v-253h278l12 128h75v-198h-552zM304 748c-35 0 -62 27 -62 61s27 61 62 61s62 -27 62 -61s-27 -61 -62 -61z" />
    <glyph glyph-name="edotaccent" unicode="&#x117;" horiz-adv-x="528" 
d="M287 -6c-176 0 -266 102 -266 266c0 166 103 270 255 270c147 0 232 -77 232 -252c0 -15 -1 -29 -1 -33h-373c4 -122 57 -182 161 -182c74 0 108 26 135 59h62v-74c-41 -27 -100 -54 -205 -54zM136 310h263c-4 111 -47 153 -123 153c-79 0 -130 -50 -140 -153zM271 579
c-35 0 -62 27 -62 61s27 61 62 61s62 -27 62 -61s-27 -61 -62 -61z" />
    <glyph glyph-name="Eogonek" unicode="&#x118;" horiz-adv-x="588" 
d="M16 0v64h42c15 0 31 18 31 32v505c0 15 -16 33 -31 33h-42v66h541v-186h-73l-12 115h-269v-237h137l8 83h70v-235h-70l-8 83h-137v-253h278l12 128h75v-198h-38c-27 -22 -48 -42 -48 -70c0 -20 10 -32 39 -32h31v-48c-18 -9 -36 -15 -64 -15c-57 0 -92 28 -92 72
c0 46 39 77 70 93h-450z" />
    <glyph glyph-name="eogonek" unicode="&#x119;" horiz-adv-x="528" 
d="M389 -165c-57 0 -92 28 -92 72c0 46 40 76 70 95c-25 -6 -50 -8 -80 -8c-176 0 -266 102 -266 266c0 166 103 270 255 270c147 0 232 -77 232 -252c0 -15 -1 -29 -1 -33h-375c4 -122 59 -182 163 -182c74 0 108 26 135 59h62v-74c-42 -27 -109 -80 -109 -118
c0 -20 10 -32 39 -32h31v-48c-18 -9 -36 -15 -64 -15zM134 310h266c-4 111 -48 153 -124 153c-79 0 -132 -50 -142 -153z" />
    <glyph glyph-name="Ecaron" unicode="&#x11a;" horiz-adv-x="588" 
d="M427 869v-30l-76 -103h-94l-73 103v30h44l78 -69l79 69h42zM16 0v64h42c15 0 31 18 31 32v505c0 15 -16 33 -31 33h-42v66h541v-186h-73l-12 115h-269v-237h137l8 83h70v-235h-70l-8 83h-137v-253h278l12 128h75v-198h-552z" />
    <glyph glyph-name="ecaron" unicode="&#x11b;" horiz-adv-x="528" 
d="M393 700v-30l-76 -103h-94l-73 103v30h44l78 -69l79 69h42zM287 -6c-176 0 -266 102 -266 266c0 166 103 270 255 270c147 0 232 -77 232 -252c0 -15 -1 -29 -1 -33h-373c4 -122 57 -182 161 -182c74 0 108 26 135 59h62v-74c-41 -27 -100 -54 -205 -54zM136 310h263
c-4 111 -47 153 -123 153c-79 0 -130 -50 -140 -153z" />
    <glyph glyph-name="Ebreve" unicode="&#x114;" horiz-adv-x="588" 
d="M16 0v64h42c15 0 31 18 31 32v505c0 15 -16 33 -31 33h-42v66h541v-186h-73l-12 115h-269v-237h137l8 83h70v-235h-70l-8 83h-137v-253h278l12 128h75v-198h-552zM308 741c-73 0 -112 44 -127 88v38h64c6 -34 28 -54 63 -54c36 0 57 20 63 54h64v-38
c-15 -44 -54 -88 -127 -88z" />
    <glyph glyph-name="ebreve" unicode="&#x115;" horiz-adv-x="528" 
d="M287 -6c-176 0 -266 102 -266 266c0 166 103 270 255 270c147 0 232 -77 232 -252c0 -15 -1 -29 -1 -33h-373c4 -122 57 -182 161 -182c74 0 108 26 135 59h62v-74c-41 -27 -100 -54 -205 -54zM136 310h263c-4 111 -47 153 -123 153c-79 0 -130 -50 -140 -153zM271 568
c-73 0 -112 44 -127 88v38h64c6 -34 28 -54 63 -54c36 0 57 20 63 54h64v-38c-15 -44 -54 -88 -127 -88z" />
    <glyph glyph-name="Gcircumflex" unicode="&#x11c;" horiz-adv-x="672" 
d="M238 740v29l75 104h95l73 -104v-29h-44l-79 69l-78 -69h-42zM349 -7c-199 0 -323 125 -323 357s140 357 340 357c75 0 113 -17 136 -26c6 0 14 5 16 19h73v-208h-79l-12 89c-32 25 -74 48 -133 48c-124 0 -219 -83 -219 -275c0 -189 73 -285 206 -285c63 0 99 14 130 31
v159h-83v66h257v-66h-29c-16 0 -31 -18 -31 -32v-227h-64c0 11 -8 29 -25 29c-31 -13 -78 -36 -160 -36z" />
    <glyph glyph-name="gcircumflex" unicode="&#x11d;" horiz-adv-x="506" 
d="M128 567v29l75 104h95l73 -104v-29h-44l-79 69l-78 -69h-42zM224 -172c-160 0 -221 52 -221 124c0 61 43 94 91 118c-23 12 -41 36 -41 71c0 42 22 72 53 97c-38 28 -61 71 -61 124c0 99 76 168 200 168c23 0 45 -2 65 -6h180v-68h-45c-10 0 -22 -8 -22 -18
c15 -21 23 -47 23 -76c0 -97 -77 -162 -201 -162c-39 0 -70 6 -97 17c-9 -13 -14 -28 -14 -44c0 -26 17 -37 49 -37h147c104 0 159 -41 159 -130c0 -103 -72 -178 -265 -178zM229 -103c110 0 158 37 158 86c0 41 -23 59 -81 59h-170c-22 -18 -35 -38 -35 -68
c0 -47 28 -77 128 -77zM245 263c65 0 101 38 101 99c0 62 -36 101 -101 101c-64 0 -100 -39 -100 -101c0 -61 36 -99 100 -99z" />
    <glyph glyph-name="Gbreve" unicode="&#x11e;" horiz-adv-x="672" 
d="M349 -7c-199 0 -323 125 -323 357s140 357 340 357c75 0 113 -17 136 -26c6 0 14 5 16 19h73v-208h-79l-12 89c-32 25 -74 48 -133 48c-124 0 -219 -83 -219 -275c0 -189 73 -285 206 -285c63 0 99 14 130 31v159h-83v66h257v-66h-29c-16 0 -31 -18 -31 -32v-227h-64
c0 11 -8 29 -25 29c-31 -13 -78 -36 -160 -36zM359 741c-73 0 -112 44 -127 88v38h64c6 -34 28 -54 63 -54c36 0 57 20 63 54h64v-38c-15 -44 -54 -88 -127 -88z" />
    <glyph glyph-name="gbreve" unicode="&#x11f;" horiz-adv-x="506" 
d="M224 -172c-160 0 -221 52 -221 124c0 61 43 94 91 118c-23 12 -41 36 -41 71c0 42 22 72 53 97c-38 28 -61 71 -61 124c0 99 76 168 200 168c23 0 45 -2 65 -6h180v-68h-45c-10 0 -22 -8 -22 -18c15 -21 23 -47 23 -76c0 -97 -77 -162 -201 -162c-39 0 -70 6 -97 17
c-9 -13 -14 -28 -14 -44c0 -26 17 -37 49 -37h147c104 0 159 -41 159 -130c0 -103 -72 -178 -265 -178zM229 -103c110 0 158 37 158 86c0 41 -23 59 -81 59h-170c-22 -18 -35 -38 -35 -68c0 -47 28 -77 128 -77zM245 263c65 0 101 38 101 99c0 62 -36 101 -101 101
c-64 0 -100 -39 -100 -101c0 -61 36 -99 100 -99zM250 568c-73 0 -112 44 -127 88v38h64c6 -34 28 -54 63 -54c36 0 57 20 63 54h64v-38c-15 -44 -54 -88 -127 -88z" />
    <glyph glyph-name="Gdotaccent" unicode="&#x120;" horiz-adv-x="672" 
d="M349 -7c-199 0 -323 125 -323 357s140 357 340 357c75 0 113 -17 136 -26c6 0 14 5 16 19h73v-208h-79l-12 89c-32 25 -74 48 -133 48c-124 0 -219 -83 -219 -275c0 -189 73 -285 206 -285c63 0 99 14 130 31v159h-83v66h257v-66h-29c-16 0 -31 -18 -31 -32v-227h-64
c0 11 -8 29 -25 29c-31 -13 -78 -36 -160 -36zM360 752c-35 0 -62 27 -62 61s27 61 62 61s62 -27 62 -61s-27 -61 -62 -61z" />
    <glyph glyph-name="gdotaccent" unicode="&#x121;" horiz-adv-x="506" 
d="M224 -172c-160 0 -221 52 -221 124c0 61 43 94 91 118c-23 12 -41 36 -41 71c0 42 22 72 53 97c-38 28 -61 71 -61 124c0 99 76 168 200 168c23 0 45 -2 65 -6h180v-68h-45c-10 0 -22 -8 -22 -18c15 -21 23 -47 23 -76c0 -97 -77 -162 -201 -162c-39 0 -70 6 -97 17
c-9 -13 -14 -28 -14 -44c0 -26 17 -37 49 -37h147c104 0 159 -41 159 -130c0 -103 -72 -178 -265 -178zM229 -103c110 0 158 37 158 86c0 41 -23 59 -81 59h-170c-22 -18 -35 -38 -35 -68c0 -47 28 -77 128 -77zM245 263c65 0 101 38 101 99c0 62 -36 101 -101 101
c-64 0 -100 -39 -100 -101c0 -61 36 -99 100 -99zM250 579c-35 0 -62 27 -62 61s27 61 62 61s62 -27 62 -61s-27 -61 -62 -61z" />
    <glyph glyph-name="Gcommaaccent" unicode="&#x122;" horiz-adv-x="672" 
d="M285 -208v46c31 5 47 15 47 30c0 12 -12 16 -22 22c-14 8 -21 20 -21 40c0 26 23 45 53 45c34 0 61 -19 61 -65c0 -76 -41 -110 -118 -118zM349 -7c-199 0 -323 125 -323 357s140 357 340 357c75 0 113 -17 136 -26c6 0 14 5 16 19h73v-208h-79l-12 89
c-32 25 -74 48 -133 48c-124 0 -219 -83 -219 -275c0 -189 73 -285 206 -285c63 0 99 14 130 31v159h-83v66h257v-66h-29c-16 0 -31 -18 -31 -32v-227h-64c0 11 -8 29 -25 29c-31 -13 -78 -36 -160 -36z" />
    <glyph glyph-name="gcommaaccent" unicode="&#x123;" horiz-adv-x="506" 
d="M310 751v-46c-31 -5 -47 -15 -47 -30c0 -12 12 -16 22 -22c14 -8 21 -20 21 -40c0 -26 -23 -45 -53 -45c-34 0 -61 19 -61 65c0 76 41 110 118 118zM224 -172c-160 0 -221 52 -221 124c0 61 43 94 91 118c-23 12 -41 36 -41 71c0 42 22 72 53 97c-38 28 -61 71 -61 124
c0 99 76 168 200 168c23 0 45 -2 65 -6h180v-68h-45c-10 0 -22 -8 -22 -18c15 -21 23 -47 23 -76c0 -97 -77 -162 -201 -162c-39 0 -70 6 -97 17c-9 -13 -14 -28 -14 -44c0 -26 17 -37 49 -37h147c104 0 159 -41 159 -130c0 -103 -72 -178 -265 -178zM229 -101
c110 0 158 35 158 84c0 41 -23 59 -81 59h-170c-22 -18 -35 -38 -35 -68c0 -47 28 -75 128 -75zM245 263c65 0 102 38 102 99c0 62 -37 101 -102 101c-64 0 -101 -39 -101 -101c0 -61 37 -99 101 -99z" />
    <glyph glyph-name="Hcircumflex" unicode="&#x124;" horiz-adv-x="726" 
d="M242 736v29l75 104h95l73 -104v-29h-44l-79 69l-78 -69h-42zM16 0v64h42c15 0 31 18 31 32v505c0 15 -16 33 -31 33h-42v66h278v-66h-89v-241h315v241h-89v66h279v-66h-42c-16 0 -32 -18 -32 -33v-505c0 -14 16 -32 32 -32h42v-64h-279v64h89v261h-315v-261h89v-64h-278z
" />
    <glyph glyph-name="hcircumflex" unicode="&#x125;" horiz-adv-x="604" 
d="M182 721v29l75 104h95l73 -104v-29h-44l-79 69l-78 -69h-42zM188 395v-331h73v-64h-247v64h39c13 0 27 14 27 27v515c0 12 -14 28 -27 28h-42v66h157c13 0 20 -9 20 -27v-227c52 48 125 84 206 84c75 0 137 -27 137 -130v-309c0 -14 14 -27 26 -27h33v-64h-239v64h72v300
c0 65 -29 81 -82 81c-56 0 -108 -23 -153 -50z" />
    <glyph glyph-name="Hbar" unicode="&#x126;" horiz-adv-x="726" 
d="M13 483v55h76v63c0 15 -16 33 -31 33h-42v66h278v-66h-89v-96h315v96h-89v66h279v-66h-42c-16 0 -32 -18 -32 -33v-63h77v-55h-77v-387c0 -14 16 -32 32 -32h42v-64h-279v64h89v261h-315v-261h89v-64h-278v64h42c15 0 31 18 31 32v387h-76zM205 393h315v90h-315v-90z" />
    <glyph glyph-name="hbar" unicode="&#x127;" horiz-adv-x="604" 
d="M329 572h-141v-126c52 48 125 84 206 84c75 0 137 -27 137 -130v-309c0 -14 14 -27 26 -27h33v-64h-239v64h72v300c0 65 -29 81 -82 81c-56 0 -108 -23 -153 -50v-331h73v-64h-247v64h39c13 0 27 14 27 27v481h-67v57h67v71h88c13 0 20 -9 20 -27v-44h141v-57z" />
    <glyph glyph-name="Imacron" unicode="&#x12a;" horiz-adv-x="310" 
d="M16 0v64h50c16 0 31 18 31 32v505c0 15 -15 33 -31 33h-50v66h278v-66h-50c-16 0 -31 -18 -31 -33v-505c0 -14 15 -32 31 -32h50v-64h-278zM281 836v-72h-252v72h252z" />
    <glyph glyph-name="imacron" unicode="&#x12b;" horiz-adv-x="268" 
d="M14 0v64h39c13 0 27 14 27 27v337c0 12 -13 28 -26 28h-44v68h158c14 0 20 -12 20 -46v-387c0 -14 14 -27 27 -27h39v-64h-240zM226 667v-72h-222v72h222z" />
    <glyph glyph-name="Iogonek" unicode="&#x12e;" horiz-adv-x="310" 
d="M16 0v64h50c16 0 31 18 31 32v505c0 15 -15 33 -31 33h-50v66h278v-66h-50c-16 0 -31 -18 -31 -33v-505c0 -14 15 -32 31 -32h50v-64h-54c-27 -22 -48 -42 -48 -70c0 -20 10 -32 39 -32h31v-48c-18 -9 -36 -15 -64 -15c-57 0 -92 28 -92 72c0 46 39 77 70 93h-160z" />
    <glyph glyph-name="iogonek" unicode="&#x12f;" horiz-adv-x="268" 
d="M14 0v64h39c13 0 27 14 27 27v337c0 12 -13 28 -26 28h-44v68h158c14 0 20 -12 20 -46v-387c0 -14 14 -27 27 -27h39v-64h-39c-27 -22 -48 -42 -48 -70c0 -20 10 -32 39 -32h31v-48c-18 -9 -36 -15 -64 -15c-57 0 -92 28 -92 72c0 46 39 77 70 93h-137zM131 579
c-35 0 -62 27 -62 61s27 61 62 61c34 0 62 -27 62 -61s-28 -61 -62 -61z" />
    <glyph glyph-name="Idotaccent" unicode="&#x130;" horiz-adv-x="310" 
d="M16 0v64h50c16 0 31 18 31 32v505c0 15 -15 33 -31 33h-50v66h278v-66h-50c-16 0 -31 -18 -31 -33v-505c0 -14 15 -32 31 -32h50v-64h-278zM155 748c-35 0 -62 27 -62 61s27 61 62 61s62 -27 62 -61s-27 -61 -62 -61z" />
    <glyph glyph-name="idotaccent" horiz-adv-x="268" 
d="M14 0v64h39c13 0 27 14 27 27v337c0 12 -13 28 -26 28h-44v68h158c14 0 20 -12 20 -46v-387c0 -14 14 -27 27 -27h39v-64h-240zM131 579c-35 0 -62 27 -62 61s27 61 62 61c34 0 62 -27 62 -61s-28 -61 -62 -61z" />
    <glyph glyph-name="Jcircumflex" unicode="&#x134;" horiz-adv-x="476" 
d="M201 736v29l75 104h95l73 -104v-29h-44l-79 69l-78 -69h-42zM172 -7c-70 0 -117 16 -158 36v84h64c17 -24 43 -44 92 -44c67 0 95 35 95 100v432c0 15 -14 33 -30 33h-48v66h273v-66h-48c-15 0 -30 -18 -30 -33v-434c0 -117 -66 -174 -210 -174z" />
    <glyph glyph-name="jcircumflex" unicode="&#x135;" horiz-adv-x="255" 
d="M49 -168c-34 0 -56 4 -76 11v55h36c53 0 71 23 71 72v458c0 12 -13 28 -26 28h-44v68h158c14 0 20 -12 20 -46v-513c0 -97 -50 -133 -139 -133zM4 567v29l75 104h95l73 -104v-29h-44l-79 69l-78 -69h-42z" />
    <glyph glyph-name="Kcommaaccent" unicode="&#x136;" horiz-adv-x="686" 
d="M310 -208v46c31 5 47 15 47 30c0 12 -12 16 -22 22c-14 8 -21 20 -21 40c0 26 23 45 53 45c34 0 61 -19 61 -65c0 -76 -41 -110 -118 -118zM16 0v64h42c15 0 31 18 31 32v505c0 15 -16 33 -31 33h-42v66h270v-66h-81v-309l241 255c31 32 23 54 -12 54h-18v66h244v-66h-29
c-17 0 -35 -13 -55 -33l-190 -190l212 -315c11 -17 27 -32 45 -32h27v-64h-182v60l-182 271l-101 -102v-165h81v-64h-270z" />
    <glyph glyph-name="kcommaaccent" unicode="&#x137;" horiz-adv-x="554" 
d="M257 -208v46c31 5 47 15 47 30c0 12 -12 16 -22 22c-14 8 -21 20 -21 40c0 26 23 45 53 45c34 0 61 -19 61 -65c0 -76 -41 -110 -118 -118zM14 0v64h39c13 0 27 14 27 27v515c0 12 -14 28 -27 28h-42v66h157c13 0 20 -9 20 -27v-423l166 169c15 16 9 37 -10 37h-24v68
h217v-68h-26c-13 0 -32 -9 -44 -21l-130 -130l146 -210c14 -20 30 -31 44 -31h15v-64h-120l-158 233l-76 -75v-94h66v-64h-240z" />
    <glyph glyph-name="Lacute" unicode="&#x139;" horiz-adv-x="567" 
d="M118 736l46 133h108v-39l-94 -94h-60zM16 0v64h42c15 0 31 18 31 32v505c0 15 -16 33 -31 33h-42v66h290v-66h-101v-564h255l11 147h79v-217h-534z" />
    <glyph glyph-name="lacute" unicode="&#x13a;" horiz-adv-x="268" 
d="M80 721l46 133h108v-39l-94 -94h-60zM14 0v64h38c14 0 28 14 28 27v515c0 12 -14 28 -28 28h-41v66h157c14 0 20 -9 20 -27v-582c0 -14 14 -27 27 -27h39v-64h-240z" />
    <glyph glyph-name="Lcommaaccent" unicode="&#x13b;" horiz-adv-x="567" 
d="M232 -208v46c31 5 47 15 47 30c0 12 -12 16 -22 22c-14 8 -21 20 -21 40c0 26 23 45 53 45c34 0 61 -19 61 -65c0 -76 -41 -110 -118 -118zM16 0v64h42c15 0 31 18 31 32v505c0 15 -16 33 -31 33h-42v66h290v-66h-101v-564h255l11 147h79v-217h-534z" />
    <glyph glyph-name="lcommaaccent" unicode="&#x13c;" horiz-adv-x="268" 
d="M76 -208v46c31 5 47 15 47 30c0 12 -12 16 -22 22c-14 8 -21 20 -21 40c0 26 23 45 53 45c34 0 61 -19 61 -65c0 -76 -41 -110 -118 -118zM14 0v64h38c14 0 28 14 28 27v515c0 12 -14 28 -28 28h-41v66h157c14 0 20 -9 20 -27v-582c0 -14 14 -27 27 -27h39v-64h-240z" />
    <glyph glyph-name="Lcaron" unicode="&#x13d;" horiz-adv-x="567" 
d="M369 556l14 144h89v-39l-45 -105h-58zM16 0v64h42c15 0 31 18 31 32v505c0 15 -16 33 -31 33h-42v66h290v-66h-101v-564h255l11 147h79v-217h-534z" />
    <glyph glyph-name="lcaron" unicode="&#x13e;" horiz-adv-x="268" 
d="M214 562l11 138h88v-39l-41 -99h-58zM14 0v64h38c14 0 28 14 28 27v515c0 12 -14 28 -28 28h-41v66h157c14 0 20 -9 20 -27v-582c0 -14 14 -27 27 -27h39v-64h-240z" />
    <glyph glyph-name="Nacute" unicode="&#x143;" horiz-adv-x="710" 
d="M314 736l46 133h108v-39l-94 -94h-60zM16 0v64h42c15 0 31 18 31 32v505c0 15 -16 33 -31 33h-42v66h196l321 -511h3v445h-88v66h247v-66h-41c-15 0 -30 -18 -30 -33v-601h-100l-344 544h-4v-480h90v-64h-250z" />
    <glyph glyph-name="nacute" unicode="&#x144;" horiz-adv-x="604" 
d="M261 567l46 133h108v-39l-94 -94h-60zM14 0v64h39c13 0 27 14 27 27v337c0 12 -14 28 -27 28h-43v68h153c15 0 26 -14 25 -64v-14c52 48 125 84 206 84c75 0 137 -27 137 -130v-309c0 -14 14 -27 26 -27h33v-64h-239v64h72v300c0 65 -29 81 -82 81
c-56 0 -108 -23 -153 -50v-331h73v-64h-247z" />
    <glyph glyph-name="Ncommaaccent" unicode="&#x145;" horiz-adv-x="710" 
d="M313 -208v46c31 5 47 15 47 30c0 12 -12 16 -22 22c-14 8 -21 20 -21 40c0 26 23 45 53 45c34 0 61 -19 61 -65c0 -76 -41 -110 -118 -118zM16 0v64h42c15 0 31 18 31 32v505c0 15 -16 33 -31 33h-42v66h196l321 -511h3v445h-88v66h247v-66h-41c-15 0 -30 -18 -30 -33
v-601h-100l-344 544h-4v-480h90v-64h-250z" />
    <glyph glyph-name="ncommaaccent" unicode="&#x146;" horiz-adv-x="604" 
d="M246 -208v46c31 5 47 15 47 30c0 12 -12 16 -22 22c-14 8 -21 20 -21 40c0 26 23 45 53 45c34 0 61 -19 61 -65c0 -76 -41 -110 -118 -118zM14 0v64h39c13 0 27 14 27 27v337c0 12 -14 28 -27 28h-43v68h153c15 0 26 -14 25 -64v-14c52 48 125 84 206 84
c75 0 137 -27 137 -130v-309c0 -14 14 -27 26 -27h33v-64h-239v64h72v300c0 65 -29 81 -82 81c-56 0 -108 -23 -153 -50v-331h73v-64h-247z" />
    <glyph glyph-name="Ncaron" unicode="&#x147;" horiz-adv-x="710" 
d="M475 869v-30l-76 -103h-94l-73 103v30h44l78 -69l79 69h42zM16 0v64h42c15 0 31 18 31 32v505c0 15 -16 33 -31 33h-42v66h196l321 -511h3v445h-88v66h247v-66h-41c-15 0 -30 -18 -30 -33v-601h-100l-344 544h-4v-480h90v-64h-250z" />
    <glyph glyph-name="ncaron" unicode="&#x148;" horiz-adv-x="604" 
d="M420 700v-30l-76 -103h-94l-73 103v30h44l78 -69l79 69h42zM14 0v64h39c13 0 27 14 27 27v337c0 12 -14 28 -27 28h-43v68h153c15 0 26 -14 25 -64v-14c52 48 125 84 206 84c75 0 137 -27 137 -130v-309c0 -14 14 -27 26 -27h33v-64h-239v64h72v300c0 65 -29 81 -82 81
c-56 0 -108 -23 -153 -50v-331h73v-64h-247z" />
    <glyph glyph-name="Omacron" unicode="&#x14c;" horiz-adv-x="725" 
d="M489 840v-72h-252v72h252zM363 -7c-182 0 -336 126 -336 357s154 357 336 357c181 0 335 -126 335 -357s-154 -357 -335 -357zM363 69c123 0 214 94 214 279c0 186 -91 280 -214 280c-124 0 -215 -94 -215 -280c0 -185 91 -279 215 -279z" />
    <glyph glyph-name="omacron" unicode="&#x14d;" horiz-adv-x="576" 
d="M410 667v-72h-252v72h252zM288 -6c-150 0 -267 100 -267 266c0 168 117 270 267 270c151 0 267 -102 267 -270c0 -166 -116 -266 -267 -266zM288 64c91 0 155 67 155 195c0 130 -64 198 -155 198s-155 -68 -155 -198c0 -128 64 -195 155 -195z" />
    <glyph glyph-name="Ohungarumlaut" unicode="&#x150;" horiz-adv-x="725" 
d="M253 740l33 133h91v-39l-64 -94h-60zM398 740l33 133h91v-39l-64 -94h-60zM363 -7c-182 0 -336 126 -336 357s154 357 336 357c181 0 335 -126 335 -357s-154 -357 -335 -357zM363 69c123 0 214 94 214 279c0 186 -91 280 -214 280c-124 0 -215 -94 -215 -280
c0 -185 91 -279 215 -279z" />
    <glyph glyph-name="ohungarumlaut" unicode="&#x151;" horiz-adv-x="576" 
d="M176 567l33 133h91v-39l-64 -94h-60zM321 567l33 133h91v-39l-64 -94h-60zM288 -6c-150 0 -267 100 -267 266c0 168 117 270 267 270c151 0 267 -102 267 -270c0 -166 -116 -266 -267 -266zM288 64c91 0 155 67 155 195c0 130 -64 198 -155 198s-155 -68 -155 -198
c0 -128 64 -195 155 -195z" />
    <glyph glyph-name="Racute" unicode="&#x154;" horiz-adv-x="653" 
d="M253 736l46 133h108v-39l-94 -94h-60zM16 0v64h42c15 0 31 18 31 32v505c0 15 -16 33 -31 33h-42v66h286c160 0 265 -56 265 -193c0 -100 -62 -146 -157 -164v-3c71 -15 111 -43 141 -156l25 -93c5 -18 19 -27 29 -27h34v-64h-164l-39 189c-19 91 -54 117 -144 117h-87
v-242h89v-64h-278zM205 375h95c108 0 148 40 148 125c0 89 -44 130 -148 130h-95v-255z" />
    <glyph glyph-name="racute" unicode="&#x155;" horiz-adv-x="391" 
d="M169 567l46 133h108v-39l-94 -94h-60zM14 0v64h39c13 0 27 14 27 27v337c0 12 -14 28 -27 28h-43v68h153c15 0 25 -13 25 -70v-17c37 47 83 91 156 91c12 0 22 -2 30 -4v-89h-21c-80 0 -126 -19 -165 -53v-318h83v-64h-257z" />
    <glyph glyph-name="Rcommaaccent" unicode="&#x156;" horiz-adv-x="653" 
d="M278 -208v46c31 5 47 15 47 30c0 12 -12 16 -22 22c-14 8 -21 20 -21 40c0 26 23 45 53 45c34 0 61 -19 61 -65c0 -76 -41 -110 -118 -118zM16 0v64h42c15 0 31 18 31 32v505c0 15 -16 33 -31 33h-42v66h286c160 0 265 -56 265 -193c0 -100 -62 -146 -157 -164v-3
c71 -15 111 -43 141 -156l25 -93c5 -18 19 -27 29 -27h34v-64h-164l-39 189c-19 91 -54 117 -144 117h-87v-242h89v-64h-278zM205 375h95c108 0 148 40 148 125c0 89 -44 130 -148 130h-95v-255z" />
    <glyph glyph-name="rcommaaccent" unicode="&#x157;" horiz-adv-x="391" 
d="M74 -208v46c31 5 47 15 47 30c0 12 -12 16 -22 22c-14 8 -21 20 -21 40c0 26 23 45 53 45c34 0 61 -19 61 -65c0 -76 -41 -110 -118 -118zM14 0v64h39c13 0 27 14 27 27v337c0 12 -14 28 -27 28h-43v68h153c15 0 25 -13 25 -70v-17c37 47 83 91 156 91c12 0 22 -2 30 -4
v-89h-21c-80 0 -126 -19 -165 -53v-318h83v-64h-257z" />
    <glyph glyph-name="Rcaron" unicode="&#x158;" horiz-adv-x="653" 
d="M413 869v-30l-76 -103h-94l-73 103v30h44l78 -69l79 69h42zM16 0v64h42c15 0 31 18 31 32v505c0 15 -16 33 -31 33h-42v66h286c160 0 265 -56 265 -193c0 -100 -62 -146 -157 -164v-3c71 -15 111 -43 141 -156l25 -93c5 -18 19 -27 29 -27h34v-64h-164l-39 189
c-19 91 -54 117 -144 117h-87v-242h89v-64h-278zM205 375h95c108 0 148 40 148 125c0 89 -44 130 -148 130h-95v-255z" />
    <glyph glyph-name="rcaron" unicode="&#x159;" horiz-adv-x="391" 
d="M328 700v-30l-76 -103h-94l-73 103v30h44l78 -69l79 69h42zM14 0v64h39c13 0 27 14 27 27v337c0 12 -14 28 -27 28h-43v68h153c15 0 25 -13 25 -70v-17c37 47 83 91 156 91c12 0 22 -2 30 -4v-89h-21c-80 0 -126 -19 -165 -53v-318h83v-64h-257z" />
    <glyph glyph-name="Sacute" unicode="&#x15a;" horiz-adv-x="521" 
d="M229 740l46 133h108v-39l-94 -94h-60zM259 -7c-79 0 -119 18 -146 33c-7 0 -13 -11 -15 -26h-76v204h79l10 -85c35 -34 71 -53 146 -53c80 0 133 37 133 114c0 95 -70 106 -172 134c-123 34 -184 85 -184 204c0 126 93 189 222 189c71 0 106 -19 126 -29c7 0 14 12 15 22
h73v-185h-77l-10 70c-25 24 -59 48 -127 48c-73 0 -123 -28 -123 -104c0 -82 64 -96 160 -122c134 -36 202 -79 202 -208c0 -134 -82 -206 -236 -206z" />
    <glyph glyph-name="sacute" unicode="&#x15b;" horiz-adv-x="439" 
d="M186 567l46 133h108v-39l-94 -94h-60zM203 -6c-94 0 -144 15 -182 30v109h65c12 -49 46 -69 116 -69c72 0 115 26 115 80c0 49 -35 63 -124 77c-108 16 -164 50 -164 154c0 98 75 155 200 155c83 0 134 -12 172 -26v-104h-63c-11 39 -40 58 -113 58
c-64 0 -102 -26 -102 -69c0 -46 28 -62 119 -76c120 -18 176 -50 176 -154c0 -100 -70 -165 -215 -165z" />
    <glyph glyph-name="Scircumflex" unicode="&#x15c;" horiz-adv-x="521" 
d="M142 740v29l75 104h95l73 -104v-29h-44l-79 69l-78 -69h-42zM259 -7c-79 0 -119 18 -146 33c-7 0 -13 -11 -15 -26h-76v204h79l10 -85c35 -34 71 -53 146 -53c80 0 133 37 133 114c0 95 -70 106 -172 134c-123 34 -184 85 -184 204c0 126 93 189 222 189
c71 0 106 -19 126 -29c7 0 14 12 15 22h73v-185h-77l-10 70c-25 24 -59 48 -127 48c-73 0 -123 -28 -123 -104c0 -82 64 -96 160 -122c134 -36 202 -79 202 -208c0 -134 -82 -206 -236 -206z" />
    <glyph glyph-name="scircumflex" unicode="&#x15d;" horiz-adv-x="439" 
d="M101 567v29l75 104h95l73 -104v-29h-44l-79 69l-78 -69h-42zM203 -6c-94 0 -144 15 -182 30v109h65c12 -49 46 -69 116 -69c72 0 116 26 116 80c0 49 -36 63 -125 77c-108 16 -164 50 -164 154c0 98 75 155 200 155c83 0 134 -12 172 -26v-104h-63c-11 39 -40 58 -113 58
c-64 0 -102 -26 -102 -69c0 -46 28 -62 119 -76c120 -18 176 -50 176 -154c0 -100 -70 -165 -215 -165z" />
    <glyph glyph-name="Scedilla" unicode="&#x15e;" horiz-adv-x="521" 
d="M250 -175c-35 0 -57 8 -78 17v48h29c7 -9 21 -16 39 -16c24 0 36 10 36 27c0 19 -14 28 -46 28h-18v67c-49 5 -78 18 -99 30c-7 0 -13 -11 -15 -26h-76v204h79l10 -85c35 -34 71 -53 146 -53c80 0 133 37 133 114c0 95 -70 106 -172 134c-123 34 -184 85 -184 204
c0 126 93 189 222 189c71 0 106 -19 126 -29c7 0 14 12 15 22h73v-185h-77l-10 70c-25 24 -59 48 -127 48c-73 0 -123 -28 -123 -104c0 -82 64 -96 160 -122c134 -36 202 -79 202 -208c0 -133 -81 -205 -232 -206v-24c57 -2 84 -26 84 -71c0 -46 -37 -73 -97 -73z" />
    <glyph glyph-name="scedilla" unicode="&#x15f;" horiz-adv-x="439" 
d="M210 -175c-35 0 -57 8 -78 17v48h29c7 -9 21 -16 39 -16c24 0 36 10 36 27c0 19 -14 28 -46 28h-18v66c-75 3 -118 16 -151 29v109h65c12 -49 46 -69 116 -69c72 0 116 26 116 80c0 49 -36 63 -125 77c-108 16 -164 50 -164 154c0 98 75 155 200 155
c83 0 134 -12 172 -26v-104h-63c-11 39 -40 58 -113 58c-64 0 -102 -26 -102 -69c0 -46 28 -62 119 -76c120 -18 176 -50 176 -154c0 -95 -64 -159 -195 -164v-26c57 -2 84 -26 84 -71c0 -46 -37 -73 -97 -73z" />
    <glyph glyph-name="Scommaaccent" unicode="&#x218;" horiz-adv-x="521" 
d="M193 -208v46c31 5 47 15 47 30c0 12 -12 16 -22 22c-14 8 -21 20 -21 40c0 26 23 45 53 45c34 0 61 -19 61 -65c0 -76 -41 -110 -118 -118zM259 -7c-79 0 -119 18 -146 33c-7 0 -13 -11 -15 -26h-76v204h79l10 -85c35 -34 71 -53 146 -53c80 0 133 37 133 114
c0 95 -70 106 -172 134c-123 34 -184 85 -184 204c0 126 93 189 222 189c71 0 106 -19 126 -29c7 0 14 12 15 22h73v-185h-77l-10 70c-25 24 -59 48 -127 48c-73 0 -123 -28 -123 -104c0 -82 64 -96 160 -122c134 -36 202 -79 202 -208c0 -134 -82 -206 -236 -206z" />
    <glyph glyph-name="scommaaccent" unicode="&#x219;" horiz-adv-x="439" 
d="M159 -208v46c31 5 47 15 47 30c0 12 -12 16 -22 22c-14 8 -21 20 -21 40c0 26 23 45 53 45c34 0 61 -19 61 -65c0 -76 -41 -110 -118 -118zM203 -6c-94 0 -144 15 -182 30v109h65c12 -49 46 -69 116 -69c72 0 116 26 116 80c0 49 -36 63 -125 77
c-108 16 -164 50 -164 154c0 98 75 155 200 155c83 0 134 -12 172 -26v-104h-63c-11 39 -40 58 -113 58c-64 0 -102 -26 -102 -69c0 -46 28 -62 119 -76c120 -18 176 -50 176 -154c0 -100 -70 -165 -215 -165z" />
    <glyph glyph-name="Tcommaaccent" unicode="&#x162;" horiz-adv-x="634" 
d="M258 -208v46c31 5 47 15 47 30c0 12 -12 16 -22 22c-14 8 -21 20 -21 40c0 26 23 45 53 45c34 0 61 -19 61 -65c0 -76 -41 -110 -118 -118zM180 0v64h48c16 0 31 18 31 32v535h-150l-10 -148h-75v217h586v-217h-75l-10 148h-150v-535c0 -14 15 -32 31 -32h48v-64h-274z
" />
    <glyph glyph-name="tcommaaccent" unicode="&#x163;" horiz-adv-x="326" 
d="M132 -208v46c31 5 47 15 47 30c0 12 -12 16 -22 22c-14 8 -21 20 -21 40c0 26 23 45 53 45c34 0 61 -19 61 -65c0 -76 -41 -110 -118 -118zM224 -7c-93 0 -147 33 -147 131v332h-67v68h67v141h108v-141h119v-68h-119v-320c0 -59 20 -72 73 -72h53v-58
c-19 -7 -50 -13 -87 -13z" />
    <glyph glyph-name="Tcaron" unicode="&#x164;" horiz-adv-x="634" 
d="M439 869v-30l-76 -103h-94l-73 103v30h44l78 -69l79 69h42zM180 0v64h48c16 0 31 18 31 32v535h-150l-10 -148h-75v217h586v-217h-75l-10 148h-150v-535c0 -14 15 -32 31 -32h48v-64h-274z" />
    <glyph glyph-name="tcaron" unicode="&#x165;" horiz-adv-x="326" 
d="M223 562l11 138h88v-39l-41 -99h-58zM224 -7c-93 0 -147 33 -147 131v332h-67v68h67v141h108v-141h119v-68h-119v-320c0 -59 20 -72 73 -72h53v-58c-19 -7 -50 -13 -87 -13z" />
    <glyph glyph-name="Umacron" unicode="&#x16a;" horiz-adv-x="715" 
d="M361 -7c-171 0 -273 83 -273 261v347c0 15 -15 33 -32 33h-40v66h275v-66h-88v-386c0 -140 69 -175 170 -175c100 0 169 34 169 175v386h-88v66h245v-66h-40c-15 0 -31 -18 -31 -33v-347c0 -178 -91 -261 -267 -261zM500 836v-72h-252v72h252z" />
    <glyph glyph-name="umacron" unicode="&#x16b;" horiz-adv-x="607" 
d="M216 -7c-73 0 -140 29 -140 130v306c0 13 -14 27 -27 27h-39v68h174v-367c0 -68 35 -85 84 -85c54 0 107 24 149 52v332h-75v68h183v-432c0 -13 14 -28 28 -28h40v-64h-151c-14 0 -24 12 -24 61v13c-54 -48 -117 -81 -202 -81zM404 667v-72h-252v72h252z" />
    <glyph glyph-name="Ubreve" unicode="&#x16c;" horiz-adv-x="715" 
d="M361 -7c-171 0 -273 83 -273 261v347c0 15 -15 33 -32 33h-40v66h275v-66h-88v-386c0 -140 69 -175 170 -175c100 0 169 34 169 175v386h-88v66h245v-66h-40c-15 0 -31 -18 -31 -33v-347c0 -178 -91 -261 -267 -261zM374 737c-73 0 -112 44 -127 88v38h64
c6 -34 28 -54 63 -54c36 0 57 20 63 54h64v-38c-15 -44 -54 -88 -127 -88z" />
    <glyph glyph-name="ubreve" unicode="&#x16d;" horiz-adv-x="607" 
d="M216 -7c-73 0 -140 29 -140 130v306c0 13 -14 27 -27 27h-39v68h174v-367c0 -68 35 -85 84 -85c54 0 107 24 149 52v332h-75v68h183v-432c0 -13 14 -28 28 -28h40v-64h-151c-14 0 -24 12 -24 61v13c-54 -48 -117 -81 -202 -81zM278 568c-73 0 -112 44 -127 88v38h64
c6 -34 28 -54 63 -54c36 0 57 20 63 54h64v-38c-15 -44 -54 -88 -127 -88z" />
    <glyph glyph-name="Uring" unicode="&#x16e;" horiz-adv-x="715" 
d="M375 722c-53 0 -99 37 -99 96s46 96 99 96s99 -37 99 -96s-46 -96 -99 -96zM375 766c29 0 51 20 51 52c0 33 -22 53 -51 53s-50 -20 -50 -53c0 -32 21 -52 50 -52zM361 -7c-171 0 -273 83 -273 261v347c0 15 -15 33 -32 33h-40v66h275v-66h-88v-386
c0 -140 69 -175 170 -175c100 0 169 34 169 175v386h-88v66h245v-66h-40c-15 0 -31 -18 -31 -33v-347c0 -178 -91 -261 -267 -261z" />
    <glyph glyph-name="uring" unicode="&#x16f;" horiz-adv-x="607" 
d="M278 569c-53 0 -99 37 -99 96s46 96 99 96s99 -37 99 -96s-46 -96 -99 -96zM278 613c29 0 51 20 51 52c0 33 -22 53 -51 53s-50 -20 -50 -53c0 -32 21 -52 50 -52zM216 -7c-73 0 -140 29 -140 130v306c0 13 -14 27 -27 27h-39v68h174v-367c0 -68 35 -85 84 -85
c54 0 107 24 149 52v332h-75v68h183v-432c0 -13 14 -28 28 -28h40v-64h-151c-14 0 -24 12 -24 61v13c-54 -48 -117 -81 -202 -81z" />
    <glyph glyph-name="Uhungarumlaut" unicode="&#x170;" horiz-adv-x="715" 
d="M361 -7c-171 0 -273 83 -273 261v347c0 15 -15 33 -32 33h-40v66h275v-66h-88v-386c0 -140 69 -175 170 -175c100 0 169 34 169 175v386h-88v66h245v-66h-40c-15 0 -31 -18 -31 -33v-347c0 -178 -91 -261 -267 -261zM265 736l33 133h91v-39l-64 -94h-60zM410 736l33 133
h91v-39l-64 -94h-60z" />
    <glyph glyph-name="uhungarumlaut" unicode="&#x171;" horiz-adv-x="607" 
d="M216 -7c-73 0 -140 29 -140 130v306c0 13 -14 27 -27 27h-39v68h174v-367c0 -68 35 -85 84 -85c54 0 107 24 149 52v332h-75v68h183v-432c0 -13 14 -28 28 -28h40v-64h-151c-14 0 -24 12 -24 61v13c-54 -48 -117 -81 -202 -81zM170 567l33 133h91v-39l-64 -94h-60z
M315 567l33 133h91v-39l-64 -94h-60z" />
    <glyph glyph-name="Uogonek" unicode="&#x172;" horiz-adv-x="715" 
d="M361 -7c-171 0 -273 83 -273 261v347c0 15 -15 33 -32 33h-40v66h275v-66h-88v-386c0 -140 69 -175 170 -175c100 0 169 34 169 175v386h-88v66h245v-66h-40c-15 0 -31 -18 -31 -33v-347c0 -135 -51 -208 -154 -246c-44 -16 -79 -38 -79 -78c0 -20 10 -32 39 -32h31v-48
c-18 -9 -36 -15 -64 -15c-57 0 -92 28 -92 72c0 40 29 69 57 86h-5z" />
    <glyph glyph-name="uogonek" unicode="&#x173;" horiz-adv-x="607" 
d="M526 -165c-57 0 -92 28 -92 72c0 46 39 77 70 93h-62c-14 0 -24 12 -24 61v13c-54 -48 -117 -81 -202 -81c-73 0 -140 29 -140 130v306c0 13 -14 27 -27 27h-39v68h174v-367c0 -68 35 -85 84 -85c54 0 107 24 149 52v332h-75v68h183v-432c0 -13 14 -28 28 -28h40v-64h-25
c-27 -22 -48 -42 -48 -70c0 -20 10 -32 39 -32h31v-48c-18 -9 -36 -15 -64 -15z" />
    <glyph glyph-name="Zacute" unicode="&#x179;" horiz-adv-x="553" 
d="M247 736l46 133h108v-39l-94 -94h-60zM16 0v79l398 547v3h-286l-13 -114h-72v185h494v-81l-398 -547v-2h306l12 126h75v-196h-516z" />
    <glyph glyph-name="zacute" unicode="&#x17a;" horiz-adv-x="482" 
d="M208 567l46 133h108v-39l-94 -94h-60zM16 0v73l323 380h-227l-11 -93h-65v164h428v-75l-324 -379h236l10 93h68v-163h-438z" />
    <glyph glyph-name="Zdotaccent" unicode="&#x17b;" horiz-adv-x="553" 
d="M16 0v79l398 547v3h-286l-13 -114h-72v185h494v-81l-398 -547v-2h306l12 126h75v-196h-516zM283 748c-35 0 -62 27 -62 61s27 61 62 61s62 -27 62 -61s-27 -61 -62 -61z" />
    <glyph glyph-name="zdotaccent" unicode="&#x17c;" horiz-adv-x="482" 
d="M16 0v73l323 380h-227l-11 -93h-65v164h428v-75l-324 -379h236l10 93h68v-163h-438zM245 579c-35 0 -62 27 -62 61s27 61 62 61s62 -27 62 -61s-27 -61 -62 -61z" />
    <glyph glyph-name="Scaron.titling" horiz-adv-x="521" 
d="M386 853v-30l-76 -103h-94l-73 103v30h44l78 -69l79 69h42zM259 -7c-79 0 -119 18 -146 33c-7 0 -13 -11 -15 -26h-76v204h79l10 -85c35 -34 71 -53 146 -53c80 0 133 37 133 114c0 95 -70 106 -172 134c-123 34 -184 85 -184 204c0 126 93 189 222 189
c71 0 106 -19 126 -29c7 0 14 12 15 22h73v-185h-77l-10 70c-25 24 -59 48 -127 48c-73 0 -123 -28 -123 -104c0 -82 64 -96 160 -122c134 -36 202 -79 202 -208c0 -134 -82 -206 -236 -206z" />
    <glyph glyph-name="Yacute.titling" horiz-adv-x="659" 
d="M196 0v64h48c16 0 31 18 31 32v194l-196 314c-11 17 -26 30 -43 30h-21v66h260v-66h-82l157 -258h2l116 192c25 42 8 66 -32 66h-32v66h240v-66h-19c-18 0 -33 -13 -45 -32l-189 -308v-198c0 -14 15 -32 31 -32h48v-64h-274zM301 717l46 133h108v-39l-94 -94h-60z" />
    <glyph glyph-name="Zcaron.titling" horiz-adv-x="553" 
d="M407 850v-30l-76 -103h-94l-73 103v30h44l78 -69l79 69h42zM16 0v79l398 547v3h-286l-13 -114h-72v185h494v-81l-398 -547v-2h306l12 126h75v-196h-516z" />
    <glyph glyph-name="Adieresis.titling" horiz-adv-x="721" 
d="M535 64l-53 157h-274l-27 -77c-18 -50 -12 -80 32 -80h47v-64h-249v64h25c20 0 35 14 43 34l181 502c7 20 -3 34 -21 34h-54v66h253l205 -603c6 -18 23 -33 40 -33h27v-64h-273v64h98zM348 614l-115 -325h227l-108 325h-4zM257 729c-33 0 -59 26 -59 58s26 58 59 58
s59 -26 59 -58s-26 -58 -59 -58zM429 729c-33 0 -59 26 -59 58s26 58 59 58s59 -26 59 -58s-26 -58 -59 -58z" />
    <glyph glyph-name="Aring.titling" horiz-adv-x="721" 
d="M535 64l-53 157h-274l-27 -77c-18 -50 -12 -80 32 -80h47v-64h-249v64h25c20 0 35 14 43 34l181 502c7 20 -3 34 -21 34h-54v66h253l205 -603c6 -18 23 -33 40 -33h27v-64h-273v64h98zM348 614l-115 -325h227l-108 325h-4zM343 719c-53 0 -99 37 -99 96s46 96 99 96
s99 -37 99 -96s-46 -96 -99 -96zM343 763c29 0 51 20 51 52c0 33 -22 53 -51 53s-50 -20 -50 -53c0 -32 21 -52 50 -52z" />
    <glyph glyph-name="Eacute.titling" horiz-adv-x="588" 
d="M269 717l46 133h108v-39l-94 -94h-60zM16 0v64h42c15 0 31 18 31 32v505c0 15 -16 33 -31 33h-42v66h541v-186h-73l-12 115h-269v-237h137l8 83h70v-235h-70l-8 83h-137v-253h278l12 128h75v-198h-552z" />
    <glyph glyph-name="Ntilde.titling" horiz-adv-x="710" 
d="M16 0v64h42c15 0 31 18 31 32v505c0 15 -16 33 -31 33h-42v66h196l321 -511h3v445h-88v66h247v-66h-41c-15 0 -30 -18 -30 -33v-601h-100l-344 544h-4v-480h90v-64h-250zM195 723v55c15 30 41 58 90 58c46 0 98 -32 128 -32c23 0 36 14 42 36h52v-56
c-15 -31 -41 -58 -90 -58c-46 0 -98 35 -128 35c-23 0 -36 -15 -42 -38h-52z" />
    <glyph glyph-name="Odieresis.titling" horiz-adv-x="725" 
d="M276 732c-33 0 -59 26 -59 58s26 58 59 58s59 -26 59 -58s-26 -58 -59 -58zM448 732c-33 0 -59 26 -59 58s26 58 59 58s59 -26 59 -58s-26 -58 -59 -58zM363 -7c-182 0 -336 126 -336 357s154 357 336 357c181 0 335 -126 335 -357s-154 -357 -335 -357zM363 69
c123 0 214 94 214 279c0 186 -91 280 -214 280c-124 0 -215 -94 -215 -280c0 -185 91 -279 215 -279z" />
    <glyph glyph-name="Udieresis.titling" horiz-adv-x="715" 
d="M287 729c-33 0 -59 26 -59 58s26 58 59 58s59 -26 59 -58s-26 -58 -59 -58zM459 729c-33 0 -59 26 -59 58s26 58 59 58s59 -26 59 -58s-26 -58 -59 -58zM361 -7c-171 0 -273 83 -273 261v347c0 15 -15 33 -32 33h-40v66h275v-66h-88v-386c0 -140 69 -175 170 -175
c100 0 169 34 169 175v386h-88v66h245v-66h-40c-15 0 -31 -18 -31 -33v-347c0 -178 -91 -261 -267 -261z" />
    <glyph glyph-name="Agrave.titling" horiz-adv-x="721" 
d="M535 64l-53 157h-274l-27 -77c-18 -50 -12 -80 32 -80h47v-64h-249v64h25c20 0 35 14 43 34l181 502c7 20 -3 34 -21 34h-54v66h253l205 -603c6 -18 23 -33 40 -33h27v-64h-273v64h98zM348 614l-115 -325h227l-108 325h-4zM320 717l-94 94v39h108l46 -133h-60z" />
    <glyph glyph-name="Atilde.titling" horiz-adv-x="721" 
d="M535 64l-53 157h-274l-27 -77c-18 -50 -12 -80 32 -80h47v-64h-249v64h25c20 0 35 14 43 34l181 502c7 20 -3 34 -21 34h-54v66h253l205 -603c6 -18 23 -33 40 -33h27v-64h-273v64h98zM348 614l-115 -325h227l-108 325h-4zM184 723v55c15 30 41 58 90 58
c46 0 98 -32 128 -32c23 0 36 14 42 36h52v-56c-15 -31 -41 -58 -90 -58c-46 0 -98 35 -128 35c-23 0 -36 -15 -42 -38h-52z" />
    <glyph glyph-name="Otilde.titling" horiz-adv-x="725" 
d="M363 -7c-182 0 -336 126 -336 357s154 357 336 357c181 0 335 -126 335 -357s-154 -357 -335 -357zM363 69c123 0 214 94 214 279c0 186 -91 280 -214 280c-124 0 -215 -94 -215 -280c0 -185 91 -279 215 -279zM205 726v55c15 30 41 58 90 58c46 0 98 -32 128 -32
c23 0 36 14 42 36h52v-56c-15 -31 -41 -58 -90 -58c-46 0 -98 35 -128 35c-23 0 -36 -15 -42 -38h-52z" />
    <glyph glyph-name="Acircumflex.titling" horiz-adv-x="721" 
d="M535 64l-53 157h-274l-27 -77c-18 -50 -12 -80 32 -80h47v-64h-249v64h25c20 0 35 14 43 34l181 502c7 20 -3 34 -21 34h-54v66h253l205 -603c6 -18 23 -33 40 -33h27v-64h-273v64h98zM348 614l-115 -325h227l-108 325h-4zM219 717v29l75 104h95l73 -104v-29h-44l-79 69
l-78 -69h-42z" />
    <glyph glyph-name="Ecircumflex.titling" horiz-adv-x="588" 
d="M182 717v29l75 104h95l73 -104v-29h-44l-79 69l-78 -69h-42zM16 0v64h42c15 0 31 18 31 32v505c0 15 -16 33 -31 33h-42v66h541v-186h-73l-12 115h-269v-237h137l8 83h70v-235h-70l-8 83h-137v-253h278l12 128h75v-198h-552z" />
    <glyph glyph-name="Aacute.titling" horiz-adv-x="721" 
d="M535 64l-53 157h-274l-27 -77c-18 -50 -12 -80 32 -80h47v-64h-249v64h25c20 0 35 14 43 34l181 502c7 20 -3 34 -21 34h-54v66h253l205 -603c6 -18 23 -33 40 -33h27v-64h-273v64h98zM348 614l-115 -325h227l-108 325h-4zM307 717l46 133h108v-39l-94 -94h-60z" />
    <glyph glyph-name="Edieresis.titling" horiz-adv-x="588" 
d="M218 729c-33 0 -59 26 -59 58s26 58 59 58s59 -26 59 -58s-26 -58 -59 -58zM390 729c-33 0 -59 26 -59 58s26 58 59 58s59 -26 59 -58s-26 -58 -59 -58zM16 0v64h42c15 0 31 18 31 32v505c0 15 -16 33 -31 33h-42v66h541v-186h-73l-12 115h-269v-237h137l8 83h70v-235
h-70l-8 83h-137v-253h278l12 128h75v-198h-552z" />
    <glyph glyph-name="Egrave.titling" horiz-adv-x="588" 
d="M16 0v64h42c15 0 31 18 31 32v505c0 15 -16 33 -31 33h-42v66h541v-186h-73l-12 115h-269v-237h137l8 83h70v-235h-70l-8 83h-137v-253h278l12 128h75v-198h-552zM281 717l-94 94v39h108l46 -133h-60z" />
    <glyph glyph-name="Iacute.titling" horiz-adv-x="310" 
d="M16 0v64h50c16 0 31 18 31 32v505c0 15 -15 33 -31 33h-50v66h278v-66h-50c-16 0 -31 -18 -31 -33v-505c0 -14 15 -32 31 -32h50v-64h-278zM118 717l46 133h108v-39l-94 -94h-60z" />
    <glyph glyph-name="Icircumflex.titling" horiz-adv-x="310" 
d="M16 0v64h50c16 0 31 18 31 32v505c0 15 -15 33 -31 33h-50v66h278v-66h-50c-16 0 -31 -18 -31 -33v-505c0 -14 15 -32 31 -32h50v-64h-278zM33 717v29l75 104h95l73 -104v-29h-44l-79 69l-78 -69h-42z" />
    <glyph glyph-name="Idieresis.titling" horiz-adv-x="310" 
d="M16 0v64h50c16 0 31 18 31 32v505c0 15 -15 33 -31 33h-50v66h278v-66h-50c-16 0 -31 -18 -31 -33v-505c0 -14 15 -32 31 -32h50v-64h-278zM69 729c-33 0 -59 26 -59 58s26 58 59 58s59 -26 59 -58s-26 -58 -59 -58zM241 729c-33 0 -59 26 -59 58s26 58 59 58
s59 -26 59 -58s-26 -58 -59 -58z" />
    <glyph glyph-name="Igrave.titling" horiz-adv-x="310" 
d="M16 0v64h50c16 0 31 18 31 32v505c0 15 -15 33 -31 33h-50v66h278v-66h-50c-16 0 -31 -18 -31 -33v-505c0 -14 15 -32 31 -32h50v-64h-278zM132 717l-94 94v39h108l46 -133h-60z" />
    <glyph glyph-name="Oacute.titling" horiz-adv-x="725" 
d="M325 720l46 133h108v-39l-94 -94h-60zM363 -7c-182 0 -336 126 -336 357s154 357 336 357c181 0 335 -126 335 -357s-154 -357 -335 -357zM363 69c123 0 214 94 214 279c0 186 -91 280 -214 280c-124 0 -215 -94 -215 -280c0 -185 91 -279 215 -279z" />
    <glyph glyph-name="Ocircumflex.titling" horiz-adv-x="725" 
d="M240 720v29l75 104h95l73 -104v-29h-44l-79 69l-78 -69h-42zM363 -7c-182 0 -336 126 -336 357s154 357 336 357c181 0 335 -126 335 -357s-154 -357 -335 -357zM363 69c123 0 214 94 214 279c0 186 -91 280 -214 280c-124 0 -215 -94 -215 -280c0 -185 91 -279 215 -279
z" />
    <glyph glyph-name="Ograve.titling" horiz-adv-x="725" 
d="M363 -7c-182 0 -336 126 -336 357s154 357 336 357c181 0 335 -126 335 -357s-154 -357 -335 -357zM363 69c123 0 214 94 214 279c0 186 -91 280 -214 280c-124 0 -215 -94 -215 -280c0 -185 91 -279 215 -279zM339 720l-94 94v39h108l46 -133h-60z" />
    <glyph glyph-name="Uacute.titling" horiz-adv-x="715" 
d="M337 717l46 133h108v-39l-94 -94h-60zM361 -7c-171 0 -273 83 -273 261v347c0 15 -15 33 -32 33h-40v66h275v-66h-88v-386c0 -140 69 -175 170 -175c100 0 169 34 169 175v386h-88v66h245v-66h-40c-15 0 -31 -18 -31 -33v-347c0 -178 -91 -261 -267 -261z" />
    <glyph glyph-name="Ucircumflex.titling" horiz-adv-x="715" 
d="M252 717v29l75 104h95l73 -104v-29h-44l-79 69l-78 -69h-42zM361 -7c-171 0 -273 83 -273 261v347c0 15 -15 33 -32 33h-40v66h275v-66h-88v-386c0 -140 69 -175 170 -175c100 0 169 34 169 175v386h-88v66h245v-66h-40c-15 0 -31 -18 -31 -33v-347
c0 -178 -91 -261 -267 -261z" />
    <glyph glyph-name="Ugrave.titling" horiz-adv-x="715" 
d="M361 -7c-171 0 -273 83 -273 261v347c0 15 -15 33 -32 33h-40v66h275v-66h-88v-386c0 -140 69 -175 170 -175c100 0 169 34 169 175v386h-88v66h245v-66h-40c-15 0 -31 -18 -31 -33v-347c0 -178 -91 -261 -267 -261zM352 717l-94 94v39h108l46 -133h-60z" />
    <glyph glyph-name="Ydieresis.titling" horiz-adv-x="659" 
d="M196 0v64h48c16 0 31 18 31 32v194l-196 314c-11 17 -26 30 -43 30h-21v66h260v-66h-82l157 -258h2l116 192c25 42 8 66 -32 66h-32v66h240v-66h-19c-18 0 -33 -13 -45 -32l-189 -308v-198c0 -14 15 -32 31 -32h48v-64h-274zM252 729c-33 0 -59 26 -59 58s26 58 59 58
s59 -26 59 -58s-26 -58 -59 -58zM424 729c-33 0 -59 26 -59 58s26 58 59 58s59 -26 59 -58s-26 -58 -59 -58z" />
    <glyph glyph-name="Amacron.titling" horiz-adv-x="721" 
d="M535 64l-53 157h-274l-27 -77c-18 -50 -12 -80 32 -80h47v-64h-249v64h25c20 0 35 14 43 34l181 502c7 20 -3 34 -21 34h-54v66h253l205 -603c6 -18 23 -33 40 -33h27v-64h-273v64h98zM348 614l-115 -325h227l-108 325h-4zM467 817v-72h-252v72h252z" />
    <glyph glyph-name="Abreve.titling" horiz-adv-x="721" 
d="M535 64l-53 157h-274l-27 -77c-18 -50 -12 -80 32 -80h47v-64h-249v64h25c20 0 35 14 43 34l181 502c7 20 -3 34 -21 34h-54v66h253l205 -603c6 -18 23 -33 40 -33h27v-64h-273v64h98zM348 614l-115 -325h227l-108 325h-4zM343 718c-73 0 -112 44 -127 88v38h64
c6 -34 28 -54 63 -54c36 0 57 20 63 54h64v-38c-15 -44 -54 -88 -127 -88z" />
    <glyph glyph-name="Cacute.titling" horiz-adv-x="630" 
d="M319 720l46 133h108v-39l-94 -94h-60zM359 -7c-202 0 -333 125 -333 357s141 357 339 357c82 0 120 -17 140 -26c8 0 15 8 16 19h73v-214h-79l-12 99c-29 24 -72 44 -135 44c-125 0 -220 -83 -220 -275c0 -189 79 -285 215 -285c92 0 150 37 188 89h55v-82
c-57 -48 -135 -83 -247 -83z" />
    <glyph glyph-name="Ccircumflex.titling" horiz-adv-x="630" 
d="M234 720v29l75 104h95l73 -104v-29h-44l-79 69l-78 -69h-42zM359 -7c-202 0 -333 125 -333 357s141 357 339 357c82 0 120 -17 140 -26c8 0 15 8 16 19h73v-214h-79l-12 99c-29 24 -72 44 -135 44c-125 0 -220 -83 -220 -275c0 -189 79 -285 215 -285c92 0 150 37 188 89
h55v-82c-57 -48 -135 -83 -247 -83z" />
    <glyph glyph-name="Cdotaccent.titling" horiz-adv-x="630" 
d="M359 -7c-202 0 -333 125 -333 357s141 357 339 357c82 0 120 -17 140 -26c8 0 15 8 16 19h73v-214h-79l-12 99c-29 24 -72 44 -135 44c-125 0 -220 -83 -220 -275c0 -189 79 -285 215 -285c92 0 150 37 188 89h55v-82c-57 -48 -135 -83 -247 -83zM355 732
c-35 0 -62 27 -62 61s27 61 62 61s62 -27 62 -61s-27 -61 -62 -61z" />
    <glyph glyph-name="Ccaron.titling" horiz-adv-x="630" 
d="M478 853v-30l-76 -103h-94l-73 103v30h44l78 -69l79 69h42zM359 -7c-202 0 -333 125 -333 357s141 357 339 357c82 0 120 -17 140 -26c8 0 15 8 16 19h73v-214h-79l-12 99c-29 24 -72 44 -135 44c-125 0 -220 -83 -220 -275c0 -189 79 -285 215 -285c92 0 150 37 188 89
h55v-82c-57 -48 -135 -83 -247 -83z" />
    <glyph glyph-name="Dcaron.titling" horiz-adv-x="690" 
d="M420 850v-30l-76 -103h-94l-73 103v30h44l78 -69l79 69h42zM16 0v64h42c15 0 31 18 31 32v505c0 15 -16 33 -31 33h-42v66h283c233 0 364 -104 364 -348c0 -240 -132 -352 -368 -352h-279zM205 68h90c168 0 247 83 247 283c0 199 -78 278 -247 278h-90v-561z" />
    <glyph glyph-name="Emacron.titling" horiz-adv-x="588" 
d="M16 0v64h42c15 0 31 18 31 32v505c0 15 -16 33 -31 33h-42v66h541v-186h-73l-12 115h-269v-237h137l8 83h70v-235h-70l-8 83h-137v-253h278l12 128h75v-198h-552zM430 817v-72h-252v72h252z" />
    <glyph glyph-name="Edotaccent.titling" horiz-adv-x="588" 
d="M16 0v64h42c15 0 31 18 31 32v505c0 15 -16 33 -31 33h-42v66h541v-186h-73l-12 115h-269v-237h137l8 83h70v-235h-70l-8 83h-137v-253h278l12 128h75v-198h-552zM304 729c-35 0 -62 27 -62 61s27 61 62 61s62 -27 62 -61s-27 -61 -62 -61z" />
    <glyph glyph-name="Ecaron.titling" horiz-adv-x="588" 
d="M426 850v-30l-76 -103h-94l-73 103v30h44l78 -69l79 69h42zM16 0v64h42c15 0 31 18 31 32v505c0 15 -16 33 -31 33h-42v66h541v-186h-73l-12 115h-269v-237h137l8 83h70v-235h-70l-8 83h-137v-253h278l12 128h75v-198h-552z" />
    <glyph glyph-name="Ebreve.titling" horiz-adv-x="588" 
d="M16 0v64h42c15 0 31 18 31 32v505c0 15 -16 33 -31 33h-42v66h541v-186h-73l-12 115h-269v-237h137l8 83h70v-235h-70l-8 83h-137v-253h278l12 128h75v-198h-552zM308 721c-73 0 -112 44 -127 88v38h64c6 -34 28 -54 63 -54c36 0 57 20 63 54h64v-38
c-15 -44 -54 -88 -127 -88z" />
    <glyph glyph-name="Gcircumflex.titling" horiz-adv-x="672" 
d="M239 720v29l75 104h95l73 -104v-29h-44l-79 69l-78 -69h-42zM349 -7c-199 0 -323 125 -323 357s140 357 340 357c75 0 113 -17 136 -26c6 0 14 5 16 19h73v-208h-79l-12 89c-32 25 -74 48 -133 48c-124 0 -219 -83 -219 -275c0 -189 73 -285 206 -285c63 0 99 14 130 31
v159h-83v66h257v-66h-29c-16 0 -31 -18 -31 -32v-227h-64c0 11 -8 29 -25 29c-31 -13 -78 -36 -160 -36z" />
    <glyph glyph-name="Gbreve.titling" horiz-adv-x="672" 
d="M349 -7c-199 0 -323 125 -323 357s140 357 340 357c75 0 113 -17 136 -26c6 0 14 5 16 19h73v-208h-79l-12 89c-32 25 -74 48 -133 48c-124 0 -219 -83 -219 -275c0 -189 73 -285 206 -285c63 0 99 14 130 31v159h-83v66h257v-66h-29c-16 0 -31 -18 -31 -32v-227h-64
c0 11 -8 29 -25 29c-31 -13 -78 -36 -160 -36zM361 721c-73 0 -112 44 -127 88v38h64c6 -34 28 -54 63 -54c36 0 57 20 63 54h64v-38c-15 -44 -54 -88 -127 -88z" />
    <glyph glyph-name="Gdotaccent.titling" horiz-adv-x="672" 
d="M349 -7c-199 0 -323 125 -323 357s140 357 340 357c75 0 113 -17 136 -26c6 0 14 5 16 19h73v-208h-79l-12 89c-32 25 -74 48 -133 48c-124 0 -219 -83 -219 -275c0 -189 73 -285 206 -285c63 0 99 14 130 31v159h-83v66h257v-66h-29c-16 0 -31 -18 -31 -32v-227h-64
c0 11 -8 29 -25 29c-31 -13 -78 -36 -160 -36zM360 732c-35 0 -62 27 -62 61s27 61 62 61s62 -27 62 -61s-27 -61 -62 -61z" />
    <glyph glyph-name="Hcircumflex.titling" horiz-adv-x="726" 
d="M241 717v29l75 104h95l73 -104v-29h-44l-79 69l-78 -69h-42zM16 0v64h42c15 0 31 18 31 32v505c0 15 -16 33 -31 33h-42v66h278v-66h-89v-241h315v241h-89v66h279v-66h-42c-16 0 -32 -18 -32 -33v-505c0 -14 16 -32 32 -32h42v-64h-279v64h89v261h-315v-261h89v-64h-278z
" />
    <glyph glyph-name="Imacron.titling" horiz-adv-x="310" 
d="M16 0v64h50c16 0 31 18 31 32v505c0 15 -15 33 -31 33h-50v66h278v-66h-50c-16 0 -31 -18 -31 -33v-505c0 -14 15 -32 31 -32h50v-64h-278zM281 817v-72h-252v72h252z" />
    <glyph glyph-name="Idotaccent.titling" horiz-adv-x="310" 
d="M16 0v64h50c16 0 31 18 31 32v505c0 15 -15 33 -31 33h-50v66h278v-66h-50c-16 0 -31 -18 -31 -33v-505c0 -14 15 -32 31 -32h50v-64h-278zM155 729c-35 0 -62 27 -62 61s27 61 62 61s62 -27 62 -61s-27 -61 -62 -61z" />
    <glyph glyph-name="Jcircumflex.titling" horiz-adv-x="476" 
d="M201 717v29l75 104h95l73 -104v-29h-44l-79 69l-78 -69h-42zM172 -7c-70 0 -117 16 -158 36v84h64c17 -24 43 -44 92 -44c67 0 95 35 95 100v432c0 15 -14 33 -30 33h-48v66h273v-66h-48c-15 0 -30 -18 -30 -33v-434c0 -117 -66 -174 -210 -174z" />
    <glyph glyph-name="Lacute.titling" horiz-adv-x="567" 
d="M119 717l46 133h108v-39l-94 -94h-60zM16 0v64h42c15 0 31 18 31 32v505c0 15 -16 33 -31 33h-42v66h290v-66h-101v-564h255l11 147h79v-217h-534z" />
    <glyph glyph-name="Nacute.titling" horiz-adv-x="710" 
d="M315 717l46 133h108v-39l-94 -94h-60zM16 0v64h42c15 0 31 18 31 32v505c0 15 -16 33 -31 33h-42v66h196l321 -511h3v445h-88v66h247v-66h-41c-15 0 -30 -18 -30 -33v-601h-100l-344 544h-4v-480h90v-64h-250z" />
    <glyph glyph-name="Ncaron.titling" horiz-adv-x="710" 
d="M475 850v-30l-76 -103h-94l-73 103v30h44l78 -69l79 69h42zM16 0v64h42c15 0 31 18 31 32v505c0 15 -16 33 -31 33h-42v66h196l321 -511h3v445h-88v66h247v-66h-41c-15 0 -30 -18 -30 -33v-601h-100l-344 544h-4v-480h90v-64h-250z" />
    <glyph glyph-name="Omacron.titling" horiz-adv-x="725" 
d="M488 820v-72h-252v72h252zM363 -7c-182 0 -336 126 -336 357s154 357 336 357c181 0 335 -126 335 -357s-154 -357 -335 -357zM363 69c123 0 214 94 214 279c0 186 -91 280 -214 280c-124 0 -215 -94 -215 -280c0 -185 91 -279 215 -279z" />
    <glyph glyph-name="Ohungarumlaut.titling" horiz-adv-x="725" 
d="M250 720l33 133h91v-39l-64 -94h-60zM395 720l33 133h91v-39l-64 -94h-60zM363 -7c-182 0 -336 126 -336 357s154 357 336 357c181 0 335 -126 335 -357s-154 -357 -335 -357zM363 69c123 0 214 94 214 279c0 186 -91 280 -214 280c-124 0 -215 -94 -215 -280
c0 -185 91 -279 215 -279z" />
    <glyph glyph-name="Racute.titling" horiz-adv-x="653" 
d="M250 717l46 133h108v-39l-94 -94h-60zM16 0v64h42c15 0 31 18 31 32v505c0 15 -16 33 -31 33h-42v66h286c160 0 265 -56 265 -193c0 -100 -62 -146 -157 -164v-3c71 -15 111 -43 141 -156l25 -93c5 -18 19 -27 29 -27h34v-64h-164l-39 189c-19 91 -54 117 -144 117h-87
v-242h89v-64h-278zM205 375h95c108 0 148 40 148 125c0 89 -44 130 -148 130h-95v-255z" />
    <glyph glyph-name="Rcaron.titling" horiz-adv-x="653" 
d="M409 850v-30l-76 -103h-94l-73 103v30h44l78 -69l79 69h42zM16 0v64h42c15 0 31 18 31 32v505c0 15 -16 33 -31 33h-42v66h286c160 0 265 -56 265 -193c0 -100 -62 -146 -157 -164v-3c71 -15 111 -43 141 -156l25 -93c5 -18 19 -27 29 -27h34v-64h-164l-39 189
c-19 91 -54 117 -144 117h-87v-242h89v-64h-278zM205 375h95c108 0 148 40 148 125c0 89 -44 130 -148 130h-95v-255z" />
    <glyph glyph-name="Sacute.titling" horiz-adv-x="521" 
d="M225 720l46 133h108v-39l-94 -94h-60zM259 -7c-79 0 -119 18 -146 33c-7 0 -13 -11 -15 -26h-76v204h79l10 -85c35 -34 71 -53 146 -53c80 0 133 37 133 114c0 95 -70 106 -172 134c-123 34 -184 85 -184 204c0 126 93 189 222 189c71 0 106 -19 126 -29c7 0 14 12 15 22
h73v-185h-77l-10 70c-25 24 -59 48 -127 48c-73 0 -123 -28 -123 -104c0 -82 64 -96 160 -122c134 -36 202 -79 202 -208c0 -134 -82 -206 -236 -206z" />
    <glyph glyph-name="Scircumflex.titling" horiz-adv-x="521" 
d="M140 720v29l75 104h95l73 -104v-29h-44l-79 69l-78 -69h-42zM259 -7c-79 0 -119 18 -146 33c-7 0 -13 -11 -15 -26h-76v204h79l10 -85c35 -34 71 -53 146 -53c80 0 133 37 133 114c0 95 -70 106 -172 134c-123 34 -184 85 -184 204c0 126 93 189 222 189
c71 0 106 -19 126 -29c7 0 14 12 15 22h73v-185h-77l-10 70c-25 24 -59 48 -127 48c-73 0 -123 -28 -123 -104c0 -82 64 -96 160 -122c134 -36 202 -79 202 -208c0 -134 -82 -206 -236 -206z" />
    <glyph glyph-name="Tcaron.titling" horiz-adv-x="634" 
d="M435 850v-30l-76 -103h-94l-73 103v30h44l78 -69l79 69h42zM180 0v64h48c16 0 31 18 31 32v535h-150l-10 -148h-75v217h586v-217h-75l-10 148h-150v-535c0 -14 15 -32 31 -32h48v-64h-274z" />
    <glyph glyph-name="Umacron.titling" horiz-adv-x="715" 
d="M361 -7c-171 0 -273 83 -273 261v347c0 15 -15 33 -32 33h-40v66h275v-66h-88v-386c0 -140 69 -175 170 -175c100 0 169 34 169 175v386h-88v66h245v-66h-40c-15 0 -31 -18 -31 -33v-347c0 -178 -91 -261 -267 -261zM497 817v-72h-252v72h252z" />
    <glyph glyph-name="Ubreve.titling" horiz-adv-x="715" 
d="M361 -7c-171 0 -273 83 -273 261v347c0 15 -15 33 -32 33h-40v66h275v-66h-88v-386c0 -140 69 -175 170 -175c100 0 169 34 169 175v386h-88v66h245v-66h-40c-15 0 -31 -18 -31 -33v-347c0 -178 -91 -261 -267 -261zM371 718c-73 0 -112 44 -127 88v38h64
c6 -34 28 -54 63 -54c36 0 57 20 63 54h64v-38c-15 -44 -54 -88 -127 -88z" />
    <glyph glyph-name="Uring.titling" horiz-adv-x="715" 
d="M368 693c-53 0 -99 37 -99 96s46 96 99 96s99 -37 99 -96s-46 -96 -99 -96zM368 737c29 0 51 20 51 52c0 33 -22 53 -51 53s-50 -20 -50 -53c0 -32 21 -52 50 -52zM361 -7c-171 0 -273 83 -273 261v347c0 15 -15 33 -32 33h-40v66h275v-66h-88v-386
c0 -140 69 -175 170 -175c100 0 169 34 169 175v386h-88v66h245v-66h-40c-15 0 -31 -18 -31 -33v-347c0 -178 -91 -261 -267 -261z" />
    <glyph glyph-name="Uhungarumlaut.titling" horiz-adv-x="715" 
d="M361 -7c-171 0 -273 83 -273 261v347c0 15 -15 33 -32 33h-40v66h275v-66h-88v-386c0 -140 69 -175 170 -175c100 0 169 34 169 175v386h-88v66h245v-66h-40c-15 0 -31 -18 -31 -33v-347c0 -178 -91 -261 -267 -261zM263 717l33 133h91v-39l-64 -94h-60zM408 717l33 133
h91v-39l-64 -94h-60z" />
    <glyph glyph-name="Zacute.titling" horiz-adv-x="553" 
d="M243 717l46 133h108v-39l-94 -94h-60zM16 0v79l398 547v3h-286l-13 -114h-72v185h494v-81l-398 -547v-2h306l12 126h75v-196h-516z" />
    <glyph glyph-name="Zdotaccent.titling" horiz-adv-x="553" 
d="M16 0v79l398 547v3h-286l-13 -114h-72v185h494v-81l-398 -547v-2h306l12 126h75v-196h-516zM280 729c-35 0 -62 27 -62 61s27 61 62 61s62 -27 62 -61s-27 -61 -62 -61z" />
    <glyph glyph-name="uni2009" unicode="&#x2009;" horiz-adv-x="99" 
 />
    </font>
</defs>
</svg>
